NotoSansIndicSiyaqNumbers-Regular.ufo
<glyph name="Alef" format="2">
  <advance width="330"/>
  <unicode hex="0627"/>
  <note>
Alef
</note>
  <outline>
    <contour>
      <point x="123" y="101" type="line"/>
      <point x="165" y="199"/>
      <point x="187" y="291"/>
      <point x="192" y="377" type="curve" smooth="yes"/>
      <point x="208" y="659" type="line" smooth="yes"/>
      <point x="214" y="767"/>
      <point x="222" y="834"/>
      <point x="233" y="861" type="curve"/>
      <point x="212" y="869" type="line"/>
      <point x="137" y="702"/>
      <point x="132" y="663"/>
      <point x="128" y="544" type="curve" smooth="yes"/>
      <point x="119" y="295" type="line" smooth="yes"/>
      <point x="116" y="199"/>
      <point x="107" y="136"/>
      <point x="101" y="106" type="curve"/>
    </contour>
  </outline>
</glyph>
<glyph name="ZeroArabic" format="2">
  <advance width="192"/>
  <unicode hex="0660"/>
  <outline>
    <contour>
      <point x="32" y="333" type="curve"/>
      <point x="32" y="324" type="line"/>
      <point x="48" y="311"/>
      <point x="78" y="284"/>
      <point x="92" y="270" type="curve"/>
      <point x="100" y="270" type="line"/>
      <point x="131" y="292"/>
      <point x="160" y="317"/>
      <point x="160" y="339" type="curve" smooth="yes"/>
      <point x="160" y="359"/>
      <point x="140" y="377"/>
      <point x="102" y="400" type="curve"/>
      <point x="95" y="400" type="line"/>
      <point x="85" y="395"/>
      <point x="50" y="357"/>
    </contour>
  </outline>
</glyph>
<glyph name="OneArabic" format="2">
  <advance width="209"/>
  <unicode hex="0661"/>
  <outline>
    <contour>
      <point x="87" y="145" type="curve"/>
      <point x="108" y="142" type="line"/>
      <point x="137" y="208"/>
      <point x="140" y="252"/>
      <point x="140" y="356" type="curve" smooth="yes"/>
      <point x="140" y="419"/>
      <point x="126" y="552"/>
      <point x="117" y="580" type="curve"/>
      <point x="103" y="581" type="line"/>
      <point x="92" y="555"/>
      <point x="78" y="518"/>
      <point x="69" y="492" type="curve"/>
      <point x="74" y="455"/>
      <point x="92" y="354"/>
      <point x="92" y="239" type="curve" smooth="yes"/>
      <point x="92" y="190"/>
      <point x="89" y="158"/>
    </contour>
  </outline>
</glyph>
<glyph name="TwoArabic" format="2">
  <advance width="340"/>
  <unicode hex="0662"/>
  <outline>
    <contour>
      <point x="93" y="145" type="curve"/>
      <point x="113" y="142" type="line"/>
      <point x="143" y="207"/>
      <point x="144" y="265"/>
      <point x="144" y="346" type="curve" smooth="yes"/>
      <point x="144" y="362"/>
      <point x="143" y="400"/>
      <point x="140" y="415" type="curve"/>
      <point x="151" y="411"/>
      <point x="160" y="410"/>
      <point x="175" y="410" type="curve" smooth="yes"/>
      <point x="267" y="410"/>
      <point x="302" y="461"/>
      <point x="320" y="577" type="curve"/>
      <point x="299" y="581" type="line"/>
      <point x="277" y="511"/>
      <point x="237" y="499"/>
      <point x="193" y="499" type="curve" smooth="yes"/>
      <point x="167" y="499"/>
      <point x="135" y="509"/>
      <point x="125" y="536" type="curve"/>
      <point x="122" y="553"/>
      <point x="117" y="572"/>
      <point x="114" y="580" type="curve"/>
      <point x="103" y="581" type="line"/>
      <point x="91" y="557"/>
      <point x="76" y="516"/>
      <point x="69" y="492" type="curve"/>
      <point x="85" y="405"/>
      <point x="98" y="342"/>
      <point x="98" y="226" type="curve" smooth="yes"/>
      <point x="98" y="190"/>
      <point x="94" y="153"/>
    </contour>
  </outline>
</glyph>
<glyph name="ThreeArabic" format="2">
  <advance width="406"/>
  <unicode hex="0663"/>
  <outline>
    <contour>
      <point x="94" y="145" type="curve"/>
      <point x="114" y="142" type="line"/>
      <point x="142" y="207"/>
      <point x="145" y="262"/>
      <point x="145" y="356" type="curve" smooth="yes"/>
      <point x="145" y="371"/>
      <point x="144" y="391"/>
      <point x="142" y="410" type="curve"/>
      <point x="152" y="410" type="line" smooth="yes"/>
      <point x="180" y="410"/>
      <point x="200" y="418"/>
      <point x="217" y="433" type="curve"/>
      <point x="233" y="421"/>
      <point x="251" y="417"/>
      <point x="267" y="417" type="curve" smooth="yes"/>
      <point x="328" y="417"/>
      <point x="377" y="470"/>
      <point x="387" y="579" type="curve"/>
      <point x="367" y="581" type="line"/>
      <point x="349" y="511"/>
      <point x="326" y="499"/>
      <point x="295" y="499" type="curve" smooth="yes"/>
      <point x="283" y="499"/>
      <point x="265" y="502"/>
      <point x="257" y="514" type="curve"/>
      <point x="261" y="532"/>
      <point x="265" y="551"/>
      <point x="267" y="578" type="curve"/>
      <point x="246" y="580" type="line"/>
      <point x="229" y="511"/>
      <point x="206" y="499"/>
      <point x="170" y="499" type="curve" smooth="yes"/>
      <point x="151" y="499"/>
      <point x="136" y="509"/>
      <point x="127" y="525" type="curve"/>
      <point x="122" y="549"/>
      <point x="118" y="570"/>
      <point x="115" y="580" type="curve"/>
      <point x="103" y="581" type="line"/>
      <point x="93" y="558"/>
      <point x="76" y="516"/>
      <point x="69" y="492" type="curve"/>
      <point x="90" y="370"/>
      <point x="98" y="320"/>
      <point x="98" y="233" type="curve" smooth="yes"/>
      <point x="98" y="190"/>
      <point x="95" y="155"/>
    </contour>
  </outline>
</glyph>
<glyph name="FourArabic" format="2">
  <advance width="302"/>
  <unicode hex="0664"/>
  <outline>
    <contour>
      <point x="292" y="206" type="curve"/>
      <point x="286" y="214" type="line"/>
      <point x="255" y="214"/>
      <point x="197" y="217"/>
      <point x="149" y="226" type="curve" smooth="yes"/>
      <point x="126" y="230"/>
      <point x="116" y="240"/>
      <point x="116" y="258" type="curve" smooth="yes"/>
      <point x="116" y="267"/>
      <point x="123" y="281"/>
      <point x="139" y="299" type="curve" smooth="yes"/>
      <point x="149" y="311"/>
      <point x="164" y="326"/>
      <point x="183" y="343" type="curve" smooth="yes"/>
      <point x="203" y="361"/>
      <point x="210" y="376"/>
      <point x="210" y="388" type="curve" smooth="yes"/>
      <point x="210" y="400"/>
      <point x="200" y="409"/>
      <point x="179" y="417" type="curve" smooth="yes"/>
      <point x="129" y="436" type="line" smooth="yes"/>
      <point x="103" y="446"/>
      <point x="99" y="451"/>
      <point x="99" y="458" type="curve" smooth="yes"/>
      <point x="99" y="475"/>
      <point x="135" y="497"/>
      <point x="184" y="517" type="curve"/>
      <point x="201" y="534"/>
      <point x="225" y="574"/>
      <point x="231" y="591" type="curve"/>
      <point x="223" y="595" type="line"/>
      <point x="166" y="575"/>
      <point x="121" y="537"/>
      <point x="93" y="511" type="curve" smooth="yes"/>
      <point x="66" y="486"/>
      <point x="37" y="456"/>
      <point x="37" y="418" type="curve" smooth="yes"/>
      <point x="37" y="373"/>
      <point x="74" y="357"/>
      <point x="128" y="339" type="curve"/>
      <point x="52" y="273"/>
      <point x="44" y="232"/>
      <point x="44" y="206" type="curve" smooth="yes"/>
      <point x="44" y="157"/>
      <point x="101" y="143"/>
      <point x="156" y="143" type="curve" smooth="yes"/>
      <point x="202" y="143"/>
      <point x="253" y="173"/>
    </contour>
  </outline>
</glyph>
<glyph name="FiveArabic" format="2">
  <advance width="363"/>
  <unicode hex="0665"/>
  <outline>
    <contour>
      <point x="197" y="532" type="curve" smooth="yes"/>
      <point x="161" y="532"/>
      <point x="127" y="499"/>
      <point x="95" y="433" type="curve" smooth="yes"/>
      <point x="62" y="365"/>
      <point x="48" y="310"/>
      <point x="48" y="260" type="curve" smooth="yes"/>
      <point x="48" y="198"/>
      <point x="89" y="158"/>
      <point x="156" y="158" type="curve" smooth="yes"/>
      <point x="266" y="158"/>
      <point x="315" y="226"/>
      <point x="315" y="357" type="curve" smooth="yes"/>
      <point x="315" y="460"/>
      <point x="252" y="532"/>
    </contour>
    <contour>
      <point x="274" y="310" type="curve" smooth="yes"/>
      <point x="274" y="261"/>
      <point x="220" y="249"/>
      <point x="175" y="249" type="curve" smooth="yes"/>
      <point x="124" y="249"/>
      <point x="95" y="269"/>
      <point x="95" y="308" type="curve" smooth="yes"/>
      <point x="95" y="337"/>
      <point x="126" y="441"/>
      <point x="178" y="441" type="curve" smooth="yes"/>
      <point x="222" y="441"/>
      <point x="274" y="360"/>
    </contour>
  </outline>
</glyph>
<glyph name="SixArabic" format="2">
  <advance width="336"/>
  <unicode hex="0666"/>
  <outline>
    <contour>
      <point x="264" y="569" type="curve"/>
      <point x="247" y="573" type="line"/>
      <point x="222" y="546"/>
      <point x="180" y="537"/>
      <point x="153" y="537" type="curve" smooth="yes"/>
      <point x="107" y="537"/>
      <point x="70" y="547"/>
      <point x="42" y="576" type="curve"/>
      <point x="32" y="574" type="line"/>
      <point x="22" y="549"/>
      <point x="20" y="519"/>
      <point x="20" y="511" type="curve" smooth="yes"/>
      <point x="20" y="493"/>
      <point x="25" y="489"/>
      <point x="40" y="478" type="curve" smooth="yes"/>
      <point x="64" y="460"/>
      <point x="106" y="453"/>
      <point x="139" y="453" type="curve" smooth="yes"/>
      <point x="164" y="453"/>
      <point x="199" y="461"/>
      <point x="223" y="474" type="curve"/>
      <point x="219" y="430"/>
      <point x="217" y="386"/>
      <point x="217" y="327" type="curve" smooth="yes"/>
      <point x="217" y="263"/>
      <point x="230" y="172"/>
      <point x="238" y="143" type="curve"/>
      <point x="252" y="143" type="line"/>
      <point x="261" y="166"/>
      <point x="276" y="206"/>
      <point x="283" y="229" type="curve"/>
      <point x="282" y="242"/>
      <point x="279" y="267"/>
      <point x="276" y="284" type="curve" smooth="yes"/>
      <point x="266" y="346"/>
      <point x="263" y="400"/>
      <point x="263" y="492" type="curve" smooth="yes"/>
      <point x="263" y="532"/>
      <point x="263" y="558"/>
    </contour>
  </outline>
</glyph>
<glyph name="SevenArabic" format="2">
  <advance width="378"/>
  <unicode hex="0667"/>
  <outline>
    <contour>
      <point x="26" y="496" type="curve"/>
      <point x="26" y="492" type="line"/>
      <point x="45" y="453"/>
      <point x="94" y="340"/>
      <point x="143" y="206" type="curve" smooth="yes"/>
      <point x="155" y="172"/>
      <point x="164" y="148"/>
      <point x="166" y="143" type="curve"/>
      <point x="184" y="143" type="line"/>
      <point x="193" y="154"/>
      <point x="211" y="194"/>
      <point x="238" y="262" type="curve" smooth="yes"/>
      <point x="273" y="349"/>
      <point x="321" y="455"/>
      <point x="351" y="517" type="curve"/>
      <point x="350" y="526"/>
      <point x="338" y="567"/>
      <point x="330" y="581" type="curve"/>
      <point x="318" y="581" type="line"/>
      <point x="286" y="501"/>
      <point x="267" y="457"/>
      <point x="250" y="410" type="curve" smooth="yes"/>
      <point x="228" y="351"/>
      <point x="212" y="308"/>
      <point x="196" y="265" type="curve"/>
      <point x="193" y="265" type="line"/>
      <point x="173" y="342"/>
      <point x="104" y="525"/>
      <point x="78" y="581" type="curve"/>
      <point x="66" y="581" type="line"/>
      <point x="50" y="555"/>
      <point x="30" y="513"/>
    </contour>
  </outline>
</glyph>
<glyph name="EightArabic" format="2">
  <advance width="378"/>
  <unicode hex="0668"/>
  <outline>
    <contour>
      <point x="351" y="228" type="curve"/>
      <point x="351" y="232" type="line"/>
      <point x="332" y="271"/>
      <point x="284" y="387"/>
      <point x="234" y="518" type="curve" smooth="yes"/>
      <point x="223" y="548"/>
      <point x="214" y="571"/>
      <point x="209" y="581" type="curve"/>
      <point x="192" y="581" type="line"/>
      <point x="184" y="570"/>
      <point x="164" y="522"/>
      <point x="140" y="463" type="curve" smooth="yes"/>
      <point x="104" y="376"/>
      <point x="56" y="270"/>
      <point x="26" y="207" type="curve"/>
      <point x="26" y="197"/>
      <point x="41" y="158"/>
      <point x="48" y="143" type="curve"/>
      <point x="59" y="143" type="line"/>
      <point x="99" y="241"/>
      <point x="116" y="284"/>
      <point x="138" y="342" type="curve" smooth="yes"/>
      <point x="181" y="456" type="line"/>
      <point x="183" y="456" type="line"/>
      <point x="202" y="383"/>
      <point x="270" y="200"/>
      <point x="298" y="143" type="curve"/>
      <point x="309" y="143" type="line"/>
      <point x="326" y="169"/>
      <point x="347" y="212"/>
    </contour>
  </outline>
</glyph>
<glyph name="NineArabic" format="2">
  <advance width="304"/>
  <unicode hex="0669"/>
  <outline>
    <contour>
      <point x="207" y="143" type="curve"/>
      <point x="220" y="143" type="line"/>
      <point x="229" y="166"/>
      <point x="244" y="206"/>
      <point x="251" y="229" type="curve"/>
      <point x="250" y="246"/>
      <point x="246" y="265"/>
      <point x="244" y="284" type="curve" smooth="yes"/>
      <point x="239" y="322"/>
      <point x="235" y="367"/>
      <point x="234" y="388" type="curve" smooth="yes"/>
      <point x="227" y="521"/>
      <point x="217" y="581"/>
      <point x="147" y="581" type="curve" smooth="yes"/>
      <point x="70" y="581"/>
      <point x="32" y="476"/>
      <point x="32" y="411" type="curve" smooth="yes"/>
      <point x="32" y="354"/>
      <point x="69" y="327"/>
      <point x="119" y="327" type="curve" smooth="yes"/>
      <point x="143" y="327"/>
      <point x="169" y="336"/>
      <point x="188" y="356" type="curve"/>
      <point x="190" y="266"/>
      <point x="197" y="175"/>
    </contour>
    <contour>
      <point x="136" y="408" type="curve" smooth="yes"/>
      <point x="102" y="408"/>
      <point x="76" y="421"/>
      <point x="76" y="449" type="curve" smooth="yes"/>
      <point x="76" y="471"/>
      <point x="99" y="503"/>
      <point x="129" y="503" type="curve" smooth="yes"/>
      <point x="164" y="503"/>
      <point x="185" y="474"/>
      <point x="186" y="418" type="curve"/>
      <point x="178" y="413"/>
      <point x="159" y="408"/>
    </contour>
  </outline>
</glyph>
<glyph name="FourUrdu" format="2">
  <advance width="358"/>
  <unicode hex="06F4"/>
  <outline>
    <contour>
      <point x="161" y="583" type="curve" smooth="yes"/>
      <point x="91" y="583"/>
      <point x="58" y="497"/>
      <point x="58" y="436" type="curve" smooth="yes"/>
      <point x="58" y="415"/>
      <point x="64" y="367"/>
      <point x="73" y="317" type="curve" smooth="yes"/>
      <point x="84" y="257"/>
      <point x="90" y="210"/>
      <point x="90" y="161" type="curve" smooth="yes"/>
      <point x="90" y="142" type="line"/>
      <point x="108" y="141" type="line"/>
      <point x="122" y="172"/>
      <point x="129" y="217"/>
      <point x="129" y="258" type="curve" smooth="yes"/>
      <point x="129" y="323"/>
      <point x="121" y="378"/>
      <point x="114" y="417" type="curve" smooth="yes"/>
      <point x="107" y="454"/>
      <point x="105" y="467"/>
      <point x="105" y="480" type="curve" smooth="yes"/>
      <point x="105" y="498"/>
      <point x="116" y="509"/>
      <point x="136" y="509" type="curve" smooth="yes"/>
      <point x="183" y="509"/>
      <point x="210" y="422"/>
      <point x="219" y="382" type="curve"/>
      <point x="232" y="382" type="line"/>
      <point x="259" y="434"/>
      <point x="292" y="471"/>
      <point x="317" y="499" type="curve"/>
      <point x="329" y="525"/>
      <point x="341" y="563"/>
      <point x="349" y="594" type="curve"/>
      <point x="339" y="600" type="line"/>
      <point x="314" y="574"/>
      <point x="287" y="537"/>
      <point x="257" y="491" type="curve"/>
      <point x="237" y="557"/>
      <point x="201" y="583"/>
    </contour>
  </outline>
</glyph>
<glyph name="FiveUrdu" format="2">
  <advance width="381"/>
  <unicode hex="06F5"/>
  <outline>
    <contour>
      <point x="237" y="163" type="curve" smooth="yes"/>
      <point x="311" y="163"/>
      <point x="334" y="287"/>
      <point x="334" y="343" type="curve" smooth="yes"/>
      <point x="334" y="434"/>
      <point x="269" y="511"/>
      <point x="208" y="576" type="curve"/>
      <point x="198" y="577" type="line"/>
      <point x="181" y="559"/>
      <point x="156" y="524"/>
      <point x="156" y="513" type="curve" smooth="yes"/>
      <point x="156" y="509" type="line"/>
      <point x="112" y="448"/>
      <point x="47" y="350"/>
      <point x="47" y="244" type="curve" smooth="yes"/>
      <point x="47" y="189"/>
      <point x="71" y="154"/>
      <point x="121" y="154" type="curve" smooth="yes"/>
      <point x="150" y="154"/>
      <point x="171" y="167"/>
      <point x="184" y="183" type="curve"/>
      <point x="198" y="164"/>
      <point x="219" y="163"/>
    </contour>
    <contour>
      <point x="206" y="280" type="curve"/>
      <point x="194" y="280" type="line"/>
      <point x="181" y="259"/>
      <point x="160" y="241"/>
      <point x="133" y="241" type="curve" smooth="yes"/>
      <point x="100" y="241"/>
      <point x="92" y="266"/>
      <point x="92" y="293" type="curve" smooth="yes"/>
      <point x="92" y="343"/>
      <point x="134" y="412"/>
      <point x="186" y="466" type="curve"/>
      <point x="222" y="428"/>
      <point x="289" y="357"/>
      <point x="289" y="297" type="curve" smooth="yes"/>
      <point x="289" y="274"/>
      <point x="280" y="247"/>
      <point x="251" y="247" type="curve" smooth="yes"/>
      <point x="232" y="247"/>
      <point x="214" y="257"/>
    </contour>
  </outline>
</glyph>
<glyph name="SevenUrdu" format="2">
  <advance width="326"/>
  <unicode hex="06F7"/>
  <outline>
    <contour>
      <point x="313" y="215" type="curve"/>
      <point x="313" y="229" type="line"/>
      <point x="285" y="233"/>
      <point x="133" y="250"/>
      <point x="81" y="261" type="curve"/>
      <point x="84" y="273"/>
      <point x="101" y="299"/>
      <point x="125" y="329" type="curve" smooth="yes"/>
      <point x="167" y="380"/>
      <point x="225" y="446"/>
      <point x="256" y="483" type="curve"/>
      <point x="263" y="498"/>
      <point x="269" y="549"/>
      <point x="270" y="562" type="curve"/>
      <point x="258" y="563" type="line"/>
      <point x="185" y="481"/>
      <point x="81" y="361"/>
      <point x="35" y="250" type="curve" smooth="yes"/>
      <point x="30" y="239"/>
      <point x="22" y="209"/>
      <point x="21" y="199" type="curve"/>
      <point x="25" y="189" type="line"/>
      <point x="57" y="180"/>
      <point x="235" y="151"/>
      <point x="277" y="151" type="curve"/>
      <point x="295" y="175"/>
      <point x="308" y="202"/>
    </contour>
  </outline>
</glyph>
<glyph name="one_siyaq" format="2">
  <advance width="1224"/>
  <unicode hex="1EC71"/>
  <outline>
    <contour>
      <point x="142" y="233" type="curve" smooth="yes"/>
      <point x="122" y="233"/>
      <point x="95" y="169"/>
      <point x="91" y="130" type="curve" smooth="yes"/>
      <point x="89" y="107"/>
      <point x="89" y="91"/>
      <point x="89" y="76" type="curve" smooth="yes"/>
      <point x="89" y="61"/>
      <point x="89" y="45"/>
      <point x="89" y="31" type="curve" smooth="yes"/>
      <point x="89" y="-156"/>
      <point x="66" y="-248"/>
      <point x="60" y="-288" type="curve"/>
      <point x="80" y="-294" type="line"/>
      <point x="117" y="-197"/>
      <point x="125" y="-134"/>
      <point x="130" y="-51" type="curve" smooth="yes"/>
      <point x="133" y="-5"/>
      <point x="134" y="33"/>
      <point x="134" y="68" type="curve"/>
      <point x="162" y="19"/>
      <point x="204" y="0"/>
      <point x="250" y="0" type="curve" smooth="yes"/>
      <point x="318" y="0"/>
      <point x="397" y="43"/>
      <point x="454" y="97" type="curve"/>
      <point x="460" y="97" type="line" smooth="yes"/>
      <point x="572" y="97"/>
      <point x="652" y="146"/>
      <point x="681" y="243" type="curve"/>
      <point x="696" y="198"/>
      <point x="747" y="167"/>
      <point x="812" y="167" type="curve" smooth="yes"/>
      <point x="974" y="167"/>
      <point x="1065" y="267"/>
      <point x="1114" y="380" type="curve"/>
      <point x="1097" y="389" type="line"/>
      <point x="1063" y="341"/>
      <point x="1029" y="315"/>
      <point x="979" y="308" type="curve"/>
      <point x="938" y="308"/>
      <point x="896" y="339"/>
      <point x="896" y="386" type="curve" smooth="yes"/>
      <point x="896" y="405"/>
      <point x="906" y="426"/>
      <point x="923" y="440" type="curve" smooth="yes"/>
      <point x="945" y="458"/>
      <point x="974" y="469"/>
      <point x="1003" y="469" type="curve" smooth="yes"/>
      <point x="1024" y="469"/>
      <point x="1047" y="462"/>
      <point x="1064" y="447" type="curve"/>
      <point x="1072" y="446" type="line"/>
      <point x="1093" y="456"/>
      <point x="1100" y="482"/>
      <point x="1100" y="498" type="curve" smooth="yes"/>
      <point x="1100" y="536"/>
      <point x="1065" y="553"/>
      <point x="1034" y="553" type="curve" smooth="yes"/>
      <point x="970" y="553"/>
      <point x="921" y="504"/>
      <point x="868" y="444" type="curve" smooth="yes"/>
      <point x="840" y="412"/>
      <point x="794" y="341"/>
      <point x="791" y="290" type="curve"/>
      <point x="755" y="294"/>
      <point x="718" y="328"/>
      <point x="718" y="409" type="curve" smooth="yes"/>
      <point x="718" y="431"/>
      <point x="723" y="451"/>
      <point x="727" y="464" type="curve"/>
      <point x="707" y="469" type="line"/>
      <point x="682" y="422"/>
      <point x="666" y="354"/>
      <point x="666" y="305" type="curve" smooth="yes"/>
      <point x="666" y="293" type="line"/>
      <point x="652" y="212"/>
      <point x="572" y="183"/>
      <point x="543" y="183" type="curve" smooth="yes"/>
      <point x="539" y="183" type="line"/>
      <point x="563" y="223"/>
      <point x="574" y="264"/>
      <point x="574" y="310" type="curve" smooth="yes"/>
      <point x="574" y="368"/>
      <point x="542" y="426"/>
      <point x="475" y="426" type="curve" smooth="yes"/>
      <point x="374" y="426"/>
      <point x="315" y="295"/>
      <point x="315" y="215" type="curve" smooth="yes"/>
      <point x="315" y="173"/>
      <point x="332" y="144"/>
      <point x="359" y="126" type="curve"/>
      <point x="340" y="118"/>
      <point x="321" y="114"/>
      <point x="301" y="114" type="curve" smooth="yes"/>
      <point x="243" y="114"/>
      <point x="186" y="150"/>
      <point x="161" y="218" type="curve" smooth="yes"/>
      <point x="157" y="228"/>
      <point x="151" y="233"/>
    </contour>
    <contour>
      <point x="448" y="321" type="curve" smooth="yes"/>
      <point x="491" y="321"/>
      <point x="518" y="285"/>
      <point x="518" y="251" type="curve" smooth="yes"/>
      <point x="518" y="224"/>
      <point x="496" y="202"/>
      <point x="461" y="183" type="curve"/>
      <point x="420" y="183"/>
      <point x="366" y="201"/>
      <point x="366" y="254" type="curve" smooth="yes"/>
      <point x="366" y="295"/>
      <point x="410" y="321"/>
    </contour>
  </outline>
</glyph>
<glyph name="two_siyaq" format="2">
  <advance width="1163"/>
  <unicode hex="1EC72"/>
  <outline>
    <contour>
      <point x="751" y="166" type="curve" smooth="yes"/>
      <point x="913" y="166"/>
      <point x="1004" y="266"/>
      <point x="1053" y="379" type="curve"/>
      <point x="1036" y="388" type="line"/>
      <point x="1002" y="340"/>
      <point x="968" y="314"/>
      <point x="918" y="307" type="curve"/>
      <point x="877" y="307"/>
      <point x="835" y="338"/>
      <point x="835" y="385" type="curve" smooth="yes"/>
      <point x="835" y="404"/>
      <point x="845" y="425"/>
      <point x="862" y="439" type="curve" smooth="yes"/>
      <point x="884" y="457"/>
      <point x="913" y="468"/>
      <point x="942" y="468" type="curve" smooth="yes"/>
      <point x="963" y="468"/>
      <point x="986" y="461"/>
      <point x="1003" y="446" type="curve"/>
      <point x="1011" y="445" type="line"/>
      <point x="1032" y="455"/>
      <point x="1039" y="481"/>
      <point x="1039" y="497" type="curve" smooth="yes"/>
      <point x="1039" y="535"/>
      <point x="1004" y="552"/>
      <point x="973" y="552" type="curve" smooth="yes"/>
      <point x="909" y="552"/>
      <point x="860" y="503"/>
      <point x="807" y="443" type="curve" smooth="yes"/>
      <point x="779" y="411"/>
      <point x="733" y="340"/>
      <point x="730" y="289" type="curve"/>
      <point x="694" y="293"/>
      <point x="657" y="327"/>
      <point x="657" y="408" type="curve" smooth="yes"/>
      <point x="657" y="430"/>
      <point x="662" y="450"/>
      <point x="666" y="463" type="curve"/>
      <point x="646" y="468" type="line"/>
      <point x="622" y="421"/>
      <point x="605" y="357"/>
      <point x="605" y="304" type="curve" smooth="yes"/>
      <point x="605" y="292" type="line"/>
      <point x="591" y="211"/>
      <point x="511" y="182"/>
      <point x="482" y="182" type="curve" smooth="yes"/>
      <point x="478" y="182" type="line"/>
      <point x="502" y="222"/>
      <point x="513" y="263"/>
      <point x="513" y="309" type="curve" smooth="yes"/>
      <point x="513" y="367"/>
      <point x="481" y="425"/>
      <point x="414" y="425" type="curve" smooth="yes"/>
      <point x="313" y="425"/>
      <point x="254" y="294"/>
      <point x="254" y="215" type="curve" smooth="yes"/>
      <point x="254" y="192"/>
      <point x="259" y="173"/>
      <point x="268" y="158" type="curve"/>
      <point x="256" y="158" type="line" smooth="yes"/>
      <point x="135" y="158"/>
      <point x="132" y="288"/>
      <point x="132" y="390" type="curve" smooth="yes"/>
      <point x="132" y="470"/>
      <point x="140" y="589"/>
      <point x="149" y="683" type="curve" smooth="yes"/>
      <point x="156" y="756"/>
      <point x="163" y="794"/>
      <point x="168" y="818" type="curve"/>
      <point x="148" y="826" type="line"/>
      <point x="106" y="731"/>
      <point x="95" y="668"/>
      <point x="85" y="586" type="curve" smooth="yes"/>
      <point x="65" y="416"/>
      <point x="60" y="333"/>
      <point x="60" y="215" type="curve" smooth="yes"/>
      <point x="60" y="85"/>
      <point x="98" y="0"/>
      <point x="203" y="0" type="curve" smooth="yes"/>
      <point x="262" y="0"/>
      <point x="310" y="22"/>
      <point x="391" y="96" type="curve"/>
      <point x="399" y="96" type="line" smooth="yes"/>
      <point x="511" y="96"/>
      <point x="591" y="145"/>
      <point x="620" y="242" type="curve"/>
      <point x="635" y="197"/>
      <point x="686" y="166"/>
    </contour>
    <contour>
      <point x="457" y="250" type="curve" smooth="yes"/>
      <point x="457" y="223"/>
      <point x="435" y="201"/>
      <point x="400" y="182" type="curve"/>
      <point x="359" y="182"/>
      <point x="305" y="200"/>
      <point x="305" y="253" type="curve" smooth="yes"/>
      <point x="305" y="294"/>
      <point x="349" y="320"/>
      <point x="387" y="320" type="curve" smooth="yes"/>
      <point x="430" y="320"/>
      <point x="457" y="284"/>
    </contour>
  </outline>
</glyph>
<glyph name="three_siyaq" format="2">
  <advance width="1396"/>
  <unicode hex="1EC73"/>
  <outline>
    <contour>
      <point x="91" y="215" type="curve" smooth="yes"/>
      <point x="75" y="186"/>
      <point x="60" y="142"/>
      <point x="60" y="110" type="curve" smooth="yes"/>
      <point x="60" y="57"/>
      <point x="86" y="30"/>
      <point x="155" y="12" type="curve" smooth="yes"/>
      <point x="221" y="-5"/>
      <point x="303" y="-9"/>
      <point x="432" y="-9" type="curve" smooth="yes"/>
      <point x="864" y="-9"/>
      <point x="962" y="-2"/>
      <point x="1068" y="15" type="curve"/>
      <point x="1122" y="24"/>
      <point x="1312" y="117"/>
      <point x="1336" y="152" type="curve"/>
      <point x="1326" y="159" type="line"/>
      <point x="1133" y="139"/>
      <point x="911" y="131"/>
      <point x="521" y="131" type="curve" smooth="yes"/>
      <point x="378" y="131"/>
      <point x="255" y="138"/>
      <point x="207" y="148" type="curve" smooth="yes"/>
      <point x="159" y="158"/>
      <point x="132" y="165"/>
      <point x="132" y="193" type="curve" smooth="yes"/>
      <point x="132" y="227"/>
      <point x="178" y="249"/>
      <point x="282" y="298" type="curve" smooth="yes"/>
      <point x="348" y="329"/>
      <point x="390" y="360"/>
      <point x="434" y="435" type="curve" smooth="yes"/>
      <point x="451" y="464"/>
      <point x="460" y="474"/>
      <point x="472" y="474" type="curve" smooth="yes"/>
      <point x="480" y="474"/>
      <point x="487" y="470"/>
      <point x="505" y="459" type="curve" smooth="yes"/>
      <point x="528" y="445"/>
      <point x="554" y="436"/>
      <point x="581" y="436" type="curve" smooth="yes"/>
      <point x="636" y="436"/>
      <point x="684" y="485"/>
      <point x="708" y="587" type="curve"/>
      <point x="687" y="591" type="line"/>
      <point x="668" y="553"/>
      <point x="643" y="542"/>
      <point x="608" y="542" type="curve" smooth="yes"/>
      <point x="586" y="542"/>
      <point x="569" y="548"/>
      <point x="554" y="558" type="curve" smooth="yes"/>
      <point x="532" y="572"/>
      <point x="522" y="578"/>
      <point x="512" y="578" type="curve" smooth="yes"/>
      <point x="496" y="578"/>
      <point x="488" y="571"/>
      <point x="474" y="554" type="curve" smooth="yes"/>
      <point x="466" y="544"/>
      <point x="457" y="531"/>
      <point x="442" y="509" type="curve" smooth="yes"/>
      <point x="403" y="449"/>
      <point x="381" y="432"/>
      <point x="285" y="378" type="curve" smooth="yes"/>
      <point x="265" y="367"/>
      <point x="225" y="341"/>
      <point x="184" y="310" type="curve" smooth="yes"/>
      <point x="141" y="278"/>
      <point x="111" y="252"/>
    </contour>
  </outline>
</glyph>
<glyph name="four_siyaq" format="2">
  <advance width="1059"/>
  <unicode hex="1EC74"/>
  <outline>
    <contour>
      <point x="571" y="294" type="curve"/>
      <point x="609" y="325"/>
      <point x="648" y="367"/>
      <point x="665" y="416" type="curve"/>
      <point x="674" y="318"/>
      <point x="714" y="265"/>
      <point x="784" y="265" type="curve" smooth="yes"/>
      <point x="872" y="265"/>
      <point x="922" y="381"/>
      <point x="945" y="464" type="curve" smooth="yes"/>
      <point x="969" y="550"/>
      <point x="979" y="654"/>
      <point x="983" y="730" type="curve" smooth="yes"/>
      <point x="989" y="852" type="line" smooth="yes"/>
      <point x="991" y="898"/>
      <point x="993" y="935"/>
      <point x="999" y="959" type="curve"/>
      <point x="976" y="964" type="line"/>
      <point x="942" y="893"/>
      <point x="935" y="864"/>
      <point x="929" y="829" type="curve" smooth="yes"/>
      <point x="924" y="797"/>
      <point x="921" y="765"/>
      <point x="920" y="725" type="curve" smooth="yes"/>
      <point x="918" y="626" type="line" smooth="yes"/>
      <point x="917" y="556"/>
      <point x="915" y="533"/>
      <point x="910" y="512" type="curve" smooth="yes"/>
      <point x="896" y="448"/>
      <point x="859" y="423"/>
      <point x="821" y="423" type="curve" smooth="yes"/>
      <point x="739" y="423"/>
      <point x="731" y="502"/>
      <point x="731" y="606" type="curve" smooth="yes"/>
      <point x="731" y="790"/>
      <point x="741" y="843"/>
      <point x="750" y="889" type="curve"/>
      <point x="727" y="893" type="line"/>
      <point x="692" y="817"/>
      <point x="685" y="766"/>
      <point x="678" y="700" type="curve" smooth="yes"/>
      <point x="676" y="683"/>
      <point x="672" y="635"/>
      <point x="669" y="587" type="curve" smooth="yes"/>
      <point x="664" y="512"/>
      <point x="634" y="411"/>
      <point x="567" y="375" type="curve"/>
      <point x="557" y="432"/>
      <point x="528" y="485"/>
      <point x="467" y="485" type="curve" smooth="yes"/>
      <point x="439" y="485"/>
      <point x="419" y="470"/>
      <point x="405" y="441" type="curve" smooth="yes"/>
      <point x="375" y="381" type="line" smooth="yes"/>
      <point x="362" y="354"/>
      <point x="357" y="330"/>
      <point x="357" y="313" type="curve" smooth="yes"/>
      <point x="357" y="267"/>
      <point x="398" y="243"/>
      <point x="437" y="243" type="curve" smooth="yes"/>
      <point x="462" y="243"/>
      <point x="486" y="249"/>
      <point x="512" y="261" type="curve"/>
      <point x="514" y="256"/>
      <point x="515" y="251"/>
      <point x="515" y="244" type="curve" smooth="yes"/>
      <point x="515" y="217"/>
      <point x="499" y="192"/>
      <point x="467" y="175" type="curve" smooth="yes"/>
      <point x="438" y="160"/>
      <point x="402" y="159"/>
      <point x="365" y="159" type="curve" smooth="yes"/>
      <point x="328" y="159"/>
      <point x="302" y="169"/>
      <point x="265" y="169" type="curve" smooth="yes"/>
      <point x="187" y="169"/>
      <point x="112" y="109"/>
      <point x="50" y="-48" type="curve"/>
      <point x="70" y="-57" type="line"/>
      <point x="112" y="1"/>
      <point x="141" y="18"/>
      <point x="185" y="18" type="curve" smooth="yes"/>
      <point x="199" y="18"/>
      <point x="222" y="13"/>
      <point x="237" y="9" type="curve" smooth="yes"/>
      <point x="253" y="5"/>
      <point x="275" y="0"/>
      <point x="304" y="0" type="curve" smooth="yes"/>
      <point x="338" y="0"/>
      <point x="383" y="10"/>
      <point x="416" y="27" type="curve" smooth="yes"/>
      <point x="524" y="82"/>
      <point x="564" y="193"/>
    </contour>
  </outline>
</glyph>
<glyph name="five_siyaq" format="2">
  <advance width="890"/>
  <unicode hex="1EC75"/>
  <outline>
    <contour>
      <point x="471" y="332" type="curve" smooth="yes"/>
      <point x="440" y="282"/>
      <point x="411" y="216"/>
      <point x="401" y="159" type="curve"/>
      <point x="363" y="163"/>
      <point x="331" y="181"/>
      <point x="277" y="181" type="curve" smooth="yes"/>
      <point x="202" y="181"/>
      <point x="114" y="113"/>
      <point x="50" y="-36" type="curve"/>
      <point x="70" y="-46" type="line"/>
      <point x="111" y="15"/>
      <point x="144" y="32"/>
      <point x="187" y="32" type="curve" smooth="yes"/>
      <point x="247" y="32"/>
      <point x="308" y="0"/>
      <point x="394" y="0" type="curve" smooth="yes"/>
      <point x="540" y="0"/>
      <point x="637" y="84"/>
      <point x="723" y="194" type="curve" smooth="yes"/>
      <point x="762" y="244"/>
      <point x="798" y="297"/>
      <point x="830" y="347" type="curve"/>
      <point x="827" y="360" type="line"/>
      <point x="808" y="364"/>
      <point x="776" y="374"/>
      <point x="729" y="391" type="curve" smooth="yes"/>
      <point x="679" y="409"/>
      <point x="642" y="418"/>
      <point x="601" y="418" type="curve" smooth="yes"/>
      <point x="546" y="418"/>
      <point x="507" y="391"/>
    </contour>
    <contour>
      <point x="435" y="157" type="curve"/>
      <point x="449" y="221"/>
      <point x="475" y="267"/>
      <point x="510" y="295" type="curve" smooth="yes"/>
      <point x="529" y="311"/>
      <point x="558" y="316"/>
      <point x="583" y="316" type="curve" smooth="yes"/>
      <point x="619" y="316"/>
      <point x="654" y="306"/>
      <point x="689" y="295" type="curve" smooth="yes"/>
      <point x="736" y="280" type="line"/>
      <point x="685" y="210"/>
      <point x="565" y="156"/>
      <point x="461" y="156" type="curve" smooth="yes"/>
      <point x="452" y="156"/>
      <point x="443" y="156"/>
    </contour>
  </outline>
</glyph>
<glyph name="six_siyaq" format="2">
  <advance width="1396"/>
  <unicode hex="1EC76"/>
  <outline>
    <contour>
      <point x="132" y="193" type="curve" smooth="yes"/>
      <point x="132" y="227"/>
      <point x="178" y="249"/>
      <point x="282" y="298" type="curve" smooth="yes"/>
      <point x="330" y="321"/>
      <point x="342" y="327"/>
      <point x="372" y="353" type="curve" smooth="yes"/>
      <point x="425" y="400"/>
      <point x="462" y="478"/>
      <point x="479" y="550" type="curve" smooth="yes"/>
      <point x="486" y="579"/>
      <point x="490" y="603"/>
      <point x="491" y="642" type="curve" smooth="yes"/>
      <point x="492" y="677" type="line" smooth="yes"/>
      <point x="493" y="732"/>
      <point x="496" y="758"/>
      <point x="502" y="774" type="curve"/>
      <point x="483" y="780" type="line"/>
      <point x="445" y="721"/>
      <point x="439" y="707"/>
      <point x="430" y="679" type="curve" smooth="yes"/>
      <point x="424" y="660"/>
      <point x="422" y="636"/>
      <point x="421" y="597" type="curve" smooth="yes"/>
      <point x="420" y="569"/>
      <point x="420" y="544"/>
      <point x="418" y="519" type="curve" smooth="yes"/>
      <point x="415" y="482"/>
      <point x="410" y="467"/>
      <point x="394" y="449" type="curve" smooth="yes"/>
      <point x="384" y="438"/>
      <point x="348" y="414"/>
      <point x="285" y="378" type="curve" smooth="yes"/>
      <point x="265" y="367"/>
      <point x="225" y="341"/>
      <point x="184" y="310" type="curve" smooth="yes"/>
      <point x="141" y="278"/>
      <point x="111" y="251"/>
      <point x="91" y="215" type="curve" smooth="yes"/>
      <point x="75" y="186"/>
      <point x="60" y="138"/>
      <point x="60" y="110" type="curve" smooth="yes"/>
      <point x="60" y="57"/>
      <point x="86" y="30"/>
      <point x="155" y="12" type="curve" smooth="yes"/>
      <point x="221" y="-5"/>
      <point x="303" y="-9"/>
      <point x="432" y="-9" type="curve" smooth="yes"/>
      <point x="864" y="-9"/>
      <point x="964" y="-2"/>
      <point x="1068" y="15" type="curve"/>
      <point x="1121" y="24"/>
      <point x="1312" y="117"/>
      <point x="1336" y="152" type="curve"/>
      <point x="1326" y="159" type="line"/>
      <point x="1133" y="139"/>
      <point x="911" y="131"/>
      <point x="521" y="131" type="curve" smooth="yes"/>
      <point x="378" y="131"/>
      <point x="255" y="138"/>
      <point x="207" y="148" type="curve" smooth="yes"/>
      <point x="159" y="158"/>
      <point x="132" y="165"/>
    </contour>
  </outline>
</glyph>
<glyph name="seven_siyaq" format="2">
  <advance width="908"/>
  <unicode hex="1EC77"/>
  <outline>
    <contour>
      <point x="571" y="290" type="curve"/>
      <point x="590" y="306"/>
      <point x="607" y="322"/>
      <point x="627" y="342" type="curve" smooth="yes"/>
      <point x="663" y="378" type="line" smooth="yes"/>
      <point x="699" y="414"/>
      <point x="712" y="422"/>
      <point x="734" y="422" type="curve" smooth="yes"/>
      <point x="780" y="422"/>
      <point x="786" y="359"/>
      <point x="786" y="321" type="curve" smooth="yes"/>
      <point x="786" y="297"/>
      <point x="783" y="261"/>
      <point x="780" y="240" type="curve"/>
      <point x="810" y="237" type="line"/>
      <point x="835" y="304"/>
      <point x="848" y="365"/>
      <point x="848" y="417" type="curve" smooth="yes"/>
      <point x="848" y="476"/>
      <point x="828" y="531"/>
      <point x="762" y="531" type="curve" smooth="yes"/>
      <point x="738" y="531"/>
      <point x="718" y="516"/>
      <point x="690" y="483" type="curve" smooth="yes"/>
      <point x="654" y="441"/>
      <point x="614" y="387"/>
      <point x="569" y="358" type="curve"/>
      <point x="561" y="438"/>
      <point x="522" y="479"/>
      <point x="467" y="479" type="curve" smooth="yes"/>
      <point x="439" y="479"/>
      <point x="419" y="464"/>
      <point x="405" y="435" type="curve" smooth="yes"/>
      <point x="375" y="375" type="line" smooth="yes"/>
      <point x="361" y="348"/>
      <point x="357" y="324"/>
      <point x="357" y="307" type="curve" smooth="yes"/>
      <point x="357" y="261"/>
      <point x="398" y="237"/>
      <point x="437" y="237" type="curve" smooth="yes"/>
      <point x="460" y="237"/>
      <point x="485" y="243"/>
      <point x="512" y="256" type="curve"/>
      <point x="514" y="251"/>
      <point x="515" y="245"/>
      <point x="515" y="238" type="curve" smooth="yes"/>
      <point x="515" y="211"/>
      <point x="499" y="186"/>
      <point x="467" y="169" type="curve" smooth="yes"/>
      <point x="438" y="154"/>
      <point x="402" y="153"/>
      <point x="365" y="153" type="curve" smooth="yes"/>
      <point x="328" y="153"/>
      <point x="302" y="163"/>
      <point x="265" y="163" type="curve" smooth="yes"/>
      <point x="187" y="163"/>
      <point x="112" y="103"/>
      <point x="50" y="-54" type="curve"/>
      <point x="70" y="-63" type="line"/>
      <point x="112" y="-5"/>
      <point x="142" y="14"/>
      <point x="185" y="14" type="curve" smooth="yes"/>
      <point x="223" y="14"/>
      <point x="268" y="0"/>
      <point x="311" y="0" type="curve" smooth="yes"/>
      <point x="344" y="0"/>
      <point x="380" y="7"/>
      <point x="412" y="21" type="curve" smooth="yes"/>
      <point x="518" y="66"/>
      <point x="564" y="181"/>
    </contour>
  </outline>
</glyph>
<glyph name="eight_siyaq" format="2">
  <advance width="1396"/>
  <unicode hex="1EC78"/>
  <outline>
    <contour>
      <point x="556" y="360" type="curve" smooth="yes"/>
      <point x="638" y="360"/>
      <point x="706" y="447"/>
      <point x="758" y="513" type="curve" smooth="yes"/>
      <point x="798" y="564"/>
      <point x="820" y="572"/>
      <point x="839" y="572" type="curve" smooth="yes"/>
      <point x="889" y="572"/>
      <point x="907" y="511"/>
      <point x="907" y="448" type="curve" smooth="yes"/>
      <point x="907" y="435"/>
      <point x="906" y="423"/>
      <point x="905" y="411" type="curve"/>
      <point x="929" y="410" type="line"/>
      <point x="940" y="438"/>
      <point x="950" y="488"/>
      <point x="950" y="539" type="curve" smooth="yes"/>
      <point x="950" y="608"/>
      <point x="931" y="676"/>
      <point x="866" y="676" type="curve" smooth="yes"/>
      <point x="836" y="676"/>
      <point x="821" y="661"/>
      <point x="788" y="615" type="curve" smooth="yes"/>
      <point x="765" y="583" type="line" smooth="yes"/>
      <point x="724" y="527"/>
      <point x="670" y="471"/>
      <point x="594" y="471" type="curve" smooth="yes"/>
      <point x="529" y="471"/>
      <point x="503" y="528"/>
      <point x="503" y="588" type="curve" smooth="yes"/>
      <point x="503" y="606"/>
      <point x="505" y="624"/>
      <point x="509" y="642" type="curve"/>
      <point x="485" y="646" type="line"/>
      <point x="473" y="623"/>
      <point x="461" y="581"/>
      <point x="453" y="542" type="curve"/>
      <point x="435" y="485"/>
      <point x="403" y="440"/>
      <point x="285" y="378" type="curve" smooth="yes"/>
      <point x="265" y="367"/>
      <point x="225" y="341"/>
      <point x="184" y="310" type="curve" smooth="yes"/>
      <point x="141" y="278"/>
      <point x="111" y="252"/>
      <point x="91" y="215" type="curve" smooth="yes"/>
      <point x="75" y="186"/>
      <point x="60" y="142"/>
      <point x="60" y="110" type="curve" smooth="yes"/>
      <point x="60" y="57"/>
      <point x="86" y="30"/>
      <point x="155" y="12" type="curve" smooth="yes"/>
      <point x="221" y="-5"/>
      <point x="303" y="-9"/>
      <point x="432" y="-9" type="curve" smooth="yes"/>
      <point x="864" y="-9"/>
      <point x="962" y="-2"/>
      <point x="1068" y="15" type="curve"/>
      <point x="1129" y="27"/>
      <point x="1312" y="117"/>
      <point x="1336" y="152" type="curve"/>
      <point x="1326" y="159" type="line"/>
      <point x="1133" y="139"/>
      <point x="911" y="131"/>
      <point x="521" y="131" type="curve" smooth="yes"/>
      <point x="378" y="131"/>
      <point x="255" y="138"/>
      <point x="207" y="148" type="curve" smooth="yes"/>
      <point x="159" y="158"/>
      <point x="132" y="165"/>
      <point x="132" y="193" type="curve" smooth="yes"/>
      <point x="132" y="227"/>
      <point x="178" y="249"/>
      <point x="282" y="298" type="curve" smooth="yes"/>
      <point x="363" y="336"/>
      <point x="410" y="374"/>
      <point x="448" y="468" type="curve"/>
      <point x="451" y="399"/>
      <point x="492" y="360"/>
    </contour>
  </outline>
</glyph>
<glyph name="nine_siyaq" format="2">
  <advance width="791"/>
  <unicode hex="1EC79"/>
  <outline>
    <contour>
      <point x="571" y="288" type="curve"/>
      <point x="638" y="346"/>
      <point x="675" y="411"/>
      <point x="695" y="508" type="curve" smooth="yes"/>
      <point x="709" y="577"/>
      <point x="717" y="674"/>
      <point x="720" y="745" type="curve" smooth="yes"/>
      <point x="721" y="769" type="line" smooth="yes"/>
      <point x="723" y="824"/>
      <point x="725" y="859"/>
      <point x="731" y="883" type="curve"/>
      <point x="710" y="888" type="line"/>
      <point x="684" y="837"/>
      <point x="661" y="789"/>
      <point x="652" y="729" type="curve" smooth="yes"/>
      <point x="647" y="694"/>
      <point x="646" y="647"/>
      <point x="646" y="610" type="curve" smooth="yes"/>
      <point x="646" y="567"/>
      <point x="645" y="511"/>
      <point x="643" y="493" type="curve" smooth="yes"/>
      <point x="638" y="443"/>
      <point x="615" y="400"/>
      <point x="567" y="369" type="curve"/>
      <point x="555" y="426"/>
      <point x="528" y="479"/>
      <point x="467" y="479" type="curve" smooth="yes"/>
      <point x="439" y="479"/>
      <point x="419" y="464"/>
      <point x="405" y="435" type="curve" smooth="yes"/>
      <point x="375" y="375" type="line" smooth="yes"/>
      <point x="362" y="348"/>
      <point x="357" y="324"/>
      <point x="357" y="307" type="curve" smooth="yes"/>
      <point x="357" y="261"/>
      <point x="398" y="237"/>
      <point x="437" y="237" type="curve" smooth="yes"/>
      <point x="462" y="237"/>
      <point x="486" y="243"/>
      <point x="512" y="255" type="curve"/>
      <point x="514" y="250"/>
      <point x="515" y="242"/>
      <point x="515" y="238" type="curve" smooth="yes"/>
      <point x="515" y="211"/>
      <point x="499" y="186"/>
      <point x="467" y="169" type="curve" smooth="yes"/>
      <point x="438" y="154"/>
      <point x="402" y="153"/>
      <point x="365" y="153" type="curve" smooth="yes"/>
      <point x="328" y="153"/>
      <point x="302" y="163"/>
      <point x="265" y="163" type="curve" smooth="yes"/>
      <point x="187" y="163"/>
      <point x="112" y="103"/>
      <point x="50" y="-54" type="curve"/>
      <point x="70" y="-63" type="line"/>
      <point x="112" y="-5"/>
      <point x="142" y="14"/>
      <point x="185" y="14" type="curve" smooth="yes"/>
      <point x="223" y="14"/>
      <point x="268" y="0"/>
      <point x="311" y="0" type="curve" smooth="yes"/>
      <point x="344" y="0"/>
      <point x="380" y="7"/>
      <point x="412" y="21" type="curve" smooth="yes"/>
      <point x="518" y="66"/>
      <point x="564" y="187"/>
    </contour>
  </outline>
</glyph>
<glyph name="ten_siyaq" format="2">
  <advance width="1926"/>
  <unicode hex="1EC7A"/>
  <outline>
    <contour>
      <point x="1583" y="52" type="curve" smooth="yes"/>
      <point x="1744" y="105"/>
      <point x="1800" y="168"/>
      <point x="1866" y="276" type="curve"/>
      <point x="1848" y="287" type="line"/>
      <point x="1801" y="235"/>
      <point x="1765" y="207"/>
      <point x="1698" y="207" type="curve" smooth="yes"/>
      <point x="1660" y="207"/>
      <point x="1613" y="226"/>
      <point x="1613" y="275" type="curve" smooth="yes"/>
      <point x="1613" y="295"/>
      <point x="1623" y="317"/>
      <point x="1641" y="332" type="curve" smooth="yes"/>
      <point x="1664" y="351"/>
      <point x="1695" y="362"/>
      <point x="1725" y="362" type="curve" smooth="yes"/>
      <point x="1748" y="362"/>
      <point x="1772" y="355"/>
      <point x="1790" y="339" type="curve"/>
      <point x="1798" y="338" type="line"/>
      <point x="1819" y="349"/>
      <point x="1826" y="369"/>
      <point x="1826" y="386" type="curve" smooth="yes"/>
      <point x="1826" y="426"/>
      <point x="1791" y="444"/>
      <point x="1758" y="444" type="curve" smooth="yes"/>
      <point x="1691" y="444"/>
      <point x="1639" y="392"/>
      <point x="1584" y="329" type="curve" smooth="yes"/>
      <point x="1551" y="291"/>
      <point x="1511" y="234"/>
      <point x="1511" y="186" type="curve" smooth="yes"/>
      <point x="1511" y="175"/>
      <point x="1513" y="169"/>
      <point x="1516" y="160" type="curve"/>
      <point x="1369" y="137"/>
      <point x="1071" y="131"/>
      <point x="915" y="131" type="curve" smooth="yes"/>
      <point x="797" y="131"/>
      <point x="572" y="138"/>
      <point x="413" y="151" type="curve"/>
      <point x="415" y="168"/>
      <point x="416" y="207"/>
      <point x="416" y="226" type="curve" smooth="yes"/>
      <point x="416" y="341"/>
      <point x="372" y="472"/>
      <point x="261" y="472" type="curve" smooth="yes"/>
      <point x="152" y="472"/>
      <point x="60" y="316"/>
      <point x="60" y="210" type="curve" smooth="yes"/>
      <point x="60" y="131"/>
      <point x="113" y="58"/>
      <point x="231" y="32" type="curve" smooth="yes"/>
      <point x="404" y="-6"/>
      <point x="701" y="-9"/>
      <point x="883" y="-9" type="curve" smooth="yes"/>
      <point x="1218" y="-9"/>
      <point x="1452" y="9"/>
    </contour>
    <contour>
      <point x="374" y="154" type="curve"/>
      <point x="193" y="172"/>
      <point x="112" y="209"/>
      <point x="112" y="274" type="curve" smooth="yes"/>
      <point x="112" y="323"/>
      <point x="176" y="353"/>
      <point x="229" y="353" type="curve" smooth="yes"/>
      <point x="312" y="353"/>
      <point x="371" y="282"/>
    </contour>
  </outline>
</glyph>
<glyph name="twenty_siyaq" format="2">
  <advance width="2000"/>
  <unicode hex="1EC7B"/>
  <outline>
    <contour>
      <point x="778" y="-9" type="curve" smooth="yes"/>
      <point x="1125" y="-9"/>
      <point x="1342" y="6"/>
      <point x="1425" y="162" type="curve"/>
      <point x="1431" y="95"/>
      <point x="1472" y="23"/>
      <point x="1589" y="23" type="curve" smooth="yes"/>
      <point x="1758" y="23"/>
      <point x="1874" y="155"/>
      <point x="1940" y="263" type="curve"/>
      <point x="1922" y="274" type="line"/>
      <point x="1880" y="226"/>
      <point x="1841" y="194"/>
      <point x="1772" y="194" type="curve" smooth="yes"/>
      <point x="1734" y="194"/>
      <point x="1687" y="213"/>
      <point x="1687" y="262" type="curve" smooth="yes"/>
      <point x="1687" y="282"/>
      <point x="1697" y="304"/>
      <point x="1715" y="319" type="curve" smooth="yes"/>
      <point x="1738" y="338"/>
      <point x="1769" y="349"/>
      <point x="1799" y="349" type="curve" smooth="yes"/>
      <point x="1822" y="349"/>
      <point x="1846" y="342"/>
      <point x="1864" y="326" type="curve"/>
      <point x="1872" y="325" type="line"/>
      <point x="1893" y="336"/>
      <point x="1900" y="356"/>
      <point x="1900" y="373" type="curve" smooth="yes"/>
      <point x="1900" y="413"/>
      <point x="1851" y="431"/>
      <point x="1818" y="431" type="curve" smooth="yes"/>
      <point x="1751" y="431"/>
      <point x="1713" y="379"/>
      <point x="1658" y="316" type="curve" smooth="yes"/>
      <point x="1625" y="278"/>
      <point x="1585" y="216"/>
      <point x="1585" y="168" type="curve" smooth="yes"/>
      <point x="1585" y="161"/>
      <point x="1586" y="156"/>
      <point x="1587" y="152" type="curve"/>
      <point x="1512" y="154"/>
      <point x="1466" y="190"/>
      <point x="1466" y="262" type="curve" smooth="yes"/>
      <point x="1466" y="265"/>
      <point x="1466" y="276"/>
      <point x="1467" y="283" type="curve"/>
      <point x="1443" y="287" type="line"/>
      <point x="1401" y="143"/>
      <point x="1329" y="131"/>
      <point x="827" y="131" type="curve" smooth="yes"/>
      <point x="789" y="131"/>
      <point x="561" y="133"/>
      <point x="413" y="148" type="curve"/>
      <point x="415" y="165"/>
      <point x="416" y="204"/>
      <point x="416" y="223" type="curve" smooth="yes"/>
      <point x="416" y="338"/>
      <point x="372" y="469"/>
      <point x="261" y="469" type="curve" smooth="yes"/>
      <point x="152" y="469"/>
      <point x="60" y="313"/>
      <point x="60" y="207" type="curve" smooth="yes"/>
      <point x="60" y="128"/>
      <point x="113" y="54"/>
      <point x="231" y="29" type="curve" smooth="yes"/>
      <point x="404" y="-8"/>
      <point x="616" y="-9"/>
    </contour>
    <contour>
      <point x="374" y="151" type="curve"/>
      <point x="195" y="169"/>
      <point x="112" y="204"/>
      <point x="112" y="271" type="curve" smooth="yes"/>
      <point x="112" y="320"/>
      <point x="176" y="350"/>
      <point x="229" y="350" type="curve" smooth="yes"/>
      <point x="312" y="350"/>
      <point x="371" y="279"/>
    </contour>
  </outline>
</glyph>
<glyph name="thirty_siyaq" format="2">
  <advance width="1877"/>
  <unicode hex="1EC7C"/>
  <outline>
    <contour>
      <point x="1567" y="23"/>
      <point x="1633" y="23" type="curve" smooth="yes"/>
      <point x="1724" y="23"/>
      <point x="1796" y="118"/>
      <point x="1817" y="294" type="curve"/>
      <point x="1792" y="298" type="line"/>
      <point x="1764" y="190"/>
      <point x="1721" y="146"/>
      <point x="1645" y="146" type="curve" smooth="yes"/>
      <point x="1612" y="146"/>
      <point x="1543" y="155"/>
      <point x="1543" y="259" type="curve" smooth="yes"/>
      <point x="1543" y="262"/>
      <point x="1544" y="274"/>
      <point x="1546" y="287" type="curve"/>
      <point x="1522" y="291" type="line"/>
      <point x="1491" y="152"/>
      <point x="1365" y="131"/>
      <point x="915" y="131" type="curve" smooth="yes"/>
      <point x="880" y="131" type="line" smooth="yes"/>
      <point x="762" y="131"/>
      <point x="572" y="134"/>
      <point x="413" y="147" type="curve"/>
      <point x="415" y="164"/>
      <point x="416" y="203"/>
      <point x="416" y="222" type="curve" smooth="yes"/>
      <point x="416" y="337"/>
      <point x="372" y="468"/>
      <point x="261" y="468" type="curve" smooth="yes"/>
      <point x="152" y="468"/>
      <point x="60" y="312"/>
      <point x="60" y="206" type="curve" smooth="yes"/>
      <point x="60" y="127"/>
      <point x="113" y="52"/>
      <point x="231" y="28" type="curve" smooth="yes"/>
      <point x="399" y="-6"/>
      <point x="598" y="-9"/>
      <point x="803" y="-9" type="curve" smooth="yes"/>
      <point x="1229" y="-9"/>
      <point x="1421" y="19"/>
      <point x="1504" y="176" type="curve"/>
      <point x="1509" y="54"/>
    </contour>
    <contour>
      <point x="374" y="150" type="curve"/>
      <point x="364" y="151" type="line" smooth="yes"/>
      <point x="270" y="162"/>
      <point x="112" y="181"/>
      <point x="112" y="270" type="curve" smooth="yes"/>
      <point x="112" y="319"/>
      <point x="176" y="349"/>
      <point x="229" y="349" type="curve" smooth="yes"/>
      <point x="312" y="349"/>
      <point x="371" y="278"/>
    </contour>
  </outline>
</glyph>
<glyph name="forty_siyaq" format="2">
  <advance width="2155"/>
  <unicode hex="1EC7D"/>
  <outline>
    <contour>
      <point x="1687" y="273" type="curve"/>
      <point x="1725" y="304"/>
      <point x="1764" y="346"/>
      <point x="1781" y="395" type="curve"/>
      <point x="1790" y="297"/>
      <point x="1830" y="244"/>
      <point x="1900" y="244" type="curve" smooth="yes"/>
      <point x="1988" y="244"/>
      <point x="2038" y="360"/>
      <point x="2061" y="443" type="curve" smooth="yes"/>
      <point x="2085" y="529"/>
      <point x="2095" y="633"/>
      <point x="2099" y="709" type="curve" smooth="yes"/>
      <point x="2105" y="831" type="line" smooth="yes"/>
      <point x="2107" y="877"/>
      <point x="2109" y="914"/>
      <point x="2115" y="938" type="curve"/>
      <point x="2092" y="943" type="line"/>
      <point x="2058" y="872"/>
      <point x="2051" y="843"/>
      <point x="2045" y="808" type="curve" smooth="yes"/>
      <point x="2040" y="776"/>
      <point x="2037" y="744"/>
      <point x="2036" y="704" type="curve" smooth="yes"/>
      <point x="2034" y="605" type="line" smooth="yes"/>
      <point x="2033" y="535"/>
      <point x="2031" y="512"/>
      <point x="2026" y="491" type="curve" smooth="yes"/>
      <point x="2012" y="427"/>
      <point x="1975" y="402"/>
      <point x="1937" y="402" type="curve" smooth="yes"/>
      <point x="1855" y="402"/>
      <point x="1847" y="481"/>
      <point x="1847" y="585" type="curve" smooth="yes"/>
      <point x="1847" y="769"/>
      <point x="1857" y="822"/>
      <point x="1866" y="868" type="curve"/>
      <point x="1843" y="872" type="line"/>
      <point x="1808" y="796"/>
      <point x="1801" y="745"/>
      <point x="1794" y="679" type="curve" smooth="yes"/>
      <point x="1792" y="662"/>
      <point x="1788" y="614"/>
      <point x="1785" y="566" type="curve" smooth="yes"/>
      <point x="1779" y="480"/>
      <point x="1749" y="391"/>
      <point x="1683" y="354" type="curve"/>
      <point x="1673" y="411"/>
      <point x="1644" y="464"/>
      <point x="1583" y="464" type="curve" smooth="yes"/>
      <point x="1555" y="464"/>
      <point x="1535" y="449"/>
      <point x="1521" y="420" type="curve" smooth="yes"/>
      <point x="1491" y="360" type="line" smooth="yes"/>
      <point x="1477" y="333"/>
      <point x="1473" y="309"/>
      <point x="1473" y="292" type="curve" smooth="yes"/>
      <point x="1473" y="246"/>
      <point x="1514" y="222"/>
      <point x="1553" y="222" type="curve" smooth="yes"/>
      <point x="1578" y="222"/>
      <point x="1602" y="228"/>
      <point x="1628" y="240" type="curve"/>
      <point x="1630" y="235"/>
      <point x="1631" y="228"/>
      <point x="1631" y="223" type="curve" smooth="yes"/>
      <point x="1631" y="196"/>
      <point x="1585" y="180"/>
      <point x="1536" y="172" type="curve" smooth="yes"/>
      <point x="1330" y="137"/>
      <point x="1077" y="131"/>
      <point x="791" y="131" type="curve" smooth="yes"/>
      <point x="697" y="131"/>
      <point x="531" y="132"/>
      <point x="413" y="147" type="curve"/>
      <point x="415" y="164"/>
      <point x="416" y="203"/>
      <point x="416" y="222" type="curve" smooth="yes"/>
      <point x="416" y="337"/>
      <point x="372" y="468"/>
      <point x="261" y="468" type="curve" smooth="yes"/>
      <point x="152" y="468"/>
      <point x="60" y="312"/>
      <point x="60" y="206" type="curve" smooth="yes"/>
      <point x="60" y="127"/>
      <point x="113" y="53"/>
      <point x="231" y="28" type="curve" smooth="yes"/>
      <point x="404" y="-9"/>
      <point x="701" y="-9"/>
      <point x="765" y="-9" type="curve" smooth="yes"/>
      <point x="1147" y="-9"/>
      <point x="1366" y="10"/>
      <point x="1500" y="51" type="curve" smooth="yes"/>
      <point x="1618" y="87"/>
      <point x="1680" y="172"/>
    </contour>
    <contour>
      <point x="374" y="150" type="curve"/>
      <point x="193" y="167"/>
      <point x="112" y="205"/>
      <point x="112" y="270" type="curve" smooth="yes"/>
      <point x="112" y="319"/>
      <point x="176" y="349"/>
      <point x="229" y="349" type="curve" smooth="yes"/>
      <point x="312" y="349"/>
      <point x="371" y="278"/>
    </contour>
  </outline>
</glyph>
<glyph name="fifty_siyaq" format="2">
  <advance width="1987"/>
  <unicode hex="1EC7E"/>
  <outline>
    <contour>
      <point x="1927" y="348" type="curve"/>
      <point x="1924" y="361" type="line"/>
      <point x="1905" y="365"/>
      <point x="1873" y="375"/>
      <point x="1826" y="392" type="curve" smooth="yes"/>
      <point x="1777" y="410"/>
      <point x="1739" y="419"/>
      <point x="1698" y="419" type="curve" smooth="yes"/>
      <point x="1643" y="419"/>
      <point x="1600" y="392"/>
      <point x="1563" y="333" type="curve" smooth="yes"/>
      <point x="1530" y="281"/>
      <point x="1500" y="207"/>
      <point x="1492" y="148" type="curve"/>
      <point x="1329" y="133"/>
      <point x="1047" y="131"/>
      <point x="915" y="131" type="curve" smooth="yes"/>
      <point x="797" y="131"/>
      <point x="572" y="134"/>
      <point x="413" y="147" type="curve"/>
      <point x="415" y="164"/>
      <point x="416" y="203"/>
      <point x="416" y="222" type="curve" smooth="yes"/>
      <point x="416" y="337"/>
      <point x="372" y="468"/>
      <point x="261" y="468" type="curve" smooth="yes"/>
      <point x="152" y="468"/>
      <point x="60" y="312"/>
      <point x="60" y="206" type="curve" smooth="yes"/>
      <point x="60" y="127"/>
      <point x="113" y="53"/>
      <point x="231" y="28" type="curve" smooth="yes"/>
      <point x="405" y="-9"/>
      <point x="701" y="-9"/>
      <point x="883" y="-9" type="curve" smooth="yes"/>
      <point x="1115" y="-9"/>
      <point x="1307" y="-1"/>
      <point x="1459" y="16" type="curve" smooth="yes"/>
      <point x="1652" y="38"/>
      <point x="1735" y="84"/>
      <point x="1820" y="195" type="curve" smooth="yes"/>
      <point x="1858" y="245"/>
      <point x="1895" y="298"/>
    </contour>
    <contour>
      <point x="374" y="150" type="curve"/>
      <point x="193" y="167"/>
      <point x="112" y="205"/>
      <point x="112" y="270" type="curve" smooth="yes"/>
      <point x="112" y="319"/>
      <point x="176" y="349"/>
      <point x="229" y="349" type="curve" smooth="yes"/>
      <point x="312" y="349"/>
      <point x="371" y="278"/>
    </contour>
    <contour>
      <point x="1833" y="281" type="curve"/>
      <point x="1779" y="206"/>
      <point x="1678" y="165"/>
      <point x="1531" y="152" type="curve"/>
      <point x="1548" y="225"/>
      <point x="1573" y="269"/>
      <point x="1607" y="296" type="curve" smooth="yes"/>
      <point x="1626" y="311"/>
      <point x="1655" y="317"/>
      <point x="1680" y="317" type="curve" smooth="yes"/>
      <point x="1716" y="317"/>
      <point x="1747" y="310"/>
    </contour>
  </outline>
</glyph>
<glyph name="sixty_siyaq" format="2">
  <advance width="1942"/>
  <unicode hex="1EC7F"/>
  <outline>
    <contour>
      <point x="413" y="142" type="curve"/>
      <point x="415" y="159"/>
      <point x="416" y="198"/>
      <point x="416" y="217" type="curve" smooth="yes"/>
      <point x="416" y="332"/>
      <point x="372" y="463"/>
      <point x="261" y="463" type="curve" smooth="yes"/>
      <point x="152" y="463"/>
      <point x="60" y="307"/>
      <point x="60" y="201" type="curve" smooth="yes"/>
      <point x="60" y="122"/>
      <point x="113" y="49"/>
      <point x="231" y="23" type="curve" smooth="yes"/>
      <point x="281" y="12"/>
      <point x="402" y="-4"/>
      <point x="504" y="-6" type="curve" smooth="yes"/>
      <point x="645" y="-9"/>
      <point x="778" y="-9"/>
      <point x="883" y="-9" type="curve" smooth="yes"/>
      <point x="1315" y="-9"/>
      <point x="1488" y="18"/>
      <point x="1594" y="35" type="curve"/>
      <point x="1655" y="47"/>
      <point x="1838" y="140"/>
      <point x="1862" y="175" type="curve"/>
      <point x="1852" y="182" type="line"/>
      <point x="1659" y="158"/>
      <point x="1329" y="131"/>
      <point x="979" y="131" type="curve" smooth="yes"/>
      <point x="721" y="131"/>
      <point x="555" y="131"/>
    </contour>
    <contour>
      <point x="374" y="145" type="curve"/>
      <point x="195" y="162"/>
      <point x="112" y="199"/>
      <point x="112" y="265" type="curve" smooth="yes"/>
      <point x="112" y="314"/>
      <point x="176" y="344"/>
      <point x="229" y="344" type="curve" smooth="yes"/>
      <point x="312" y="344"/>
      <point x="371" y="273"/>
    </contour>
  </outline>
</glyph>
<glyph name="seventy_siyaq" format="2">
  <advance width="2024"/>
  <unicode hex="1EC80"/>
  <outline>
    <contour>
      <point x="1687" y="278" type="curve"/>
      <point x="1706" y="294"/>
      <point x="1723" y="310"/>
      <point x="1743" y="330" type="curve" smooth="yes"/>
      <point x="1779" y="366" type="line" smooth="yes"/>
      <point x="1815" y="402"/>
      <point x="1828" y="410"/>
      <point x="1850" y="410" type="curve" smooth="yes"/>
      <point x="1896" y="410"/>
      <point x="1902" y="347"/>
      <point x="1902" y="309" type="curve" smooth="yes"/>
      <point x="1902" y="285"/>
      <point x="1899" y="249"/>
      <point x="1896" y="228" type="curve"/>
      <point x="1926" y="225" type="line"/>
      <point x="1951" y="292"/>
      <point x="1964" y="353"/>
      <point x="1964" y="405" type="curve" smooth="yes"/>
      <point x="1964" y="464"/>
      <point x="1944" y="519"/>
      <point x="1878" y="519" type="curve" smooth="yes"/>
      <point x="1854" y="519"/>
      <point x="1834" y="504"/>
      <point x="1806" y="471" type="curve" smooth="yes"/>
      <point x="1771" y="429"/>
      <point x="1730" y="375"/>
      <point x="1685" y="346" type="curve"/>
      <point x="1677" y="426"/>
      <point x="1638" y="467"/>
      <point x="1583" y="467" type="curve" smooth="yes"/>
      <point x="1555" y="467"/>
      <point x="1535" y="452"/>
      <point x="1521" y="423" type="curve" smooth="yes"/>
      <point x="1491" y="363" type="line" smooth="yes"/>
      <point x="1478" y="336"/>
      <point x="1473" y="312"/>
      <point x="1473" y="295" type="curve" smooth="yes"/>
      <point x="1473" y="249"/>
      <point x="1514" y="225"/>
      <point x="1553" y="225" type="curve" smooth="yes"/>
      <point x="1576" y="225"/>
      <point x="1601" y="230"/>
      <point x="1628" y="243" type="curve"/>
      <point x="1630" y="238"/>
      <point x="1631" y="231"/>
      <point x="1631" y="226" type="curve" smooth="yes"/>
      <point x="1631" y="200"/>
      <point x="1599" y="183"/>
      <point x="1536" y="172" type="curve" smooth="yes"/>
      <point x="1330" y="137"/>
      <point x="1076" y="131"/>
      <point x="911" y="131" type="curve" smooth="yes"/>
      <point x="817" y="131"/>
      <point x="531" y="137"/>
      <point x="413" y="152" type="curve"/>
      <point x="415" y="169"/>
      <point x="416" y="208"/>
      <point x="416" y="227" type="curve" smooth="yes"/>
      <point x="416" y="342"/>
      <point x="372" y="473"/>
      <point x="261" y="473" type="curve" smooth="yes"/>
      <point x="152" y="473"/>
      <point x="60" y="317"/>
      <point x="60" y="211" type="curve" smooth="yes"/>
      <point x="60" y="132"/>
      <point x="113" y="59"/>
      <point x="231" y="33" type="curve" smooth="yes"/>
      <point x="404" y="-5"/>
      <point x="773" y="-9"/>
      <point x="837" y="-9" type="curve" smooth="yes"/>
      <point x="1147" y="-9"/>
      <point x="1366" y="10"/>
      <point x="1500" y="51" type="curve" smooth="yes"/>
      <point x="1617" y="87"/>
      <point x="1680" y="174"/>
    </contour>
    <contour>
      <point x="374" y="155" type="curve"/>
      <point x="196" y="173"/>
      <point x="112" y="208"/>
      <point x="112" y="275" type="curve" smooth="yes"/>
      <point x="112" y="324"/>
      <point x="176" y="354"/>
      <point x="229" y="354" type="curve" smooth="yes"/>
      <point x="312" y="354"/>
      <point x="371" y="283"/>
    </contour>
  </outline>
</glyph>
<glyph name="eighty_siyaq" format="2">
  <advance width="1766"/>
  <unicode hex="1EC81"/>
  <outline>
    <contour>
      <point x="374" y="144" type="curve"/>
      <point x="196" y="163"/>
      <point x="112" y="196"/>
      <point x="112" y="264" type="curve" smooth="yes"/>
      <point x="112" y="313"/>
      <point x="176" y="343"/>
      <point x="229" y="343" type="curve" smooth="yes"/>
      <point x="312" y="343"/>
      <point x="371" y="272"/>
    </contour>
    <contour>
      <point x="1685" y="880" type="line"/>
      <point x="1647" y="791"/>
      <point x="1638" y="752"/>
      <point x="1629" y="712" type="curve" smooth="yes"/>
      <point x="1620" y="672"/>
      <point x="1616" y="634"/>
      <point x="1614" y="584" type="curve" smooth="yes"/>
      <point x="1608" y="393"/>
      <point x="1601" y="298"/>
      <point x="1598" y="276" type="curve" smooth="yes"/>
      <point x="1593" y="243"/>
      <point x="1585" y="214"/>
      <point x="1571" y="198" type="curve" smooth="yes"/>
      <point x="1557" y="183"/>
      <point x="1530" y="174"/>
      <point x="1486" y="167" type="curve" smooth="yes"/>
      <point x="1423" y="157"/>
      <point x="1197" y="131"/>
      <point x="911" y="131" type="curve" smooth="yes"/>
      <point x="603" y="131"/>
      <point x="531" y="131"/>
      <point x="413" y="141" type="curve"/>
      <point x="415" y="158"/>
      <point x="416" y="197"/>
      <point x="416" y="216" type="curve" smooth="yes"/>
      <point x="416" y="331"/>
      <point x="372" y="462"/>
      <point x="261" y="462" type="curve" smooth="yes"/>
      <point x="152" y="462"/>
      <point x="60" y="306"/>
      <point x="60" y="200" type="curve" smooth="yes"/>
      <point x="60" y="121"/>
      <point x="116" y="45"/>
      <point x="231" y="22" type="curve" smooth="yes"/>
      <point x="301" y="8"/>
      <point x="429" y="-4"/>
      <point x="546" y="-6" type="curve" smooth="yes"/>
      <point x="716" y="-9"/>
      <point x="877" y="-9"/>
      <point x="915" y="-9" type="curve" smooth="yes"/>
      <point x="1219" y="-9"/>
      <point x="1380" y="25"/>
      <point x="1450" y="46" type="curve" smooth="yes"/>
      <point x="1539" y="73"/>
      <point x="1594" y="130"/>
      <point x="1622" y="201" type="curve" smooth="yes"/>
      <point x="1655" y="285"/>
      <point x="1676" y="364"/>
      <point x="1684" y="533" type="curve" smooth="yes"/>
      <point x="1694" y="741" type="line" smooth="yes"/>
      <point x="1697" y="799"/>
      <point x="1700" y="846"/>
      <point x="1706" y="872" type="curve"/>
    </contour>
  </outline>
</glyph>
<glyph name="ninety_siyaq" format="2">
  <advance width="1907"/>
  <unicode hex="1EC82"/>
  <outline>
    <contour>
      <point x="374" y="145" type="curve"/>
      <point x="200" y="162"/>
      <point x="112" y="197"/>
      <point x="112" y="265" type="curve" smooth="yes"/>
      <point x="112" y="314"/>
      <point x="176" y="344"/>
      <point x="229" y="344" type="curve" smooth="yes"/>
      <point x="312" y="344"/>
      <point x="371" y="273"/>
    </contour>
    <contour>
      <point x="1628" y="243" type="curve"/>
      <point x="1630" y="238"/>
      <point x="1631" y="231"/>
      <point x="1631" y="226" type="curve" smooth="yes"/>
      <point x="1631" y="196"/>
      <point x="1585" y="180"/>
      <point x="1536" y="172" type="curve" smooth="yes"/>
      <point x="1330" y="137"/>
      <point x="1077" y="131"/>
      <point x="791" y="131" type="curve" smooth="yes"/>
      <point x="580" y="131"/>
      <point x="487" y="131"/>
      <point x="413" y="142" type="curve"/>
      <point x="415" y="159"/>
      <point x="416" y="198"/>
      <point x="416" y="217" type="curve" smooth="yes"/>
      <point x="416" y="332"/>
      <point x="372" y="463"/>
      <point x="261" y="463" type="curve" smooth="yes"/>
      <point x="152" y="463"/>
      <point x="60" y="307"/>
      <point x="60" y="201" type="curve" smooth="yes"/>
      <point x="60" y="121"/>
      <point x="117" y="46"/>
      <point x="231" y="23" type="curve" smooth="yes"/>
      <point x="310" y="7"/>
      <point x="410" y="-3"/>
      <point x="509" y="-6" type="curve" smooth="yes"/>
      <point x="621" y="-9"/>
      <point x="731" y="-9"/>
      <point x="765" y="-9" type="curve" smooth="yes"/>
      <point x="1147" y="-9"/>
      <point x="1366" y="10"/>
      <point x="1500" y="51" type="curve" smooth="yes"/>
      <point x="1618" y="87"/>
      <point x="1680" y="175"/>
      <point x="1687" y="276" type="curve"/>
      <point x="1754" y="334"/>
      <point x="1791" y="399"/>
      <point x="1811" y="496" type="curve" smooth="yes"/>
      <point x="1825" y="565"/>
      <point x="1833" y="662"/>
      <point x="1836" y="733" type="curve" smooth="yes"/>
      <point x="1839" y="817"/>
      <point x="1841" y="847"/>
      <point x="1847" y="871" type="curve"/>
      <point x="1826" y="876" type="line"/>
      <point x="1800" y="825"/>
      <point x="1777" y="777"/>
      <point x="1768" y="717" type="curve" smooth="yes"/>
      <point x="1763" y="682"/>
      <point x="1762" y="635"/>
      <point x="1762" y="598" type="curve" smooth="yes"/>
      <point x="1762" y="555"/>
      <point x="1761" y="499"/>
      <point x="1759" y="481" type="curve" smooth="yes"/>
      <point x="1754" y="431"/>
      <point x="1731" y="388"/>
      <point x="1683" y="357" type="curve"/>
      <point x="1671" y="414"/>
      <point x="1644" y="467"/>
      <point x="1583" y="467" type="curve" smooth="yes"/>
      <point x="1555" y="467"/>
      <point x="1535" y="452"/>
      <point x="1521" y="423" type="curve" smooth="yes"/>
      <point x="1491" y="363" type="line" smooth="yes"/>
      <point x="1478" y="336"/>
      <point x="1473" y="312"/>
      <point x="1473" y="295" type="curve" smooth="yes"/>
      <point x="1473" y="249"/>
      <point x="1514" y="225"/>
      <point x="1553" y="225" type="curve" smooth="yes"/>
      <point x="1578" y="225"/>
      <point x="1602" y="231"/>
    </contour>
  </outline>
</glyph>
<glyph name="one_hundred_siyaq" format="2">
  <advance width="385"/>
  <unicode hex="1EC83"/>
  <outline>
    <contour>
      <point x="172" y="0" type="curve" smooth="yes"/>
      <point x="270" y="0"/>
      <point x="325" y="96"/>
      <point x="325" y="195" type="curve" smooth="yes"/>
      <point x="325" y="227"/>
      <point x="311" y="258"/>
      <point x="275" y="258" type="curve" smooth="yes"/>
      <point x="272" y="258"/>
      <point x="269" y="258"/>
      <point x="266" y="257" type="curve"/>
      <point x="223" y="161" type="line"/>
      <point x="220" y="159"/>
      <point x="214" y="158"/>
      <point x="211" y="158" type="curve" smooth="yes"/>
      <point x="136" y="158"/>
      <point x="132" y="236"/>
      <point x="132" y="370" type="curve" smooth="yes"/>
      <point x="132" y="573"/>
      <point x="150" y="767"/>
      <point x="163" y="819" type="curve"/>
      <point x="142" y="827" type="line"/>
      <point x="111" y="752"/>
      <point x="96" y="693"/>
      <point x="86" y="611" type="curve" smooth="yes"/>
      <point x="66" y="441"/>
      <point x="60" y="320"/>
      <point x="60" y="215" type="curve" smooth="yes"/>
      <point x="60" y="81"/>
      <point x="89" y="0"/>
    </contour>
  </outline>
</glyph>
<glyph name="two_hundred_siyaq" format="2">
  <advance width="975"/>
  <unicode hex="1EC84"/>
  <outline>
    <contour>
      <point x="613" y="834" type="curve" smooth="yes"/>
      <point x="487" y="834"/>
      <point x="467" y="544"/>
      <point x="463" y="469" type="curve" smooth="yes"/>
      <point x="459" y="391"/>
      <point x="457" y="299"/>
      <point x="457" y="279" type="curve" smooth="yes"/>
      <point x="457" y="207"/>
      <point x="419" y="158"/>
      <point x="364" y="158" type="curve" smooth="yes"/>
      <point x="348" y="158"/>
      <point x="330" y="160"/>
      <point x="316" y="163" type="curve" smooth="yes"/>
      <point x="299" y="167"/>
      <point x="283" y="168"/>
      <point x="265" y="168" type="curve" smooth="yes"/>
      <point x="187" y="168"/>
      <point x="112" y="108"/>
      <point x="50" y="-49" type="curve"/>
      <point x="70" y="-58" type="line"/>
      <point x="112" y="0"/>
      <point x="141" y="17"/>
      <point x="185" y="17" type="curve" smooth="yes"/>
      <point x="197" y="17"/>
      <point x="223" y="11"/>
      <point x="234" y="8" type="curve" smooth="yes"/>
      <point x="250" y="3"/>
      <point x="265" y="0"/>
      <point x="280" y="0" type="curve" smooth="yes"/>
      <point x="323" y="0"/>
      <point x="367" y="10"/>
      <point x="409" y="46" type="curve" smooth="yes"/>
      <point x="460" y="90"/>
      <point x="485" y="161"/>
      <point x="501" y="219" type="curve" smooth="yes"/>
      <point x="521" y="291"/>
      <point x="526" y="409"/>
      <point x="532" y="548" type="curve" smooth="yes"/>
      <point x="535" y="614" type="line" smooth="yes"/>
      <point x="540" y="717"/>
      <point x="568" y="740"/>
      <point x="611" y="740" type="curve" smooth="yes"/>
      <point x="648" y="740"/>
      <point x="675" y="715"/>
      <point x="675" y="620" type="curve" smooth="yes"/>
      <point x="675" y="539"/>
      <point x="661" y="324"/>
      <point x="661" y="197" type="curve" smooth="yes"/>
      <point x="661" y="81"/>
      <point x="692" y="9"/>
      <point x="768" y="9" type="curve" smooth="yes"/>
      <point x="866" y="9"/>
      <point x="908" y="98"/>
      <point x="908" y="197" type="curve" smooth="yes"/>
      <point x="908" y="229"/>
      <point x="895" y="258"/>
      <point x="859" y="258" type="curve" smooth="yes"/>
      <point x="856" y="258"/>
      <point x="853" y="258"/>
      <point x="850" y="257" type="curve"/>
      <point x="808" y="165" type="line"/>
      <point x="805" y="163"/>
      <point x="799" y="162"/>
      <point x="796" y="162" type="curve" smooth="yes"/>
      <point x="739" y="162"/>
      <point x="725" y="223"/>
      <point x="725" y="352" type="curve" smooth="yes"/>
      <point x="725" y="411"/>
      <point x="724" y="587"/>
      <point x="724" y="627" type="curve" smooth="yes"/>
      <point x="724" y="772"/>
      <point x="693" y="834"/>
    </contour>
  </outline>
</glyph>
<glyph name="three_hundred_siyaq" format="2">
  <advance width="607"/>
  <unicode hex="1EC85"/>
  <outline>
    <contour>
      <point x="184" y="238" type="curve" smooth="yes"/>
      <point x="174" y="217"/>
      <point x="166" y="198"/>
      <point x="161" y="178" type="curve"/>
      <point x="136" y="211"/>
      <point x="132" y="249"/>
      <point x="132" y="362" type="curve" smooth="yes"/>
      <point x="132" y="532"/>
      <point x="149" y="767"/>
      <point x="163" y="819" type="curve"/>
      <point x="142" y="827" type="line"/>
      <point x="111" y="752"/>
      <point x="96" y="693"/>
      <point x="86" y="611" type="curve" smooth="yes"/>
      <point x="66" y="441"/>
      <point x="60" y="320"/>
      <point x="60" y="215" type="curve" smooth="yes"/>
      <point x="60" y="81"/>
      <point x="89" y="0"/>
      <point x="172" y="0" type="curve" smooth="yes"/>
      <point x="255" y="0"/>
      <point x="325" y="82"/>
      <point x="325" y="157" type="curve"/>
      <point x="321" y="165" type="line"/>
      <point x="317" y="169"/>
      <point x="306" y="173"/>
      <point x="257" y="181" type="curve" smooth="yes"/>
      <point x="230" y="185"/>
      <point x="220" y="199"/>
      <point x="220" y="213" type="curve" smooth="yes"/>
      <point x="220" y="227"/>
      <point x="224" y="239"/>
      <point x="235" y="257" type="curve" smooth="yes"/>
      <point x="255" y="289"/>
      <point x="292" y="304"/>
      <point x="326" y="304" type="curve" smooth="yes"/>
      <point x="365" y="304"/>
      <point x="379" y="271"/>
      <point x="430" y="271" type="curve" smooth="yes"/>
      <point x="489" y="271"/>
      <point x="527" y="325"/>
      <point x="550" y="411" type="curve"/>
      <point x="527" y="417" type="line"/>
      <point x="508" y="378"/>
      <point x="491" y="366"/>
      <point x="457" y="366" type="curve" smooth="yes"/>
      <point x="421" y="366"/>
      <point x="404" y="398"/>
      <point x="358" y="398" type="curve" smooth="yes"/>
      <point x="287" y="398"/>
      <point x="228" y="329"/>
    </contour>
  </outline>
</glyph>
<glyph name="four_hundred_siyaq" format="2">
  <advance width="887"/>
  <unicode hex="1EC86"/>
  <outline>
    <contour>
      <point x="275" y="0" type="curve" smooth="yes"/>
      <point x="333" y="0"/>
      <point x="398" y="19"/>
      <point x="454" y="47" type="curve" smooth="yes"/>
      <point x="531" y="86"/>
      <point x="586" y="135"/>
      <point x="632" y="209" type="curve"/>
      <point x="614" y="220" type="line"/>
      <point x="581" y="180"/>
      <point x="531" y="154"/>
      <point x="475" y="154" type="curve" smooth="yes"/>
      <point x="437" y="154"/>
      <point x="390" y="173"/>
      <point x="390" y="222" type="curve" smooth="yes"/>
      <point x="390" y="242"/>
      <point x="400" y="264"/>
      <point x="418" y="279" type="curve" smooth="yes"/>
      <point x="441" y="298"/>
      <point x="472" y="309"/>
      <point x="502" y="309" type="curve" smooth="yes"/>
      <point x="525" y="309"/>
      <point x="549" y="302"/>
      <point x="567" y="286" type="curve"/>
      <point x="575" y="285" type="line"/>
      <point x="596" y="296"/>
      <point x="603" y="316"/>
      <point x="603" y="333" type="curve" smooth="yes"/>
      <point x="603" y="373"/>
      <point x="568" y="391"/>
      <point x="535" y="391" type="curve" smooth="yes"/>
      <point x="468" y="391"/>
      <point x="416" y="339"/>
      <point x="361" y="276" type="curve" smooth="yes"/>
      <point x="329" y="240"/>
      <point x="291" y="187"/>
      <point x="288" y="138" type="curve"/>
      <point x="176" y="138"/>
      <point x="133" y="214"/>
      <point x="133" y="404" type="curve" smooth="yes"/>
      <point x="133" y="655"/>
      <point x="149" y="734"/>
      <point x="162" y="796" type="curve"/>
      <point x="142" y="804" type="line"/>
      <point x="100" y="709"/>
      <point x="89" y="646"/>
      <point x="79" y="564" type="curve" smooth="yes"/>
      <point x="66" y="462"/>
      <point x="60" y="404"/>
      <point x="60" y="286" type="curve" smooth="yes"/>
      <point x="60" y="187"/>
      <point x="71" y="124"/>
      <point x="105" y="76" type="curve" smooth="yes"/>
      <point x="144" y="20"/>
      <point x="209" y="0"/>
    </contour>
    <contour>
      <point x="717" y="89" type="line"/>
      <point x="756" y="178"/>
      <point x="783" y="280"/>
      <point x="787" y="365" type="curve" smooth="yes"/>
      <point x="797" y="558" type="line" smooth="yes"/>
      <point x="803" y="674"/>
      <point x="810" y="804"/>
      <point x="827" y="849" type="curve"/>
      <point x="806" y="857" type="line"/>
      <point x="765" y="767"/>
      <point x="746" y="713"/>
      <point x="737" y="673" type="curve" smooth="yes"/>
      <point x="728" y="634"/>
      <point x="724" y="581"/>
      <point x="722" y="532" type="curve" smooth="yes"/>
      <point x="713" y="283" type="line" smooth="yes"/>
      <point x="710" y="196"/>
      <point x="699" y="116"/>
      <point x="695" y="94" type="curve"/>
    </contour>
  </outline>
</glyph>
<glyph name="five_hundred_siyaq" format="2">
  <advance width="873"/>
  <unicode hex="1EC87"/>
  <outline>
    <contour>
      <point x="184" y="238" type="curve" smooth="yes"/>
      <point x="174" y="217"/>
      <point x="166" y="198"/>
      <point x="161" y="178" type="curve"/>
      <point x="137" y="206"/>
      <point x="132" y="263"/>
      <point x="132" y="348" type="curve" smooth="yes"/>
      <point x="132" y="387" type="line" smooth="yes"/>
      <point x="132" y="604"/>
      <point x="150" y="767"/>
      <point x="163" y="819" type="curve"/>
      <point x="142" y="827" type="line"/>
      <point x="111" y="752"/>
      <point x="96" y="693"/>
      <point x="86" y="611" type="curve" smooth="yes"/>
      <point x="66" y="441"/>
      <point x="60" y="320"/>
      <point x="60" y="215" type="curve" smooth="yes"/>
      <point x="60" y="81"/>
      <point x="89" y="0"/>
      <point x="172" y="0" type="curve" smooth="yes"/>
      <point x="255" y="0"/>
      <point x="325" y="82"/>
      <point x="325" y="157" type="curve"/>
      <point x="321" y="165" type="line"/>
      <point x="317" y="169"/>
      <point x="305" y="173"/>
      <point x="256" y="181" type="curve" smooth="yes"/>
      <point x="230" y="185"/>
      <point x="220" y="199"/>
      <point x="220" y="213" type="curve" smooth="yes"/>
      <point x="220" y="227"/>
      <point x="224" y="238"/>
      <point x="235" y="257" type="curve" smooth="yes"/>
      <point x="254" y="289"/>
      <point x="279" y="296"/>
      <point x="307" y="296" type="curve" smooth="yes"/>
      <point x="335" y="296"/>
      <point x="357" y="285"/>
      <point x="377" y="274" type="curve" smooth="yes"/>
      <point x="404" y="260"/>
      <point x="438" y="243"/>
      <point x="480" y="243" type="curve" smooth="yes"/>
      <point x="564" y="243"/>
      <point x="646" y="290"/>
      <point x="714" y="369" type="curve" smooth="yes"/>
      <point x="750" y="411"/>
      <point x="784" y="456"/>
      <point x="813" y="498" type="curve"/>
      <point x="810" y="508" type="line"/>
      <point x="795" y="510"/>
      <point x="762" y="521"/>
      <point x="721" y="535" type="curve" smooth="yes"/>
      <point x="677" y="550"/>
      <point x="641" y="557"/>
      <point x="606" y="557" type="curve" smooth="yes"/>
      <point x="511" y="557"/>
      <point x="470" y="461"/>
      <point x="433" y="367" type="curve"/>
      <point x="418" y="375"/>
      <point x="395" y="390"/>
      <point x="360" y="390" type="curve" smooth="yes"/>
      <point x="282" y="390"/>
      <point x="228" y="329"/>
    </contour>
    <contour>
      <point x="460" y="355" type="curve"/>
      <point x="484" y="418"/>
      <point x="521" y="460"/>
      <point x="585" y="460" type="curve" smooth="yes"/>
      <point x="618" y="460"/>
      <point x="659" y="454"/>
      <point x="690" y="443" type="curve" smooth="yes"/>
      <point x="720" y="432" type="line"/>
      <point x="682" y="382"/>
      <point x="602" y="349"/>
      <point x="523" y="349" type="curve" smooth="yes"/>
      <point x="503" y="349"/>
      <point x="482" y="351"/>
    </contour>
  </outline>
</glyph>
<glyph name="six_hundred_siyaq" format="2">
  <advance width="971"/>
  <unicode hex="1EC88"/>
  <outline>
    <contour>
      <point x="921" y="421" type="curve"/>
      <point x="904" y="439" type="line"/>
      <point x="829" y="389"/>
      <point x="764" y="357"/>
      <point x="638" y="357" type="curve" smooth="yes"/>
      <point x="522" y="357"/>
      <point x="466" y="395"/>
      <point x="387" y="395" type="curve" smooth="yes"/>
      <point x="292" y="395"/>
      <point x="225" y="323"/>
      <point x="184" y="238" type="curve" smooth="yes"/>
      <point x="174" y="217"/>
      <point x="166" y="198"/>
      <point x="161" y="178" type="curve"/>
      <point x="137" y="206"/>
      <point x="132" y="263"/>
      <point x="132" y="348" type="curve" smooth="yes"/>
      <point x="132" y="387" type="line" smooth="yes"/>
      <point x="132" y="604"/>
      <point x="150" y="767"/>
      <point x="163" y="819" type="curve"/>
      <point x="142" y="827" type="line"/>
      <point x="111" y="752"/>
      <point x="96" y="693"/>
      <point x="86" y="611" type="curve" smooth="yes"/>
      <point x="66" y="441"/>
      <point x="60" y="320"/>
      <point x="60" y="215" type="curve" smooth="yes"/>
      <point x="60" y="81"/>
      <point x="89" y="0"/>
      <point x="172" y="0" type="curve" smooth="yes"/>
      <point x="255" y="0"/>
      <point x="325" y="82"/>
      <point x="325" y="157" type="curve"/>
      <point x="321" y="165" type="line"/>
      <point x="317" y="169"/>
      <point x="305" y="173"/>
      <point x="256" y="181" type="curve" smooth="yes"/>
      <point x="230" y="185"/>
      <point x="220" y="199"/>
      <point x="220" y="213" type="curve" smooth="yes"/>
      <point x="220" y="227"/>
      <point x="225" y="241"/>
      <point x="232" y="252" type="curve" smooth="yes"/>
      <point x="252" y="285"/>
      <point x="287" y="299"/>
      <point x="332" y="299" type="curve" smooth="yes"/>
      <point x="405" y="299"/>
      <point x="464" y="253"/>
      <point x="573" y="253" type="curve" smooth="yes"/>
      <point x="707" y="253"/>
      <point x="817" y="315"/>
    </contour>
  </outline>
</glyph>
<glyph name="seven_hundred_siyaq" format="2">
  <advance width="662"/>
  <unicode hex="1EC89"/>
  <outline>
    <contour>
      <point x="198" y="0" type="curve" smooth="yes"/>
      <point x="246" y="0"/>
      <point x="276" y="24"/>
      <point x="304" y="56" type="curve" smooth="yes"/>
      <point x="327" y="82"/>
      <point x="351" y="114"/>
      <point x="372" y="143" type="curve" smooth="yes"/>
      <point x="399" y="180"/>
      <point x="415" y="190"/>
      <point x="437" y="190" type="curve" smooth="yes"/>
      <point x="455" y="190"/>
      <point x="468" y="186"/>
      <point x="491" y="173" type="curve" smooth="yes"/>
      <point x="508" y="164"/>
      <point x="517" y="161"/>
      <point x="527" y="161" type="curve" smooth="yes"/>
      <point x="569" y="161"/>
      <point x="612" y="243"/>
      <point x="612" y="277" type="curve" smooth="yes"/>
      <point x="612" y="297"/>
      <point x="603" y="307"/>
      <point x="554" y="336" type="curve" smooth="yes"/>
      <point x="539" y="345"/>
      <point x="535" y="360"/>
      <point x="535" y="373" type="curve" smooth="yes"/>
      <point x="535" y="391"/>
      <point x="544" y="434"/>
      <point x="551" y="460" type="curve" smooth="yes"/>
      <point x="569" y="531"/>
      <point x="574" y="566"/>
      <point x="578" y="614" type="curve" smooth="yes"/>
      <point x="583" y="678"/>
      <point x="585" y="713"/>
      <point x="586" y="769" type="curve" smooth="yes"/>
      <point x="587" y="827"/>
      <point x="591" y="874"/>
      <point x="596" y="900" type="curve"/>
      <point x="575" y="908" type="line"/>
      <point x="539" y="819"/>
      <point x="530" y="780"/>
      <point x="522" y="740" type="curve" smooth="yes"/>
      <point x="514" y="700"/>
      <point x="510" y="662"/>
      <point x="509" y="612" type="curve" smooth="yes"/>
      <point x="504" y="431"/>
      <point x="502" y="413"/>
      <point x="481" y="350" type="curve" smooth="yes"/>
      <point x="476" y="336"/>
      <point x="471" y="321"/>
      <point x="469" y="309" type="curve"/>
      <point x="456" y="301"/>
      <point x="445" y="290"/>
      <point x="436" y="279" type="curve" smooth="yes"/>
      <point x="397" y="231" type="line" smooth="yes"/>
      <point x="349" y="172"/>
      <point x="306" y="158"/>
      <point x="256" y="158" type="curve" smooth="yes"/>
      <point x="169" y="158"/>
      <point x="132" y="220"/>
      <point x="132" y="365" type="curve" smooth="yes"/>
      <point x="132" y="598"/>
      <point x="157" y="761"/>
      <point x="168" y="818" type="curve"/>
      <point x="148" y="826" type="line"/>
      <point x="106" y="731"/>
      <point x="95" y="668"/>
      <point x="85" y="586" type="curve" smooth="yes"/>
      <point x="65" y="416"/>
      <point x="60" y="333"/>
      <point x="60" y="215" type="curve" smooth="yes"/>
      <point x="60" y="84"/>
      <point x="102" y="0"/>
    </contour>
  </outline>
</glyph>
<glyph name="eight_hundred_siyaq" format="2">
  <advance width="583"/>
  <unicode hex="1EC8A"/>
  <outline>
    <contour>
      <point x="129" y="216" type="curve" smooth="yes"/>
      <point x="129" y="85"/>
      <point x="156" y="0"/>
      <point x="264" y="0" type="curve" smooth="yes"/>
      <point x="370" y="0"/>
      <point x="425" y="125"/>
      <point x="455" y="223" type="curve" smooth="yes"/>
      <point x="483" y="316"/>
      <point x="495" y="445"/>
      <point x="500" y="541" type="curve" smooth="yes"/>
      <point x="511" y="743" type="line" smooth="yes"/>
      <point x="514" y="801"/>
      <point x="517" y="848"/>
      <point x="523" y="874" type="curve"/>
      <point x="500" y="882" type="line"/>
      <point x="468" y="807"/>
      <point x="455" y="754"/>
      <point x="446" y="714" type="curve" smooth="yes"/>
      <point x="437" y="674"/>
      <point x="432" y="636"/>
      <point x="431" y="586" type="curve" smooth="yes"/>
      <point x="428" y="411" type="line" smooth="yes"/>
      <point x="427" y="324"/>
      <point x="425" y="286"/>
      <point x="420" y="264" type="curve" smooth="yes"/>
      <point x="402" y="184"/>
      <point x="366" y="158"/>
      <point x="313" y="158" type="curve" smooth="yes"/>
      <point x="216" y="158"/>
      <point x="188" y="247"/>
      <point x="188" y="341" type="curve" smooth="yes"/>
      <point x="188" y="417"/>
      <point x="196" y="529"/>
      <point x="196" y="533" type="curve" smooth="yes"/>
      <point x="196" y="546"/>
      <point x="189" y="551"/>
      <point x="167" y="553" type="curve" smooth="yes"/>
      <point x="96" y="558"/>
      <point x="85" y="623"/>
      <point x="85" y="679" type="curve" smooth="yes"/>
      <point x="85" y="739"/>
      <point x="89" y="802"/>
      <point x="95" y="831" type="curve"/>
      <point x="72" y="837" type="line"/>
      <point x="46" y="754"/>
      <point x="27" y="636"/>
      <point x="27" y="574" type="curve" smooth="yes"/>
      <point x="27" y="487"/>
      <point x="67" y="437"/>
      <point x="147" y="428" type="curve"/>
      <point x="137" y="364"/>
      <point x="129" y="252"/>
    </contour>
  </outline>
</glyph>
<glyph name="nine_hundred_siyaq" format="2">
  <advance width="821"/>
  <unicode hex="1EC8B"/>
  <outline>
    <contour>
      <point x="650" y="644" type="curve" smooth="yes"/>
      <point x="741" y="644"/>
      <point x="800" y="740"/>
      <point x="821" y="916" type="curve"/>
      <point x="797" y="920" type="line"/>
      <point x="769" y="812"/>
      <point x="735" y="758"/>
      <point x="659" y="758" type="curve" smooth="yes"/>
      <point x="617" y="758"/>
      <point x="560" y="768"/>
      <point x="560" y="872" type="curve" smooth="yes"/>
      <point x="560" y="874"/>
      <point x="560" y="878"/>
      <point x="561" y="885" type="curve"/>
      <point x="538" y="889" type="line"/>
      <point x="519" y="789"/>
      <point x="512" y="720"/>
      <point x="509" y="612" type="curve" smooth="yes"/>
      <point x="504" y="431"/>
      <point x="502" y="413"/>
      <point x="481" y="350" type="curve" smooth="yes"/>
      <point x="476" y="336"/>
      <point x="471" y="321"/>
      <point x="469" y="309" type="curve"/>
      <point x="456" y="301"/>
      <point x="445" y="290"/>
      <point x="436" y="279" type="curve" smooth="yes"/>
      <point x="397" y="231" type="line" smooth="yes"/>
      <point x="349" y="172"/>
      <point x="306" y="158"/>
      <point x="256" y="158" type="curve" smooth="yes"/>
      <point x="169" y="158"/>
      <point x="132" y="221"/>
      <point x="132" y="366" type="curve" smooth="yes"/>
      <point x="132" y="599"/>
      <point x="157" y="761"/>
      <point x="168" y="818" type="curve"/>
      <point x="145" y="826" type="line"/>
      <point x="103" y="731"/>
      <point x="95" y="668"/>
      <point x="85" y="586" type="curve" smooth="yes"/>
      <point x="65" y="416"/>
      <point x="60" y="333"/>
      <point x="60" y="215" type="curve" smooth="yes"/>
      <point x="60" y="84"/>
      <point x="102" y="0"/>
      <point x="198" y="0" type="curve" smooth="yes"/>
      <point x="246" y="0"/>
      <point x="276" y="24"/>
      <point x="304" y="56" type="curve" smooth="yes"/>
      <point x="327" y="82"/>
      <point x="351" y="114"/>
      <point x="372" y="143" type="curve" smooth="yes"/>
      <point x="399" y="180"/>
      <point x="415" y="190"/>
      <point x="437" y="190" type="curve" smooth="yes"/>
      <point x="455" y="190"/>
      <point x="468" y="186"/>
      <point x="491" y="173" type="curve" smooth="yes"/>
      <point x="508" y="164"/>
      <point x="517" y="161"/>
      <point x="527" y="161" type="curve" smooth="yes"/>
      <point x="569" y="161"/>
      <point x="612" y="243"/>
      <point x="612" y="277" type="curve" smooth="yes"/>
      <point x="612" y="297"/>
      <point x="603" y="307"/>
      <point x="554" y="336" type="curve" smooth="yes"/>
      <point x="539" y="345"/>
      <point x="535" y="358"/>
      <point x="535" y="371" type="curve" smooth="yes"/>
      <point x="535" y="386"/>
      <point x="538" y="409"/>
      <point x="543" y="435" type="curve" smooth="yes"/>
      <point x="558" y="514"/>
      <point x="562" y="583"/>
      <point x="562" y="651" type="curve" smooth="yes"/>
      <point x="562" y="683" type="line"/>
      <point x="588" y="647"/>
      <point x="623" y="644"/>
    </contour>
  </outline>
</glyph>
<glyph name="one_thousand_siyaq" format="2">
  <advance width="1851"/>
  <unicode hex="1EC8C"/>
  <outline>
    <contour>
      <point x="1659" y="146" type="curve"/>
      <point x="1683" y="141" type="line"/>
      <point x="1722" y="230"/>
      <point x="1747" y="332"/>
      <point x="1751" y="417" type="curve" smooth="yes"/>
      <point x="1761" y="611" type="line" smooth="yes"/>
      <point x="1767" y="727"/>
      <point x="1776" y="857"/>
      <point x="1791" y="901" type="curve"/>
      <point x="1768" y="909" type="line"/>
      <point x="1727" y="819"/>
      <point x="1711" y="765"/>
      <point x="1701" y="725" type="curve" smooth="yes"/>
      <point x="1691" y="684"/>
      <point x="1688" y="633"/>
      <point x="1686" y="584" type="curve" smooth="yes"/>
      <point x="1677" y="335" type="line" smooth="yes"/>
      <point x="1674" y="248"/>
      <point x="1663" y="168"/>
    </contour>
    <contour>
      <point x="663" y="-9" type="curve" smooth="yes"/>
      <point x="967" y="-9"/>
      <point x="1220" y="8"/>
      <point x="1331" y="41" type="curve" smooth="yes"/>
      <point x="1420" y="68"/>
      <point x="1475" y="125"/>
      <point x="1503" y="196" type="curve" smooth="yes"/>
      <point x="1536" y="280"/>
      <point x="1557" y="359"/>
      <point x="1565" y="528" type="curve" smooth="yes"/>
      <point x="1575" y="736" type="line" smooth="yes"/>
      <point x="1578" y="794"/>
      <point x="1581" y="841"/>
      <point x="1587" y="867" type="curve"/>
      <point x="1564" y="875" type="line"/>
      <point x="1526" y="786"/>
      <point x="1517" y="747"/>
      <point x="1508" y="707" type="curve" smooth="yes"/>
      <point x="1499" y="667"/>
      <point x="1497" y="629"/>
      <point x="1495" y="579" type="curve" smooth="yes"/>
      <point x="1489" y="388"/>
      <point x="1483" y="293"/>
      <point x="1479" y="271" type="curve" smooth="yes"/>
      <point x="1473" y="238"/>
      <point x="1466" y="209"/>
      <point x="1452" y="193" type="curve" smooth="yes"/>
      <point x="1438" y="178"/>
      <point x="1411" y="169"/>
      <point x="1367" y="162" type="curve" smooth="yes"/>
      <point x="1304" y="152"/>
      <point x="1159" y="131"/>
      <point x="702" y="131" type="curve" smooth="yes"/>
      <point x="323" y="131"/>
      <point x="168" y="141"/>
      <point x="78" y="149" type="curve"/>
      <point x="67" y="141" type="line"/>
      <point x="62" y="123"/>
      <point x="60" y="101"/>
      <point x="60" y="87" type="curve" smooth="yes"/>
      <point x="60" y="52"/>
      <point x="68" y="14"/>
      <point x="149" y="5" type="curve" smooth="yes"/>
      <point x="225" y="-3"/>
      <point x="418" y="-9"/>
    </contour>
  </outline>
</glyph>
<glyph name="two_thousand_siyaq" format="2">
  <advance width="1964"/>
  <unicode hex="1EC8D"/>
  <outline>
    <contour>
      <point x="1454" y="88" type="curve" smooth="yes"/>
      <point x="1454" y="112"/>
      <point x="1428" y="129"/>
      <point x="1392" y="147" type="curve" smooth="yes"/>
      <point x="1377" y="154"/>
      <point x="1372" y="163"/>
      <point x="1372" y="174" type="curve" smooth="yes"/>
      <point x="1372" y="221"/>
      <point x="1447" y="277"/>
      <point x="1510" y="309" type="curve" smooth="yes"/>
      <point x="1568" y="338"/>
      <point x="1582" y="345"/>
      <point x="1636" y="373" type="curve" smooth="yes"/>
      <point x="1650" y="380"/>
      <point x="1671" y="392"/>
      <point x="1681" y="404" type="curve" smooth="yes"/>
      <point x="1698" y="426"/>
      <point x="1709" y="450"/>
      <point x="1716" y="469" type="curve"/>
      <point x="1703" y="480" type="line"/>
      <point x="1667" y="456"/>
      <point x="1642" y="440"/>
      <point x="1616" y="429" type="curve" smooth="yes"/>
      <point x="1605" y="424"/>
      <point x="1595" y="423"/>
      <point x="1580" y="423" type="curve" smooth="yes"/>
      <point x="1564" y="423"/>
      <point x="1547" y="424"/>
      <point x="1531" y="429" type="curve" smooth="yes"/>
      <point x="1499" y="439"/>
      <point x="1464" y="461"/>
      <point x="1464" y="498" type="curve" smooth="yes"/>
      <point x="1464" y="544"/>
      <point x="1516" y="573"/>
      <point x="1561" y="573" type="curve" smooth="yes"/>
      <point x="1585" y="573"/>
      <point x="1608" y="566"/>
      <point x="1627" y="548" type="curve"/>
      <point x="1634" y="547" type="line"/>
      <point x="1649" y="555"/>
      <point x="1663" y="574"/>
      <point x="1663" y="599" type="curve" smooth="yes"/>
      <point x="1663" y="633"/>
      <point x="1629" y="651"/>
      <point x="1594" y="651" type="curve" smooth="yes"/>
      <point x="1537" y="651"/>
      <point x="1481" y="605"/>
      <point x="1436" y="559" type="curve" smooth="yes"/>
      <point x="1402" y="525"/>
      <point x="1364" y="475"/>
      <point x="1364" y="418" type="curve" smooth="yes"/>
      <point x="1364" y="379"/>
      <point x="1389" y="340"/>
      <point x="1429" y="321" type="curve"/>
      <point x="1386" y="286"/>
      <point x="1311" y="225"/>
      <point x="1286" y="152" type="curve"/>
      <point x="1194" y="145"/>
      <point x="1034" y="131"/>
      <point x="702" y="131" type="curve" smooth="yes"/>
      <point x="323" y="131"/>
      <point x="168" y="141"/>
      <point x="78" y="149" type="curve"/>
      <point x="67" y="141" type="line"/>
      <point x="62" y="123"/>
      <point x="60" y="101"/>
      <point x="60" y="87" type="curve" smooth="yes"/>
      <point x="60" y="52"/>
      <point x="68" y="14"/>
      <point x="149" y="5" type="curve" smooth="yes"/>
      <point x="225" y="-3"/>
      <point x="418" y="-9"/>
      <point x="663" y="-9" type="curve" smooth="yes"/>
      <point x="967" y="-9"/>
      <point x="1235" y="13"/>
      <point x="1280" y="13" type="curve" smooth="yes"/>
      <point x="1298" y="13"/>
      <point x="1311" y="8"/>
      <point x="1334" y="-4" type="curve" smooth="yes"/>
      <point x="1350" y="-12"/>
      <point x="1360" y="-16"/>
      <point x="1370" y="-16" type="curve" smooth="yes"/>
      <point x="1412" y="-16"/>
      <point x="1454" y="54"/>
    </contour>
    <contour>
      <point x="1772" y="33" type="curve"/>
      <point x="1796" y="28" type="line"/>
      <point x="1835" y="117"/>
      <point x="1860" y="219"/>
      <point x="1864" y="304" type="curve" smooth="yes"/>
      <point x="1874" y="498" type="line" smooth="yes"/>
      <point x="1880" y="614"/>
      <point x="1889" y="744"/>
      <point x="1904" y="788" type="curve"/>
      <point x="1881" y="796" type="line"/>
      <point x="1840" y="706"/>
      <point x="1824" y="652"/>
      <point x="1814" y="612" type="curve" smooth="yes"/>
      <point x="1804" y="573"/>
      <point x="1801" y="520"/>
      <point x="1799" y="471" type="curve" smooth="yes"/>
      <point x="1790" y="222" type="line" smooth="yes"/>
      <point x="1787" y="135"/>
      <point x="1776" y="55"/>
    </contour>
  </outline>
</glyph>
<glyph name="three_thousand_siyaq" format="2">
  <advance width="1804"/>
  <unicode hex="1EC8E"/>
  <outline>
    <contour>
      <point x="1563" y="192" type="curve" smooth="yes"/>
      <point x="1654" y="192"/>
      <point x="1723" y="287"/>
      <point x="1744" y="463" type="curve"/>
      <point x="1719" y="467" type="line"/>
      <point x="1691" y="359"/>
      <point x="1648" y="315"/>
      <point x="1572" y="315" type="curve" smooth="yes"/>
      <point x="1539" y="315"/>
      <point x="1467" y="324"/>
      <point x="1467" y="428" type="curve" smooth="yes"/>
      <point x="1467" y="431"/>
      <point x="1468" y="443"/>
      <point x="1470" y="456" type="curve"/>
      <point x="1449" y="459" type="line"/>
      <point x="1443" y="445"/>
      <point x="1436" y="420"/>
      <point x="1432" y="401" type="curve" smooth="yes"/>
      <point x="1422" y="352"/>
      <point x="1409" y="316"/>
      <point x="1395" y="293" type="curve" smooth="yes"/>
      <point x="1362" y="239"/>
      <point x="1320" y="203"/>
      <point x="1300" y="163" type="curve" smooth="yes"/>
      <point x="1295" y="153" type="line"/>
      <point x="1208" y="145"/>
      <point x="975" y="131"/>
      <point x="702" y="131" type="curve" smooth="yes"/>
      <point x="323" y="131"/>
      <point x="168" y="141"/>
      <point x="78" y="149" type="curve"/>
      <point x="67" y="141" type="line"/>
      <point x="62" y="123"/>
      <point x="60" y="101"/>
      <point x="60" y="87" type="curve" smooth="yes"/>
      <point x="60" y="52"/>
      <point x="68" y="14"/>
      <point x="149" y="5" type="curve" smooth="yes"/>
      <point x="225" y="-3"/>
      <point x="418" y="-9"/>
      <point x="663" y="-9" type="curve" smooth="yes"/>
      <point x="967" y="-9"/>
      <point x="1235" y="13"/>
      <point x="1280" y="13" type="curve" smooth="yes"/>
      <point x="1298" y="13"/>
      <point x="1311" y="9"/>
      <point x="1334" y="-4" type="curve" smooth="yes"/>
      <point x="1350" y="-13"/>
      <point x="1360" y="-16"/>
      <point x="1370" y="-16" type="curve" smooth="yes"/>
      <point x="1412" y="-16"/>
      <point x="1454" y="54"/>
      <point x="1454" y="87" type="curve" smooth="yes"/>
      <point x="1454" y="112"/>
      <point x="1439" y="129"/>
      <point x="1401" y="145" type="curve" smooth="yes"/>
      <point x="1385" y="152"/>
      <point x="1371" y="159"/>
      <point x="1371" y="174" type="curve" smooth="yes"/>
      <point x="1371" y="184"/>
      <point x="1374" y="192"/>
      <point x="1380" y="201" type="curve" smooth="yes"/>
      <point x="1403" y="236"/>
      <point x="1420" y="257"/>
      <point x="1435" y="291" type="curve"/>
      <point x="1449" y="225"/>
      <point x="1495" y="192"/>
    </contour>
  </outline>
</glyph>
<glyph name="four_thousand_siyaq" format="2">
  <advance width="2135"/>
  <unicode hex="1EC8F"/>
  <outline>
    <contour>
      <point x="1554" y="217" type="curve" smooth="yes"/>
      <point x="1652" y="217"/>
      <point x="1708" y="277"/>
      <point x="1741" y="363" type="curve"/>
      <point x="1750" y="268"/>
      <point x="1788" y="214"/>
      <point x="1860" y="214" type="curve" smooth="yes"/>
      <point x="1948" y="214"/>
      <point x="1999" y="331"/>
      <point x="2021" y="413" type="curve" smooth="yes"/>
      <point x="2044" y="499"/>
      <point x="2055" y="603"/>
      <point x="2059" y="679" type="curve" smooth="yes"/>
      <point x="2065" y="801" type="line" smooth="yes"/>
      <point x="2067" y="847"/>
      <point x="2069" y="884"/>
      <point x="2075" y="908" type="curve"/>
      <point x="2052" y="913" type="line"/>
      <point x="2018" y="842"/>
      <point x="2011" y="813"/>
      <point x="2005" y="778" type="curve" smooth="yes"/>
      <point x="2000" y="746"/>
      <point x="1997" y="714"/>
      <point x="1996" y="674" type="curve" smooth="yes"/>
      <point x="1994" y="575" type="line" smooth="yes"/>
      <point x="1993" y="505"/>
      <point x="1991" y="482"/>
      <point x="1986" y="461" type="curve" smooth="yes"/>
      <point x="1972" y="397"/>
      <point x="1935" y="372"/>
      <point x="1897" y="372" type="curve" smooth="yes"/>
      <point x="1815" y="372"/>
      <point x="1807" y="451"/>
      <point x="1807" y="555" type="curve" smooth="yes"/>
      <point x="1807" y="739"/>
      <point x="1817" y="792"/>
      <point x="1826" y="838" type="curve"/>
      <point x="1803" y="842" type="line"/>
      <point x="1768" y="766"/>
      <point x="1761" y="705"/>
      <point x="1754" y="639" type="curve" smooth="yes"/>
      <point x="1752" y="622"/>
      <point x="1749" y="584"/>
      <point x="1745" y="536" type="curve" smooth="yes"/>
      <point x="1737" y="440"/>
      <point x="1700" y="303"/>
      <point x="1576" y="303" type="curve" smooth="yes"/>
      <point x="1568" y="303"/>
      <point x="1557" y="304"/>
      <point x="1551" y="306" type="curve"/>
      <point x="1584" y="340"/>
      <point x="1606" y="364"/>
      <point x="1606" y="399" type="curve" smooth="yes"/>
      <point x="1606" y="454"/>
      <point x="1543" y="474"/>
      <point x="1494" y="474" type="curve" smooth="yes"/>
      <point x="1424" y="474"/>
      <point x="1365" y="439"/>
      <point x="1338" y="381" type="curve"/>
      <point x="1344" y="371" type="line"/>
      <point x="1349" y="372"/>
      <point x="1354" y="372"/>
      <point x="1358" y="372" type="curve" smooth="yes"/>
      <point x="1395" y="372"/>
      <point x="1416" y="347"/>
      <point x="1435" y="312" type="curve"/>
      <point x="1379" y="278"/>
      <point x="1336" y="216"/>
      <point x="1311" y="154" type="curve"/>
      <point x="1228" y="148"/>
      <point x="1070" y="131"/>
      <point x="702" y="131" type="curve" smooth="yes"/>
      <point x="323" y="131"/>
      <point x="168" y="141"/>
      <point x="78" y="149" type="curve"/>
      <point x="67" y="141" type="line"/>
      <point x="62" y="123"/>
      <point x="60" y="101"/>
      <point x="60" y="87" type="curve" smooth="yes"/>
      <point x="60" y="52"/>
      <point x="68" y="14"/>
      <point x="149" y="5" type="curve" smooth="yes"/>
      <point x="225" y="-3"/>
      <point x="418" y="-9"/>
      <point x="663" y="-9" type="curve" smooth="yes"/>
      <point x="803" y="-9"/>
      <point x="938" y="-6"/>
      <point x="1045" y="1" type="curve" smooth="yes"/>
      <point x="1168" y="9"/>
      <point x="1254" y="13"/>
      <point x="1281" y="13" type="curve" smooth="yes"/>
      <point x="1299" y="13"/>
      <point x="1311" y="9"/>
      <point x="1334" y="-4" type="curve" smooth="yes"/>
      <point x="1350" y="-13"/>
      <point x="1360" y="-16"/>
      <point x="1370" y="-16" type="curve" smooth="yes"/>
      <point x="1412" y="-16"/>
      <point x="1454" y="54"/>
      <point x="1454" y="88" type="curve" smooth="yes"/>
      <point x="1454" y="112"/>
      <point x="1439" y="120"/>
      <point x="1395" y="143" type="curve" smooth="yes"/>
      <point x="1380" y="151"/>
      <point x="1373" y="158"/>
      <point x="1373" y="169" type="curve" smooth="yes"/>
      <point x="1373" y="173"/>
      <point x="1374" y="181"/>
      <point x="1379" y="190" type="curve" smooth="yes"/>
      <point x="1395" y="218"/>
      <point x="1419" y="238"/>
      <point x="1465" y="256" type="curve"/>
      <point x="1483" y="234"/>
      <point x="1519" y="217"/>
    </contour>
  </outline>
</glyph>
<glyph name="five_thousand_siyaq" format="2">
  <advance width="2026"/>
  <unicode hex="1EC90"/>
  <outline>
    <contour>
      <point x="1633" y="313" type="curve"/>
      <point x="1657" y="376"/>
      <point x="1694" y="416"/>
      <point x="1758" y="416" type="curve" smooth="yes"/>
      <point x="1791" y="416"/>
      <point x="1825" y="412"/>
      <point x="1856" y="401" type="curve" smooth="yes"/>
      <point x="1893" y="388" type="line"/>
      <point x="1855" y="338"/>
      <point x="1775" y="305"/>
      <point x="1696" y="305" type="curve" smooth="yes"/>
      <point x="1676" y="305"/>
      <point x="1652" y="307"/>
    </contour>
    <contour>
      <point x="1373" y="169" type="curve" smooth="yes"/>
      <point x="1373" y="183"/>
      <point x="1378" y="195"/>
      <point x="1391" y="213" type="curve" smooth="yes"/>
      <point x="1414" y="245"/>
      <point x="1447" y="252"/>
      <point x="1475" y="252" type="curve" smooth="yes"/>
      <point x="1499" y="252"/>
      <point x="1524" y="244"/>
      <point x="1550" y="230" type="curve" smooth="yes"/>
      <point x="1577" y="216"/>
      <point x="1611" y="199"/>
      <point x="1653" y="199" type="curve" smooth="yes"/>
      <point x="1736" y="199"/>
      <point x="1813" y="241"/>
      <point x="1882" y="319" type="curve" smooth="yes"/>
      <point x="1917" y="358"/>
      <point x="1958" y="412"/>
      <point x="1986" y="454" type="curve"/>
      <point x="1983" y="464" type="line"/>
      <point x="1967" y="466"/>
      <point x="1937" y="476"/>
      <point x="1894" y="491" type="curve" smooth="yes"/>
      <point x="1850" y="506"/>
      <point x="1814" y="513"/>
      <point x="1779" y="513" type="curve" smooth="yes"/>
      <point x="1684" y="513"/>
      <point x="1638" y="417"/>
      <point x="1601" y="323" type="curve"/>
      <point x="1580" y="334"/>
      <point x="1559" y="345"/>
      <point x="1525" y="345" type="curve" smooth="yes"/>
      <point x="1456" y="345"/>
      <point x="1387" y="288"/>
      <point x="1318" y="154" type="curve"/>
      <point x="1235" y="148"/>
      <point x="1070" y="131"/>
      <point x="702" y="131" type="curve" smooth="yes"/>
      <point x="323" y="131"/>
      <point x="168" y="141"/>
      <point x="78" y="149" type="curve"/>
      <point x="67" y="141" type="line"/>
      <point x="62" y="123"/>
      <point x="60" y="101"/>
      <point x="60" y="87" type="curve" smooth="yes"/>
      <point x="60" y="52"/>
      <point x="68" y="14"/>
      <point x="149" y="5" type="curve" smooth="yes"/>
      <point x="225" y="-3"/>
      <point x="418" y="-9"/>
      <point x="663" y="-9" type="curve" smooth="yes"/>
      <point x="963" y="-9"/>
      <point x="1229" y="13"/>
      <point x="1280" y="13" type="curve" smooth="yes"/>
      <point x="1298" y="13"/>
      <point x="1311" y="9"/>
      <point x="1334" y="-4" type="curve" smooth="yes"/>
      <point x="1350" y="-13"/>
      <point x="1360" y="-16"/>
      <point x="1370" y="-16" type="curve" smooth="yes"/>
      <point x="1412" y="-16"/>
      <point x="1454" y="54"/>
      <point x="1454" y="88" type="curve" smooth="yes"/>
      <point x="1454" y="112"/>
      <point x="1439" y="120"/>
      <point x="1395" y="143" type="curve" smooth="yes"/>
      <point x="1380" y="151"/>
      <point x="1373" y="158"/>
    </contour>
  </outline>
</glyph>
<glyph name="six_thousand_siyaq" format="2">
  <advance width="1989"/>
  <unicode hex="1EC91"/>
  <outline>
    <contour>
      <point x="1929" y="384" type="curve"/>
      <point x="1908" y="404" type="line"/>
      <point x="1832" y="319"/>
      <point x="1806" y="305"/>
      <point x="1727" y="305" type="curve" smooth="yes"/>
      <point x="1641" y="305"/>
      <point x="1593" y="346"/>
      <point x="1533" y="346" type="curve" smooth="yes"/>
      <point x="1455" y="346"/>
      <point x="1387" y="288"/>
      <point x="1318" y="154" type="curve"/>
      <point x="1235" y="148"/>
      <point x="1070" y="131"/>
      <point x="702" y="131" type="curve" smooth="yes"/>
      <point x="323" y="131"/>
      <point x="168" y="141"/>
      <point x="78" y="149" type="curve"/>
      <point x="67" y="141" type="line"/>
      <point x="62" y="123"/>
      <point x="60" y="101"/>
      <point x="60" y="87" type="curve" smooth="yes"/>
      <point x="60" y="52"/>
      <point x="68" y="14"/>
      <point x="149" y="5" type="curve" smooth="yes"/>
      <point x="225" y="-3"/>
      <point x="418" y="-9"/>
      <point x="663" y="-9" type="curve" smooth="yes"/>
      <point x="963" y="-9"/>
      <point x="1228" y="13"/>
      <point x="1280" y="13" type="curve" smooth="yes"/>
      <point x="1298" y="13"/>
      <point x="1313" y="8"/>
      <point x="1334" y="-4" type="curve" smooth="yes"/>
      <point x="1350" y="-13"/>
      <point x="1363" y="-16"/>
      <point x="1370" y="-16" type="curve" smooth="yes"/>
      <point x="1412" y="-16"/>
      <point x="1454" y="54"/>
      <point x="1454" y="88" type="curve" smooth="yes"/>
      <point x="1454" y="112"/>
      <point x="1439" y="120"/>
      <point x="1395" y="143" type="curve" smooth="yes"/>
      <point x="1380" y="151"/>
      <point x="1373" y="158"/>
      <point x="1373" y="169" type="curve" smooth="yes"/>
      <point x="1373" y="183"/>
      <point x="1378" y="195"/>
      <point x="1391" y="213" type="curve" smooth="yes"/>
      <point x="1414" y="245"/>
      <point x="1445" y="252"/>
      <point x="1470" y="252" type="curve" smooth="yes"/>
      <point x="1498" y="252"/>
      <point x="1523" y="244"/>
      <point x="1550" y="231" type="curve" smooth="yes"/>
      <point x="1589" y="212"/>
      <point x="1631" y="199"/>
      <point x="1673" y="199" type="curve" smooth="yes"/>
      <point x="1793" y="199"/>
      <point x="1842" y="266"/>
    </contour>
  </outline>
</glyph>
<glyph name="seven_thousand_siyaq" format="2">
  <advance width="1984"/>
  <unicode hex="1EC92"/>
  <outline>
    <contour>
      <point x="1741" y="352" type="curve" smooth="yes"/>
      <point x="1768" y="388"/>
      <point x="1790" y="406"/>
      <point x="1812" y="406" type="curve" smooth="yes"/>
      <point x="1858" y="406"/>
      <point x="1863" y="359"/>
      <point x="1863" y="321" type="curve" smooth="yes"/>
      <point x="1863" y="297"/>
      <point x="1859" y="262"/>
      <point x="1856" y="241" type="curve"/>
      <point x="1886" y="237" type="line"/>
      <point x="1911" y="304"/>
      <point x="1924" y="370"/>
      <point x="1924" y="406" type="curve" smooth="yes"/>
      <point x="1924" y="456"/>
      <point x="1906" y="515"/>
      <point x="1840" y="515" type="curve" smooth="yes"/>
      <point x="1816" y="515"/>
      <point x="1793" y="506"/>
      <point x="1767" y="471" type="curve" smooth="yes"/>
      <point x="1724" y="414"/>
      <point x="1695" y="355"/>
      <point x="1651" y="324" type="curve" smooth="yes"/>
      <point x="1628" y="308"/>
      <point x="1605" y="303"/>
      <point x="1576" y="303" type="curve" smooth="yes"/>
      <point x="1568" y="303"/>
      <point x="1557" y="304"/>
      <point x="1551" y="306" type="curve"/>
      <point x="1584" y="340"/>
      <point x="1606" y="364"/>
      <point x="1606" y="399" type="curve" smooth="yes"/>
      <point x="1606" y="454"/>
      <point x="1543" y="474"/>
      <point x="1494" y="474" type="curve" smooth="yes"/>
      <point x="1424" y="474"/>
      <point x="1365" y="439"/>
      <point x="1338" y="381" type="curve"/>
      <point x="1344" y="371" type="line"/>
      <point x="1349" y="372"/>
      <point x="1354" y="372"/>
      <point x="1358" y="372" type="curve" smooth="yes"/>
      <point x="1395" y="372"/>
      <point x="1416" y="347"/>
      <point x="1435" y="312" type="curve"/>
      <point x="1379" y="278"/>
      <point x="1336" y="216"/>
      <point x="1311" y="154" type="curve"/>
      <point x="1228" y="148"/>
      <point x="1070" y="131"/>
      <point x="702" y="131" type="curve" smooth="yes"/>
      <point x="323" y="131"/>
      <point x="168" y="141"/>
      <point x="78" y="149" type="curve"/>
      <point x="67" y="141" type="line"/>
      <point x="62" y="123"/>
      <point x="60" y="101"/>
      <point x="60" y="87" type="curve" smooth="yes"/>
      <point x="60" y="52"/>
      <point x="68" y="14"/>
      <point x="149" y="5" type="curve" smooth="yes"/>
      <point x="225" y="-3"/>
      <point x="418" y="-9"/>
      <point x="663" y="-9" type="curve" smooth="yes"/>
      <point x="963" y="-9"/>
      <point x="1238" y="13"/>
      <point x="1280" y="13" type="curve" smooth="yes"/>
      <point x="1298" y="13"/>
      <point x="1312" y="8"/>
      <point x="1334" y="-4" type="curve" smooth="yes"/>
      <point x="1351" y="-13"/>
      <point x="1360" y="-16"/>
      <point x="1370" y="-16" type="curve" smooth="yes"/>
      <point x="1412" y="-16"/>
      <point x="1454" y="54"/>
      <point x="1454" y="88" type="curve" smooth="yes"/>
      <point x="1454" y="112"/>
      <point x="1439" y="120"/>
      <point x="1395" y="143" type="curve" smooth="yes"/>
      <point x="1380" y="151"/>
      <point x="1373" y="158"/>
      <point x="1373" y="169" type="curve" smooth="yes"/>
      <point x="1373" y="173"/>
      <point x="1374" y="181"/>
      <point x="1379" y="190" type="curve" smooth="yes"/>
      <point x="1395" y="218"/>
      <point x="1419" y="238"/>
      <point x="1465" y="256" type="curve"/>
      <point x="1483" y="234"/>
      <point x="1519" y="217"/>
      <point x="1554" y="217" type="curve" smooth="yes"/>
      <point x="1626" y="217"/>
      <point x="1674" y="261"/>
    </contour>
  </outline>
</glyph>
<glyph name="eight_thousand_siyaq" format="2">
  <advance width="1997"/>
  <unicode hex="1EC93"/>
  <outline>
    <contour>
      <point x="1558" y="212" type="curve" smooth="yes"/>
      <point x="1636" y="212"/>
      <point x="1677" y="252"/>
      <point x="1750" y="353" type="curve" smooth="yes"/>
      <point x="1784" y="399"/>
      <point x="1806" y="406"/>
      <point x="1828" y="406" type="curve" smooth="yes"/>
      <point x="1874" y="406"/>
      <point x="1877" y="359"/>
      <point x="1877" y="321" type="curve" smooth="yes"/>
      <point x="1877" y="297"/>
      <point x="1873" y="262"/>
      <point x="1870" y="241" type="curve"/>
      <point x="1900" y="237" type="line"/>
      <point x="1925" y="304"/>
      <point x="1937" y="365"/>
      <point x="1937" y="409" type="curve" smooth="yes"/>
      <point x="1937" y="466"/>
      <point x="1915" y="515"/>
      <point x="1859" y="515" type="curve" smooth="yes"/>
      <point x="1836" y="515"/>
      <point x="1815" y="507"/>
      <point x="1791" y="476" type="curve" smooth="yes"/>
      <point x="1772" y="452"/>
      <point x="1756" y="428"/>
      <point x="1740" y="407" type="curve" smooth="yes"/>
      <point x="1704" y="360"/>
      <point x="1666" y="325"/>
      <point x="1590" y="325" type="curve" smooth="yes"/>
      <point x="1525" y="325"/>
      <point x="1469" y="356"/>
      <point x="1469" y="440" type="curve" smooth="yes"/>
      <point x="1469" y="442"/>
      <point x="1469" y="444"/>
      <point x="1470" y="456" type="curve"/>
      <point x="1449" y="459" type="line"/>
      <point x="1443" y="445"/>
      <point x="1436" y="420"/>
      <point x="1432" y="401" type="curve" smooth="yes"/>
      <point x="1422" y="352"/>
      <point x="1409" y="316"/>
      <point x="1395" y="293" type="curve" smooth="yes"/>
      <point x="1362" y="240"/>
      <point x="1320" y="203"/>
      <point x="1300" y="163" type="curve" smooth="yes"/>
      <point x="1295" y="153" type="line"/>
      <point x="1208" y="145"/>
      <point x="975" y="131"/>
      <point x="702" y="131" type="curve" smooth="yes"/>
      <point x="323" y="131"/>
      <point x="168" y="141"/>
      <point x="78" y="149" type="curve"/>
      <point x="67" y="141" type="line"/>
      <point x="62" y="123"/>
      <point x="60" y="101"/>
      <point x="60" y="87" type="curve" smooth="yes"/>
      <point x="60" y="52"/>
      <point x="68" y="14"/>
      <point x="149" y="5" type="curve" smooth="yes"/>
      <point x="225" y="-3"/>
      <point x="418" y="-9"/>
      <point x="663" y="-9" type="curve" smooth="yes"/>
      <point x="967" y="-9"/>
      <point x="1235" y="13"/>
      <point x="1280" y="13" type="curve" smooth="yes"/>
      <point x="1298" y="13"/>
      <point x="1312" y="8"/>
      <point x="1334" y="-4" type="curve" smooth="yes"/>
      <point x="1350" y="-13"/>
      <point x="1363" y="-16"/>
      <point x="1370" y="-16" type="curve" smooth="yes"/>
      <point x="1412" y="-16"/>
      <point x="1454" y="54"/>
      <point x="1454" y="87" type="curve" smooth="yes"/>
      <point x="1454" y="112"/>
      <point x="1439" y="129"/>
      <point x="1401" y="145" type="curve" smooth="yes"/>
      <point x="1385" y="152"/>
      <point x="1371" y="159"/>
      <point x="1371" y="174" type="curve" smooth="yes"/>
      <point x="1371" y="184"/>
      <point x="1374" y="192"/>
      <point x="1380" y="201" type="curve" smooth="yes"/>
      <point x="1403" y="237"/>
      <point x="1420" y="255"/>
      <point x="1435" y="291" type="curve"/>
      <point x="1454" y="244"/>
      <point x="1500" y="212"/>
    </contour>
  </outline>
</glyph>
<glyph name="nine_thousand_siyaq" format="2">
  <advance width="1881"/>
  <unicode hex="1EC94"/>
  <outline>
    <contour>
      <point x="1576" y="303" type="curve" smooth="yes"/>
      <point x="1568" y="303"/>
      <point x="1557" y="304"/>
      <point x="1551" y="306" type="curve"/>
      <point x="1584" y="340"/>
      <point x="1606" y="364"/>
      <point x="1606" y="399" type="curve" smooth="yes"/>
      <point x="1606" y="454"/>
      <point x="1543" y="474"/>
      <point x="1494" y="474" type="curve" smooth="yes"/>
      <point x="1424" y="474"/>
      <point x="1365" y="439"/>
      <point x="1338" y="381" type="curve"/>
      <point x="1344" y="371" type="line"/>
      <point x="1349" y="372"/>
      <point x="1354" y="372"/>
      <point x="1358" y="372" type="curve" smooth="yes"/>
      <point x="1395" y="372"/>
      <point x="1416" y="347"/>
      <point x="1435" y="312" type="curve"/>
      <point x="1379" y="278"/>
      <point x="1336" y="216"/>
      <point x="1311" y="154" type="curve"/>
      <point x="1228" y="148"/>
      <point x="1070" y="131"/>
      <point x="702" y="131" type="curve" smooth="yes"/>
      <point x="323" y="131"/>
      <point x="168" y="141"/>
      <point x="78" y="149" type="curve"/>
      <point x="67" y="141" type="line"/>
      <point x="62" y="123"/>
      <point x="60" y="101"/>
      <point x="60" y="87" type="curve" smooth="yes"/>
      <point x="60" y="52"/>
      <point x="68" y="14"/>
      <point x="149" y="5" type="curve" smooth="yes"/>
      <point x="225" y="-3"/>
      <point x="418" y="-9"/>
      <point x="663" y="-9" type="curve" smooth="yes"/>
      <point x="963" y="-9"/>
      <point x="1239" y="13"/>
      <point x="1280" y="13" type="curve" smooth="yes"/>
      <point x="1298" y="13"/>
      <point x="1312" y="8"/>
      <point x="1334" y="-4" type="curve" smooth="yes"/>
      <point x="1351" y="-13"/>
      <point x="1360" y="-16"/>
      <point x="1370" y="-16" type="curve" smooth="yes"/>
      <point x="1412" y="-16"/>
      <point x="1454" y="54"/>
      <point x="1454" y="88" type="curve" smooth="yes"/>
      <point x="1454" y="112"/>
      <point x="1439" y="120"/>
      <point x="1395" y="143" type="curve" smooth="yes"/>
      <point x="1380" y="151"/>
      <point x="1373" y="158"/>
      <point x="1373" y="169" type="curve" smooth="yes"/>
      <point x="1373" y="173"/>
      <point x="1374" y="181"/>
      <point x="1379" y="190" type="curve" smooth="yes"/>
      <point x="1395" y="218"/>
      <point x="1419" y="238"/>
      <point x="1465" y="256" type="curve"/>
      <point x="1483" y="234"/>
      <point x="1519" y="217"/>
      <point x="1554" y="217" type="curve" smooth="yes"/>
      <point x="1684" y="217"/>
      <point x="1760" y="346"/>
      <point x="1785" y="468" type="curve" smooth="yes"/>
      <point x="1799" y="537"/>
      <point x="1807" y="634"/>
      <point x="1810" y="705" type="curve" smooth="yes"/>
      <point x="1811" y="729" type="line" smooth="yes"/>
      <point x="1813" y="784"/>
      <point x="1815" y="819"/>
      <point x="1821" y="843" type="curve"/>
      <point x="1800" y="848" type="line"/>
      <point x="1774" y="797"/>
      <point x="1751" y="749"/>
      <point x="1742" y="689" type="curve" smooth="yes"/>
      <point x="1737" y="654"/>
      <point x="1736" y="607"/>
      <point x="1736" y="570" type="curve" smooth="yes"/>
      <point x="1736" y="527"/>
      <point x="1735" y="471"/>
      <point x="1733" y="453" type="curve" smooth="yes"/>
      <point x="1728" y="403"/>
      <point x="1703" y="359"/>
      <point x="1656" y="327" type="curve" smooth="yes"/>
      <point x="1635" y="312"/>
      <point x="1608" y="303"/>
    </contour>
  </outline>
</glyph>
<glyph name="ten_thousand_siyaq" format="2">
  <advance width="1989"/>
  <unicode hex="1EC95"/>
  <outline>
    <contour>
      <point x="663" y="-9" type="curve"/>
      <point x="883" y="-9" type="line" smooth="yes"/>
      <point x="1218" y="-9"/>
      <point x="1512" y="5"/>
      <point x="1643" y="48" type="curve" smooth="yes"/>
      <point x="1804" y="101"/>
      <point x="1863" y="163"/>
      <point x="1929" y="271" type="curve"/>
      <point x="1908" y="283" type="line"/>
      <point x="1865" y="235"/>
      <point x="1828" y="203"/>
      <point x="1758" y="203" type="curve" smooth="yes"/>
      <point x="1720" y="203"/>
      <point x="1673" y="222"/>
      <point x="1673" y="271" type="curve" smooth="yes"/>
      <point x="1673" y="291"/>
      <point x="1683" y="313"/>
      <point x="1701" y="328" type="curve" smooth="yes"/>
      <point x="1724" y="347"/>
      <point x="1755" y="358"/>
      <point x="1785" y="358" type="curve" smooth="yes"/>
      <point x="1808" y="358"/>
      <point x="1832" y="351"/>
      <point x="1850" y="335" type="curve"/>
      <point x="1858" y="334" type="line"/>
      <point x="1879" y="345"/>
      <point x="1886" y="365"/>
      <point x="1886" y="382" type="curve" smooth="yes"/>
      <point x="1886" y="422"/>
      <point x="1851" y="440"/>
      <point x="1818" y="440" type="curve" smooth="yes"/>
      <point x="1751" y="440"/>
      <point x="1699" y="388"/>
      <point x="1644" y="325" type="curve" smooth="yes"/>
      <point x="1611" y="287"/>
      <point x="1571" y="230"/>
      <point x="1571" y="182" type="curve" smooth="yes"/>
      <point x="1571" y="171"/>
      <point x="1573" y="165"/>
      <point x="1576" y="156" type="curve"/>
      <point x="1429" y="141"/>
      <point x="1071" y="131"/>
      <point x="915" y="131" type="curve" smooth="yes"/>
      <point x="609" y="131"/>
      <point x="321" y="134"/>
      <point x="78" y="149" type="curve"/>
      <point x="67" y="141" type="line"/>
      <point x="62" y="123"/>
      <point x="60" y="101"/>
      <point x="60" y="87" type="curve" smooth="yes"/>
      <point x="60" y="52"/>
      <point x="68" y="14"/>
      <point x="149" y="5" type="curve" smooth="yes"/>
      <point x="225" y="-3"/>
      <point x="418" y="-9"/>
    </contour>
  </outline>
</glyph>
<glyph name="twenty_thousand_siyaq" format="2">
  <advance width="2088"/>
  <unicode hex="1EC96"/>
  <outline>
    <contour>
      <point x="663" y="-9" type="curve" smooth="yes"/>
      <point x="783" y="-9" type="line" smooth="yes"/>
      <point x="1209" y="-9"/>
      <point x="1426" y="6"/>
      <point x="1509" y="163" type="curve"/>
      <point x="1514" y="95"/>
      <point x="1556" y="23"/>
      <point x="1673" y="23" type="curve" smooth="yes"/>
      <point x="1842" y="23"/>
      <point x="1962" y="154"/>
      <point x="2028" y="262" type="curve"/>
      <point x="2006" y="274" type="line"/>
      <point x="1961" y="222"/>
      <point x="1921" y="194"/>
      <point x="1856" y="194" type="curve" smooth="yes"/>
      <point x="1818" y="194"/>
      <point x="1771" y="213"/>
      <point x="1771" y="262" type="curve" smooth="yes"/>
      <point x="1771" y="282"/>
      <point x="1781" y="304"/>
      <point x="1799" y="319" type="curve" smooth="yes"/>
      <point x="1822" y="338"/>
      <point x="1853" y="349"/>
      <point x="1883" y="349" type="curve" smooth="yes"/>
      <point x="1906" y="349"/>
      <point x="1930" y="342"/>
      <point x="1948" y="326" type="curve"/>
      <point x="1956" y="325" type="line"/>
      <point x="1977" y="336"/>
      <point x="1984" y="356"/>
      <point x="1984" y="373" type="curve" smooth="yes"/>
      <point x="1984" y="413"/>
      <point x="1949" y="431"/>
      <point x="1916" y="431" type="curve" smooth="yes"/>
      <point x="1849" y="431"/>
      <point x="1797" y="379"/>
      <point x="1742" y="316" type="curve" smooth="yes"/>
      <point x="1709" y="278"/>
      <point x="1669" y="216"/>
      <point x="1669" y="168" type="curve" smooth="yes"/>
      <point x="1669" y="161"/>
      <point x="1670" y="156"/>
      <point x="1671" y="152" type="curve"/>
      <point x="1596" y="154"/>
      <point x="1550" y="190"/>
      <point x="1550" y="262" type="curve" smooth="yes"/>
      <point x="1550" y="265"/>
      <point x="1550" y="276"/>
      <point x="1551" y="283" type="curve"/>
      <point x="1527" y="287" type="line"/>
      <point x="1485" y="142"/>
      <point x="1427" y="131"/>
      <point x="925" y="131" type="curve" smooth="yes"/>
      <point x="815" y="131" type="line" smooth="yes"/>
      <point x="509" y="131"/>
      <point x="321" y="134"/>
      <point x="78" y="149" type="curve"/>
      <point x="67" y="141" type="line"/>
      <point x="62" y="123"/>
      <point x="60" y="101"/>
      <point x="60" y="87" type="curve" smooth="yes"/>
      <point x="60" y="52"/>
      <point x="68" y="14"/>
      <point x="149" y="5" type="curve" smooth="yes"/>
      <point x="225" y="-3"/>
      <point x="418" y="-9"/>
    </contour>
  </outline>
</glyph>
<glyph name="thirty_thousand_siyaq" format="2">
  <advance width="1905"/>
  <unicode hex="1EC97"/>
  <outline>
    <contour>
      <point x="831" y="-9" type="line" smooth="yes"/>
      <point x="1257" y="-9"/>
      <point x="1449" y="19"/>
      <point x="1532" y="176" type="curve"/>
      <point x="1537" y="54"/>
      <point x="1595" y="23"/>
      <point x="1661" y="23" type="curve" smooth="yes"/>
      <point x="1752" y="23"/>
      <point x="1824" y="118"/>
      <point x="1845" y="294" type="curve"/>
      <point x="1820" y="298" type="line"/>
      <point x="1792" y="190"/>
      <point x="1749" y="146"/>
      <point x="1673" y="146" type="curve" smooth="yes"/>
      <point x="1640" y="146"/>
      <point x="1571" y="155"/>
      <point x="1571" y="259" type="curve" smooth="yes"/>
      <point x="1571" y="262"/>
      <point x="1572" y="274"/>
      <point x="1574" y="287" type="curve"/>
      <point x="1550" y="291" type="line"/>
      <point x="1519" y="152"/>
      <point x="1393" y="131"/>
      <point x="943" y="131" type="curve" smooth="yes"/>
      <point x="815" y="131" type="line" smooth="yes"/>
      <point x="509" y="131"/>
      <point x="321" y="134"/>
      <point x="78" y="149" type="curve"/>
      <point x="67" y="141" type="line"/>
      <point x="62" y="123"/>
      <point x="60" y="101"/>
      <point x="60" y="87" type="curve" smooth="yes"/>
      <point x="60" y="52"/>
      <point x="68" y="14"/>
      <point x="149" y="5" type="curve" smooth="yes"/>
      <point x="225" y="-3"/>
      <point x="418" y="-9"/>
      <point x="663" y="-9" type="curve" smooth="yes"/>
    </contour>
  </outline>
</glyph>
<glyph name="forty_thousand_siyaq" format="2">
  <advance width="2135"/>
  <unicode hex="1EC98"/>
  <outline>
    <contour>
      <point x="663" y="-9" type="curve"/>
      <point x="885" y="-9" type="line" smooth="yes"/>
      <point x="1248" y="-9"/>
      <point x="1391" y="23"/>
      <point x="1460" y="47" type="curve" smooth="yes"/>
      <point x="1577" y="87"/>
      <point x="1640" y="171"/>
      <point x="1647" y="272" type="curve"/>
      <point x="1685" y="303"/>
      <point x="1724" y="345"/>
      <point x="1741" y="394" type="curve"/>
      <point x="1750" y="296"/>
      <point x="1790" y="243"/>
      <point x="1860" y="243" type="curve" smooth="yes"/>
      <point x="1948" y="243"/>
      <point x="1999" y="360"/>
      <point x="2021" y="442" type="curve" smooth="yes"/>
      <point x="2044" y="528"/>
      <point x="2055" y="632"/>
      <point x="2059" y="708" type="curve" smooth="yes"/>
      <point x="2065" y="830" type="line" smooth="yes"/>
      <point x="2067" y="876"/>
      <point x="2069" y="913"/>
      <point x="2075" y="937" type="curve"/>
      <point x="2052" y="942" type="line"/>
      <point x="2018" y="871"/>
      <point x="2011" y="842"/>
      <point x="2005" y="807" type="curve" smooth="yes"/>
      <point x="2000" y="775"/>
      <point x="1997" y="743"/>
      <point x="1996" y="703" type="curve" smooth="yes"/>
      <point x="1994" y="604" type="line" smooth="yes"/>
      <point x="1993" y="534"/>
      <point x="1991" y="511"/>
      <point x="1986" y="490" type="curve" smooth="yes"/>
      <point x="1972" y="426"/>
      <point x="1935" y="401"/>
      <point x="1897" y="401" type="curve" smooth="yes"/>
      <point x="1815" y="401"/>
      <point x="1807" y="480"/>
      <point x="1807" y="584" type="curve" smooth="yes"/>
      <point x="1807" y="768"/>
      <point x="1817" y="821"/>
      <point x="1826" y="867" type="curve"/>
      <point x="1803" y="871" type="line"/>
      <point x="1768" y="795"/>
      <point x="1761" y="744"/>
      <point x="1754" y="678" type="curve" smooth="yes"/>
      <point x="1752" y="661"/>
      <point x="1748" y="618"/>
      <point x="1745" y="570" type="curve" smooth="yes"/>
      <point x="1740" y="484"/>
      <point x="1709" y="390"/>
      <point x="1643" y="353" type="curve"/>
      <point x="1633" y="410"/>
      <point x="1604" y="463"/>
      <point x="1543" y="463" type="curve" smooth="yes"/>
      <point x="1515" y="463"/>
      <point x="1495" y="448"/>
      <point x="1481" y="419" type="curve" smooth="yes"/>
      <point x="1451" y="359" type="line" smooth="yes"/>
      <point x="1437" y="332"/>
      <point x="1433" y="308"/>
      <point x="1433" y="291" type="curve" smooth="yes"/>
      <point x="1433" y="245"/>
      <point x="1474" y="221"/>
      <point x="1513" y="221" type="curve" smooth="yes"/>
      <point x="1538" y="221"/>
      <point x="1562" y="227"/>
      <point x="1588" y="239" type="curve"/>
      <point x="1590" y="234"/>
      <point x="1591" y="227"/>
      <point x="1591" y="222" type="curve" smooth="yes"/>
      <point x="1591" y="195"/>
      <point x="1544" y="179"/>
      <point x="1496" y="168" type="curve" smooth="yes"/>
      <point x="1415" y="149"/>
      <point x="1177" y="135"/>
      <point x="891" y="135" type="curve" smooth="yes"/>
      <point x="585" y="135"/>
      <point x="315" y="135"/>
      <point x="78" y="149" type="curve"/>
      <point x="67" y="141" type="line"/>
      <point x="62" y="123"/>
      <point x="60" y="101"/>
      <point x="60" y="87" type="curve" smooth="yes"/>
      <point x="60" y="52"/>
      <point x="68" y="14"/>
      <point x="149" y="5" type="curve" smooth="yes"/>
      <point x="225" y="-3"/>
      <point x="418" y="-9"/>
    </contour>
  </outline>
</glyph>
<glyph name="fifty_thousand_siyaq" format="2">
  <advance width="1987"/>
  <unicode hex="1EC99"/>
  <outline>
    <contour>
      <point x="915" y="131" type="curve" smooth="yes"/>
      <point x="609" y="131"/>
      <point x="321" y="134"/>
      <point x="78" y="149" type="curve"/>
      <point x="67" y="141" type="line"/>
      <point x="62" y="123"/>
      <point x="60" y="101"/>
      <point x="60" y="87" type="curve" smooth="yes"/>
      <point x="60" y="52"/>
      <point x="68" y="14"/>
      <point x="149" y="5" type="curve" smooth="yes"/>
      <point x="225" y="-3"/>
      <point x="418" y="-9"/>
      <point x="663" y="-9" type="curve" smooth="yes"/>
      <point x="883" y="-9" type="line" smooth="yes"/>
      <point x="1115" y="-9"/>
      <point x="1307" y="-2"/>
      <point x="1459" y="16" type="curve" smooth="yes"/>
      <point x="1652" y="39"/>
      <point x="1735" y="84"/>
      <point x="1820" y="195" type="curve" smooth="yes"/>
      <point x="1858" y="245"/>
      <point x="1895" y="298"/>
      <point x="1927" y="348" type="curve"/>
      <point x="1924" y="361" type="line"/>
      <point x="1905" y="365"/>
      <point x="1873" y="375"/>
      <point x="1826" y="392" type="curve" smooth="yes"/>
      <point x="1777" y="410"/>
      <point x="1739" y="419"/>
      <point x="1698" y="419" type="curve" smooth="yes"/>
      <point x="1643" y="419"/>
      <point x="1605" y="392"/>
      <point x="1568" y="334" type="curve" smooth="yes"/>
      <point x="1535" y="282"/>
      <point x="1504" y="207"/>
      <point x="1496" y="148" type="curve"/>
      <point x="1333" y="133"/>
      <point x="1047" y="131"/>
    </contour>
    <contour>
      <point x="1529" y="152" type="curve"/>
      <point x="1546" y="225"/>
      <point x="1573" y="269"/>
      <point x="1607" y="296" type="curve" smooth="yes"/>
      <point x="1626" y="311"/>
      <point x="1655" y="317"/>
      <point x="1680" y="317" type="curve" smooth="yes"/>
      <point x="1716" y="317"/>
      <point x="1751" y="307"/>
      <point x="1786" y="296" type="curve" smooth="yes"/>
      <point x="1833" y="281" type="line"/>
      <point x="1779" y="206"/>
      <point x="1676" y="165"/>
    </contour>
  </outline>
</glyph>
<glyph name="sixty_thousand_siyaq" format="2">
  <advance width="1922"/>
  <unicode hex="1EC9A"/>
  <outline>
    <contour>
      <point x="979" y="131" type="curve" smooth="yes"/>
      <point x="673" y="131"/>
      <point x="321" y="134"/>
      <point x="78" y="149" type="curve"/>
      <point x="67" y="141" type="line"/>
      <point x="62" y="123"/>
      <point x="60" y="101"/>
      <point x="60" y="87" type="curve" smooth="yes"/>
      <point x="60" y="52"/>
      <point x="68" y="14"/>
      <point x="149" y="5" type="curve" smooth="yes"/>
      <point x="225" y="-3"/>
      <point x="418" y="-9"/>
      <point x="663" y="-9" type="curve" smooth="yes"/>
      <point x="883" y="-9" type="line" smooth="yes"/>
      <point x="1315" y="-9"/>
      <point x="1488" y="6"/>
      <point x="1594" y="23" type="curve"/>
      <point x="1655" y="35"/>
      <point x="1838" y="125"/>
      <point x="1862" y="160" type="curve"/>
      <point x="1852" y="167" type="line"/>
      <point x="1659" y="147"/>
      <point x="1391" y="131"/>
    </contour>
  </outline>
</glyph>
<glyph name="seventy_thousand_siyaq" format="2">
  <advance width="2024"/>
  <unicode hex="1EC9B"/>
  <outline>
    <contour>
      <point x="663" y="-9" type="curve"/>
      <point x="915" y="-9" type="line" smooth="yes"/>
      <point x="1219" y="-9"/>
      <point x="1450" y="16"/>
      <point x="1520" y="37" type="curve" smooth="yes"/>
      <point x="1637" y="73"/>
      <point x="1700" y="160"/>
      <point x="1707" y="264" type="curve"/>
      <point x="1726" y="280"/>
      <point x="1743" y="296"/>
      <point x="1763" y="316" type="curve" smooth="yes"/>
      <point x="1799" y="352" type="line"/>
      <point x="1835" y="388"/>
      <point x="1848" y="396"/>
      <point x="1870" y="396" type="curve" smooth="yes"/>
      <point x="1916" y="396"/>
      <point x="1922" y="333"/>
      <point x="1922" y="295" type="curve" smooth="yes"/>
      <point x="1922" y="271"/>
      <point x="1919" y="235"/>
      <point x="1916" y="214" type="curve"/>
      <point x="1946" y="211" type="line"/>
      <point x="1971" y="278"/>
      <point x="1984" y="339"/>
      <point x="1984" y="391" type="curve" smooth="yes"/>
      <point x="1984" y="450"/>
      <point x="1964" y="505"/>
      <point x="1898" y="505" type="curve" smooth="yes"/>
      <point x="1874" y="505"/>
      <point x="1854" y="490"/>
      <point x="1826" y="457" type="curve" smooth="yes"/>
      <point x="1790" y="415"/>
      <point x="1750" y="361"/>
      <point x="1705" y="332" type="curve"/>
      <point x="1697" y="412"/>
      <point x="1658" y="453"/>
      <point x="1603" y="453" type="curve" smooth="yes"/>
      <point x="1575" y="453"/>
      <point x="1555" y="438"/>
      <point x="1541" y="409" type="curve" smooth="yes"/>
      <point x="1511" y="349" type="line" smooth="yes"/>
      <point x="1497" y="322"/>
      <point x="1493" y="298"/>
      <point x="1493" y="281" type="curve" smooth="yes"/>
      <point x="1493" y="235"/>
      <point x="1534" y="211"/>
      <point x="1573" y="211" type="curve" smooth="yes"/>
      <point x="1596" y="211"/>
      <point x="1621" y="216"/>
      <point x="1648" y="229" type="curve"/>
      <point x="1650" y="224"/>
      <point x="1651" y="217"/>
      <point x="1651" y="212" type="curve" smooth="yes"/>
      <point x="1651" y="185"/>
      <point x="1619" y="168"/>
      <point x="1556" y="158" type="curve" smooth="yes"/>
      <point x="1493" y="148"/>
      <point x="1197" y="131"/>
      <point x="911" y="131" type="curve" smooth="yes"/>
      <point x="605" y="131"/>
      <point x="321" y="134"/>
      <point x="78" y="149" type="curve"/>
      <point x="67" y="141" type="line"/>
      <point x="62" y="123"/>
      <point x="60" y="101"/>
      <point x="60" y="87" type="curve" smooth="yes"/>
      <point x="60" y="52"/>
      <point x="68" y="14"/>
      <point x="149" y="5" type="curve" smooth="yes"/>
      <point x="225" y="-3"/>
      <point x="418" y="-9"/>
    </contour>
  </outline>
</glyph>
<glyph name="eighty_thousand_siyaq" format="2">
  <advance width="1766"/>
  <unicode hex="1EC9C"/>
  <outline>
    <contour>
      <point x="663" y="-9" type="curve"/>
      <point x="915" y="-9" type="line" smooth="yes"/>
      <point x="1219" y="-9"/>
      <point x="1380" y="12"/>
      <point x="1450" y="33" type="curve" smooth="yes"/>
      <point x="1539" y="60"/>
      <point x="1594" y="117"/>
      <point x="1622" y="188" type="curve" smooth="yes"/>
      <point x="1655" y="272"/>
      <point x="1676" y="351"/>
      <point x="1684" y="520" type="curve" smooth="yes"/>
      <point x="1694" y="728" type="line" smooth="yes"/>
      <point x="1697" y="786"/>
      <point x="1700" y="833"/>
      <point x="1706" y="859" type="curve"/>
      <point x="1685" y="867" type="line"/>
      <point x="1647" y="778"/>
      <point x="1638" y="739"/>
      <point x="1629" y="699" type="curve" smooth="yes"/>
      <point x="1620" y="659"/>
      <point x="1616" y="621"/>
      <point x="1614" y="571" type="curve" smooth="yes"/>
      <point x="1608" y="380"/>
      <point x="1601" y="285"/>
      <point x="1598" y="263" type="curve" smooth="yes"/>
      <point x="1593" y="230"/>
      <point x="1585" y="201"/>
      <point x="1571" y="185" type="curve" smooth="yes"/>
      <point x="1557" y="170"/>
      <point x="1530" y="161"/>
      <point x="1486" y="154" type="curve" smooth="yes"/>
      <point x="1423" y="144"/>
      <point x="1197" y="131"/>
      <point x="911" y="131" type="curve" smooth="yes"/>
      <point x="605" y="131"/>
      <point x="321" y="134"/>
      <point x="78" y="149" type="curve"/>
      <point x="67" y="141" type="line"/>
      <point x="62" y="123"/>
      <point x="60" y="101"/>
      <point x="60" y="87" type="curve" smooth="yes"/>
      <point x="60" y="52"/>
      <point x="68" y="14"/>
      <point x="149" y="5" type="curve" smooth="yes"/>
      <point x="225" y="-3"/>
      <point x="418" y="-9"/>
    </contour>
  </outline>
</glyph>
<glyph name="ninety_thousand_siyaq" format="2">
  <advance width="1867"/>
  <unicode hex="1EC9D"/>
  <outline>
    <contour>
      <point x="1647" y="272" type="curve"/>
      <point x="1714" y="330"/>
      <point x="1751" y="395"/>
      <point x="1771" y="492" type="curve" smooth="yes"/>
      <point x="1785" y="561"/>
      <point x="1793" y="658"/>
      <point x="1796" y="729" type="curve" smooth="yes"/>
      <point x="1799" y="813"/>
      <point x="1801" y="843"/>
      <point x="1807" y="867" type="curve"/>
      <point x="1786" y="872" type="line"/>
      <point x="1760" y="821"/>
      <point x="1737" y="773"/>
      <point x="1728" y="713" type="curve" smooth="yes"/>
      <point x="1723" y="678"/>
      <point x="1722" y="631"/>
      <point x="1722" y="594" type="curve" smooth="yes"/>
      <point x="1722" y="551"/>
      <point x="1721" y="495"/>
      <point x="1719" y="477" type="curve" smooth="yes"/>
      <point x="1714" y="427"/>
      <point x="1691" y="384"/>
      <point x="1643" y="353" type="curve"/>
      <point x="1633" y="410"/>
      <point x="1604" y="463"/>
      <point x="1543" y="463" type="curve" smooth="yes"/>
      <point x="1515" y="463"/>
      <point x="1495" y="448"/>
      <point x="1481" y="419" type="curve" smooth="yes"/>
      <point x="1451" y="359" type="line" smooth="yes"/>
      <point x="1438" y="332"/>
      <point x="1433" y="308"/>
      <point x="1433" y="291" type="curve" smooth="yes"/>
      <point x="1433" y="245"/>
      <point x="1474" y="221"/>
      <point x="1513" y="221" type="curve" smooth="yes"/>
      <point x="1538" y="221"/>
      <point x="1562" y="227"/>
      <point x="1588" y="239" type="curve"/>
      <point x="1590" y="234"/>
      <point x="1591" y="227"/>
      <point x="1591" y="222" type="curve" smooth="yes"/>
      <point x="1591" y="195"/>
      <point x="1544" y="179"/>
      <point x="1496" y="168" type="curve" smooth="yes"/>
      <point x="1415" y="149"/>
      <point x="1177" y="135"/>
      <point x="891" y="135" type="curve" smooth="yes"/>
      <point x="585" y="135"/>
      <point x="314" y="135"/>
      <point x="78" y="149" type="curve"/>
      <point x="67" y="141" type="line"/>
      <point x="62" y="123"/>
      <point x="60" y="101"/>
      <point x="60" y="87" type="curve" smooth="yes"/>
      <point x="60" y="52"/>
      <point x="68" y="14"/>
      <point x="149" y="5" type="curve" smooth="yes"/>
      <point x="225" y="-3"/>
      <point x="418" y="-9"/>
      <point x="663" y="-9" type="curve" smooth="yes"/>
      <point x="885" y="-9" type="line" smooth="yes"/>
      <point x="1248" y="-9"/>
      <point x="1391" y="23"/>
      <point x="1460" y="47" type="curve" smooth="yes"/>
      <point x="1577" y="87"/>
      <point x="1640" y="171"/>
    </contour>
  </outline>
</glyph>
<glyph name="lakh_siyaq" format="2">
  <advance width="1192"/>
  <unicode hex="1EC9E"/>
  <outline>
    <contour>
      <point x="556" y="-31" type="curve"/>
      <point x="528" y="-23" type="line"/>
      <point x="496" y="-87"/>
      <point x="473" y="-158"/>
      <point x="473" y="-201" type="curve" smooth="yes"/>
      <point x="473" y="-244"/>
      <point x="490" y="-275"/>
      <point x="527" y="-275" type="curve" smooth="yes"/>
      <point x="555" y="-275"/>
      <point x="573" y="-259"/>
      <point x="585" y="-241" type="curve" smooth="yes"/>
      <point x="594" y="-228"/>
      <point x="600" y="-212"/>
      <point x="600" y="-197" type="curve" smooth="yes"/>
      <point x="600" y="-178"/>
      <point x="590" y="-161"/>
      <point x="570" y="-161" type="curve" smooth="yes"/>
      <point x="566" y="-161"/>
      <point x="560" y="-162"/>
      <point x="558" y="-164" type="curve" smooth="yes"/>
      <point x="536" y="-196" type="line"/>
      <point x="525" y="-193"/>
      <point x="525" y="-177"/>
      <point x="525" y="-162" type="curve" smooth="yes"/>
      <point x="525" y="-122"/>
      <point x="545" y="-58"/>
    </contour>
    <contour>
      <point x="751" y="239" type="curve"/>
      <point x="757" y="142"/>
      <point x="784" y="65"/>
      <point x="878" y="65" type="curve" smooth="yes"/>
      <point x="984" y="65"/>
      <point x="1037" y="175"/>
      <point x="1067" y="273" type="curve" smooth="yes"/>
      <point x="1095" y="365"/>
      <point x="1105" y="454"/>
      <point x="1109" y="550" type="curve" smooth="yes"/>
      <point x="1113" y="637"/>
      <point x="1112" y="695"/>
      <point x="1121" y="739" type="curve"/>
      <point x="1100" y="746" type="line"/>
      <point x="1068" y="678"/>
      <point x="1060" y="651"/>
      <point x="1051" y="620" type="curve" smooth="yes"/>
      <point x="1043" y="591"/>
      <point x="1041" y="560"/>
      <point x="1040" y="523" type="curve" smooth="yes"/>
      <point x="1038" y="424" type="line" smooth="yes"/>
      <point x="1037" y="382"/>
      <point x="1035" y="342"/>
      <point x="1031" y="320" type="curve" smooth="yes"/>
      <point x="1016" y="246"/>
      <point x="980" y="223"/>
      <point x="927" y="223" type="curve" smooth="yes"/>
      <point x="844" y="223"/>
      <point x="826" y="301"/>
      <point x="826" y="405" type="curve" smooth="yes"/>
      <point x="826" y="442"/>
      <point x="829" y="540"/>
      <point x="837" y="610" type="curve" smooth="yes"/>
      <point x="840" y="635"/>
      <point x="844" y="653"/>
      <point x="849" y="666" type="curve" smooth="yes"/>
      <point x="858" y="689"/>
      <point x="875" y="704"/>
      <point x="889" y="715" type="curve" smooth="yes"/>
      <point x="906" y="728"/>
      <point x="932" y="742"/>
      <point x="1059" y="800" type="curve" smooth="yes"/>
      <point x="1153" y="843"/>
      <point x="1243" y="886"/>
      <point x="1307" y="929" type="curve"/>
      <point x="1338" y="959"/>
      <point x="1370" y="1003"/>
      <point x="1376" y="1023" type="curve"/>
      <point x="1369" y="1030" type="line"/>
      <point x="1347" y="1019"/>
      <point x="1319" y="1004"/>
      <point x="1301" y="994" type="curve" smooth="yes"/>
      <point x="1242" y="960"/>
      <point x="1172" y="927"/>
      <point x="1108" y="894" type="curve" smooth="yes"/>
      <point x="1014" y="845" type="line" smooth="yes"/>
      <point x="939" y="806"/>
      <point x="911" y="788"/>
      <point x="867" y="748" type="curve" smooth="yes"/>
      <point x="843" y="727"/>
      <point x="826" y="710"/>
      <point x="800" y="647" type="curve" smooth="yes"/>
      <point x="787" y="616"/>
      <point x="773" y="567"/>
      <point x="765" y="476" type="curve" smooth="yes"/>
      <point x="755" y="363" type="line" smooth="yes"/>
      <point x="751" y="320"/>
      <point x="739" y="295"/>
      <point x="708" y="255" type="curve" smooth="yes"/>
      <point x="695" y="238"/>
      <point x="682" y="221"/>
      <point x="666" y="194" type="curve"/>
      <point x="664" y="249"/>
      <point x="643" y="282"/>
      <point x="595" y="282" type="curve" smooth="yes"/>
      <point x="576" y="282"/>
      <point x="562" y="278"/>
      <point x="547" y="266" type="curve" smooth="yes"/>
      <point x="527" y="250"/>
      <point x="510" y="230"/>
      <point x="484" y="202" type="curve" smooth="yes"/>
      <point x="445" y="159"/>
      <point x="428" y="142"/>
      <point x="381" y="142" type="curve" smooth="yes"/>
      <point x="366" y="142"/>
      <point x="331" y="149"/>
      <point x="317" y="152" type="curve" smooth="yes"/>
      <point x="300" y="156"/>
      <point x="283" y="158"/>
      <point x="265" y="158" type="curve" smooth="yes"/>
      <point x="187" y="158"/>
      <point x="112" y="98"/>
      <point x="50" y="-59" type="curve"/>
      <point x="70" y="-68" type="line"/>
      <point x="112" y="-10"/>
      <point x="141" y="7"/>
      <point x="185" y="7" type="curve" smooth="yes"/>
      <point x="197" y="7"/>
      <point x="211" y="5"/>
      <point x="228" y="0" type="curve" smooth="yes"/>
      <point x="241" y="-4"/>
      <point x="261" y="-9"/>
      <point x="276" y="-9" type="curve" smooth="yes"/>
      <point x="340" y="-9"/>
      <point x="368" y="8"/>
      <point x="422" y="70" type="curve" smooth="yes"/>
      <point x="504" y="164"/>
      <point x="517" y="177"/>
      <point x="549" y="177" type="curve" smooth="yes"/>
      <point x="587" y="177"/>
      <point x="595" y="131"/>
      <point x="595" y="95" type="curve" smooth="yes"/>
      <point x="595" y="61"/>
      <point x="590" y="41"/>
      <point x="580" y="4" type="curve"/>
      <point x="609" y="-1" type="line"/>
      <point x="628" y="56"/>
      <point x="655" y="103"/>
      <point x="676" y="136" type="curve" smooth="yes"/>
      <point x="708" y="185"/>
      <point x="722" y="203"/>
    </contour>
  </outline>
</glyph>
<glyph name="lakhan_siyaq" format="2">
  <advance width="1658"/>
  <unicode hex="1EC9F"/>
  <outline>
    <contour>
      <point x="1022" y="-31" type="curve"/>
      <point x="994" y="-23" type="line"/>
      <point x="962" y="-87"/>
      <point x="939" y="-158"/>
      <point x="939" y="-201" type="curve" smooth="yes"/>
      <point x="939" y="-244"/>
      <point x="956" y="-275"/>
      <point x="993" y="-275" type="curve" smooth="yes"/>
      <point x="1021" y="-275"/>
      <point x="1039" y="-259"/>
      <point x="1051" y="-241" type="curve" smooth="yes"/>
      <point x="1060" y="-228"/>
      <point x="1066" y="-212"/>
      <point x="1066" y="-197" type="curve" smooth="yes"/>
      <point x="1066" y="-178"/>
      <point x="1056" y="-161"/>
      <point x="1036" y="-161" type="curve" smooth="yes"/>
      <point x="1032" y="-161"/>
      <point x="1026" y="-162"/>
      <point x="1024" y="-164" type="curve" smooth="yes"/>
      <point x="1002" y="-196" type="line"/>
      <point x="991" y="-193"/>
      <point x="991" y="-177"/>
      <point x="991" y="-162" type="curve" smooth="yes"/>
      <point x="991" y="-122"/>
      <point x="1011" y="-58"/>
    </contour>
    <contour>
      <point x="253" y="209" type="curve"/>
      <point x="253" y="201" type="line"/>
      <point x="268" y="188"/>
      <point x="297" y="162"/>
      <point x="310" y="149" type="curve"/>
      <point x="318" y="149" type="line"/>
      <point x="347" y="170"/>
      <point x="375" y="194"/>
      <point x="375" y="215" type="curve" smooth="yes"/>
      <point x="375" y="234"/>
      <point x="356" y="251"/>
      <point x="320" y="273" type="curve"/>
      <point x="313" y="273" type="line"/>
      <point x="304" y="268"/>
      <point x="270" y="232"/>
    </contour>
    <contour>
      <point x="1344" y="65" type="curve"/>
      <point x="1450" y="65"/>
      <point x="1503" y="175"/>
      <point x="1533" y="273" type="curve" smooth="yes"/>
      <point x="1561" y="365"/>
      <point x="1572" y="454"/>
      <point x="1575" y="550" type="curve" smooth="yes"/>
      <point x="1578" y="637"/>
      <point x="1578" y="695"/>
      <point x="1587" y="739" type="curve"/>
      <point x="1566" y="746" type="line"/>
      <point x="1534" y="678"/>
      <point x="1526" y="651"/>
      <point x="1517" y="620" type="curve" smooth="yes"/>
      <point x="1509" y="591"/>
      <point x="1507" y="560"/>
      <point x="1506" y="523" type="curve" smooth="yes"/>
      <point x="1504" y="424" type="line" smooth="yes"/>
      <point x="1503" y="382"/>
      <point x="1501" y="342"/>
      <point x="1497" y="320" type="curve" smooth="yes"/>
      <point x="1482" y="246"/>
      <point x="1446" y="223"/>
      <point x="1393" y="223" type="curve" smooth="yes"/>
      <point x="1310" y="223"/>
      <point x="1292" y="301"/>
      <point x="1292" y="405" type="curve" smooth="yes"/>
      <point x="1292" y="442"/>
      <point x="1295" y="540"/>
      <point x="1303" y="610" type="curve" smooth="yes"/>
      <point x="1306" y="635"/>
      <point x="1310" y="653"/>
      <point x="1315" y="666" type="curve" smooth="yes"/>
      <point x="1324" y="689"/>
      <point x="1341" y="704"/>
      <point x="1355" y="715" type="curve" smooth="yes"/>
      <point x="1372" y="728"/>
      <point x="1398" y="742"/>
      <point x="1525" y="800" type="curve" smooth="yes"/>
      <point x="1619" y="843"/>
      <point x="1709" y="886"/>
      <point x="1773" y="929" type="curve"/>
      <point x="1804" y="959"/>
      <point x="1836" y="1003"/>
      <point x="1842" y="1023" type="curve"/>
      <point x="1835" y="1030" type="line"/>
      <point x="1807" y="1016"/>
      <point x="1783" y="1003"/>
      <point x="1765" y="993" type="curve" smooth="yes"/>
      <point x="1703" y="959"/>
      <point x="1642" y="928"/>
      <point x="1577" y="895" type="curve" smooth="yes"/>
      <point x="1480" y="845" type="line" smooth="yes"/>
      <point x="1406" y="807"/>
      <point x="1377" y="788"/>
      <point x="1333" y="748" type="curve" smooth="yes"/>
      <point x="1309" y="727"/>
      <point x="1292" y="710"/>
      <point x="1266" y="647" type="curve" smooth="yes"/>
      <point x="1253" y="616"/>
      <point x="1239" y="567"/>
      <point x="1231" y="476" type="curve" smooth="yes"/>
      <point x="1222" y="371" type="line" smooth="yes"/>
      <point x="1218" y="328"/>
      <point x="1205" y="292"/>
      <point x="1174" y="255" type="curve" smooth="yes"/>
      <point x="1160" y="238"/>
      <point x="1148" y="221"/>
      <point x="1132" y="194" type="curve"/>
      <point x="1130" y="249"/>
      <point x="1109" y="282"/>
      <point x="1061" y="282" type="curve" smooth="yes"/>
      <point x="1023" y="282"/>
      <point x="1010" y="267"/>
      <point x="950" y="202" type="curve" smooth="yes"/>
      <point x="900" y="148"/>
      <point x="860" y="137"/>
      <point x="820" y="137" type="curve" smooth="yes"/>
      <point x="735" y="137"/>
      <point x="720" y="200"/>
      <point x="720" y="326" type="curve" smooth="yes"/>
      <point x="720" y="501"/>
      <point x="745" y="702"/>
      <point x="756" y="750" type="curve"/>
      <point x="736" y="758" type="line"/>
      <point x="694" y="663"/>
      <point x="683" y="600"/>
      <point x="673" y="518" type="curve" smooth="yes"/>
      <point x="653" y="348"/>
      <point x="649" y="210"/>
      <point x="649" y="182" type="curve" smooth="yes"/>
      <point x="649" y="48"/>
      <point x="688" y="-21"/>
      <point x="771" y="-21" type="curve" smooth="yes"/>
      <point x="836" y="-21"/>
      <point x="866" y="15"/>
      <point x="901" y="67" type="curve" smooth="yes"/>
      <point x="928" y="107" type="line" smooth="yes"/>
      <point x="970" y="169"/>
      <point x="988" y="177"/>
      <point x="1015" y="177" type="curve" smooth="yes"/>
      <point x="1053" y="177"/>
      <point x="1061" y="131"/>
      <point x="1061" y="95" type="curve" smooth="yes"/>
      <point x="1061" y="61"/>
      <point x="1056" y="41"/>
      <point x="1046" y="4" type="curve"/>
      <point x="1075" y="-1" type="line"/>
      <point x="1094" y="56"/>
      <point x="1121" y="103"/>
      <point x="1142" y="136" type="curve" smooth="yes"/>
      <point x="1174" y="185"/>
      <point x="1188" y="203"/>
      <point x="1217" y="239" type="curve"/>
      <point x="1223" y="142"/>
      <point x="1250" y="65"/>
    </contour>
    <contour>
      <point x="546" y="400" type="line"/>
      <point x="522" y="341"/>
      <point x="513" y="303"/>
      <point x="507" y="264" type="curve" smooth="yes"/>
      <point x="504" y="247"/>
      <point x="504" y="214"/>
      <point x="504" y="206" type="curve" smooth="yes"/>
      <point x="504" y="176"/>
      <point x="502" y="151"/>
      <point x="497" y="128" type="curve" smooth="yes"/>
      <point x="485" y="69"/>
      <point x="428" y="-34"/>
      <point x="270" y="-34" type="curve" smooth="yes"/>
      <point x="169" y="-34"/>
      <point x="116" y="12"/>
      <point x="116" y="105" type="curve" smooth="yes"/>
      <point x="116" y="144"/>
      <point x="124" y="188"/>
      <point x="152" y="249" type="curve"/>
      <point x="123" y="257" type="line"/>
      <point x="83" y="181"/>
      <point x="60" y="101"/>
      <point x="60" y="4" type="curve" smooth="yes"/>
      <point x="60" y="-121"/>
      <point x="122" y="-192"/>
      <point x="237" y="-192" type="curve" smooth="yes"/>
      <point x="394" y="-192"/>
      <point x="483" y="-62"/>
      <point x="532" y="93" type="curve" smooth="yes"/>
      <point x="552" y="156"/>
      <point x="562" y="220"/>
      <point x="563" y="269" type="curve" smooth="yes"/>
      <point x="564" y="325"/>
      <point x="564" y="370"/>
      <point x="569" y="395" type="curve"/>
    </contour>
  </outline>
</glyph>
<glyph name="lakh_mark_siyaq" format="2">
  <advance width="1253"/>
  <unicode hex="1ECA0"/>
  <outline>
    <contour>
      <point x="1435" y="977" type="curve"/>
      <point x="1428" y="984" type="line"/>
      <point x="1407" y="975"/>
      <point x="1379" y="959"/>
      <point x="1360" y="948" type="curve" smooth="yes"/>
      <point x="1298" y="914"/>
      <point x="1235" y="882"/>
      <point x="1170" y="849" type="curve" smooth="yes"/>
      <point x="1073" y="799" type="line" smooth="yes"/>
      <point x="1000" y="762"/>
      <point x="970" y="742"/>
      <point x="926" y="702" type="curve" smooth="yes"/>
      <point x="902" y="681"/>
      <point x="885" y="664"/>
      <point x="859" y="601" type="curve" smooth="yes"/>
      <point x="846" y="570"/>
      <point x="831" y="521"/>
      <point x="824" y="430" type="curve" smooth="yes"/>
      <point x="814" y="300" type="line" smooth="yes"/>
      <point x="813" y="283"/>
      <point x="808" y="267"/>
      <point x="799" y="245" type="curve" smooth="yes"/>
      <point x="756" y="141"/>
      <point x="537" y="131"/>
      <point x="328" y="131" type="curve" smooth="yes"/>
      <point x="272" y="131"/>
      <point x="220" y="132"/>
      <point x="78" y="144" type="curve"/>
      <point x="67" y="136" type="line"/>
      <point x="62" y="118"/>
      <point x="60" y="96"/>
      <point x="60" y="82" type="curve" smooth="yes"/>
      <point x="60" y="47"/>
      <point x="68" y="11"/>
      <point x="149" y="0" type="curve" smooth="yes"/>
      <point x="204" y="-7"/>
      <point x="232" y="-9"/>
      <point x="303" y="-9" type="curve" smooth="yes"/>
      <point x="503" y="-9"/>
      <point x="741" y="1"/>
      <point x="810" y="178" type="curve"/>
      <point x="816" y="81"/>
      <point x="861" y="19"/>
      <point x="937" y="19" type="curve" smooth="yes"/>
      <point x="1043" y="19"/>
      <point x="1096" y="129"/>
      <point x="1126" y="227" type="curve" smooth="yes"/>
      <point x="1154" y="319"/>
      <point x="1164" y="408"/>
      <point x="1168" y="504" type="curve" smooth="yes"/>
      <point x="1172" y="591"/>
      <point x="1171" y="649"/>
      <point x="1180" y="693" type="curve"/>
      <point x="1159" y="700" type="line"/>
      <point x="1127" y="632"/>
      <point x="1119" y="605"/>
      <point x="1110" y="574" type="curve" smooth="yes"/>
      <point x="1102" y="545"/>
      <point x="1100" y="514"/>
      <point x="1099" y="477" type="curve" smooth="yes"/>
      <point x="1097" y="378" type="line" smooth="yes"/>
      <point x="1096" y="336"/>
      <point x="1094" y="296"/>
      <point x="1090" y="274" type="curve" smooth="yes"/>
      <point x="1075" y="200"/>
      <point x="1039" y="177"/>
      <point x="986" y="177" type="curve" smooth="yes"/>
      <point x="903" y="177"/>
      <point x="885" y="255"/>
      <point x="885" y="359" type="curve" smooth="yes"/>
      <point x="885" y="396"/>
      <point x="888" y="494"/>
      <point x="896" y="564" type="curve" smooth="yes"/>
      <point x="899" y="589"/>
      <point x="903" y="607"/>
      <point x="908" y="620" type="curve" smooth="yes"/>
      <point x="917" y="643"/>
      <point x="934" y="658"/>
      <point x="948" y="669" type="curve" smooth="yes"/>
      <point x="965" y="682"/>
      <point x="992" y="695"/>
      <point x="1118" y="754" type="curve" smooth="yes"/>
      <point x="1212" y="798"/>
      <point x="1302" y="840"/>
      <point x="1366" y="883" type="curve"/>
      <point x="1397" y="913"/>
      <point x="1429" y="957"/>
    </contour>
  </outline>
</glyph>
<glyph name="karor_siyaq" format="2">
  <advance width="1150"/>
  <unicode hex="1ECA1"/>
  <outline>
    <contour>
      <point x="714" y="436" type="curve" smooth="yes"/>
      <point x="714" y="509"/>
      <point x="695" y="588"/>
      <point x="620" y="588" type="curve" smooth="yes"/>
      <point x="585" y="588"/>
      <point x="560" y="565"/>
      <point x="547" y="534" type="curve" smooth="yes"/>
      <point x="526" y="483" type="line" smooth="yes"/>
      <point x="515" y="456"/>
      <point x="510" y="434"/>
      <point x="510" y="416" type="curve" smooth="yes"/>
      <point x="510" y="365"/>
      <point x="545" y="340"/>
      <point x="592" y="340" type="curve" smooth="yes"/>
      <point x="616" y="340"/>
      <point x="641" y="350"/>
      <point x="659" y="363" type="curve"/>
      <point x="661" y="361"/>
      <point x="662" y="357"/>
      <point x="662" y="355" type="curve" smooth="yes"/>
      <point x="662" y="342"/>
      <point x="650" y="327"/>
      <point x="624" y="298" type="curve" smooth="yes"/>
      <point x="573" y="243"/>
      <point x="464" y="164"/>
      <point x="393" y="122" type="curve"/>
      <point x="399" y="100" type="line"/>
      <point x="471" y="119"/>
      <point x="591" y="164"/>
      <point x="626" y="188" type="curve"/>
      <point x="686" y="258"/>
      <point x="714" y="344"/>
    </contour>
    <contour>
      <point x="462" y="567" type="curve"/>
      <point x="432" y="572" type="line"/>
      <point x="411" y="512"/>
      <point x="389" y="455"/>
      <point x="361" y="401" type="curve" smooth="yes"/>
      <point x="342" y="364"/>
      <point x="324" y="341"/>
      <point x="303" y="320" type="curve" smooth="yes"/>
      <point x="233" y="249"/>
      <point x="113" y="145"/>
      <point x="50" y="110" type="curve"/>
      <point x="54" y="87" type="line"/>
      <point x="146" y="112"/>
      <point x="260" y="169"/>
      <point x="296" y="187" type="curve"/>
      <point x="376" y="250"/>
      <point x="429" y="431"/>
    </contour>
    <contour>
      <point x="1287" y="980" type="curve" smooth="yes"/>
      <point x="1380" y="1024"/>
      <point x="1468" y="1066"/>
      <point x="1531" y="1109" type="curve"/>
      <point x="1560" y="1139"/>
      <point x="1591" y="1183"/>
      <point x="1596" y="1203" type="curve"/>
      <point x="1589" y="1210" type="line"/>
      <point x="1579" y="1207"/>
      <point x="1534" y="1181"/>
      <point x="1484" y="1153" type="curve" smooth="yes"/>
      <point x="1441" y="1129"/>
      <point x="1399" y="1107"/>
      <point x="1372" y="1093" type="curve" smooth="yes"/>
      <point x="1241" y="1025" type="line" smooth="yes"/>
      <point x="1165" y="986"/>
      <point x="1140" y="972"/>
      <point x="1101" y="937" type="curve" smooth="yes"/>
      <point x="1078" y="916"/>
      <point x="1054" y="881"/>
      <point x="1034" y="827" type="curve" smooth="yes"/>
      <point x="1022" y="796"/>
      <point x="1010" y="747"/>
      <point x="1005" y="656" type="curve" smooth="yes"/>
      <point x="1000" y="561"/>
      <point x="999" y="503"/>
      <point x="997" y="484" type="curve" smooth="yes"/>
      <point x="995" y="459"/>
      <point x="993" y="451"/>
      <point x="987" y="441" type="curve" smooth="yes"/>
      <point x="978" y="426"/>
      <point x="968" y="419"/>
      <point x="953" y="410" type="curve" smooth="yes"/>
      <point x="938" y="401"/>
      <point x="933" y="398"/>
      <point x="903" y="383" type="curve" smooth="yes"/>
      <point x="853" y="358"/>
      <point x="835" y="327"/>
      <point x="791" y="245" type="curve" smooth="yes"/>
      <point x="764" y="195" type="line" smooth="yes"/>
      <point x="744" y="158"/>
      <point x="731" y="145"/>
      <point x="708" y="127" type="curve" smooth="yes"/>
      <point x="648" y="79"/>
      <point x="530" y="6"/>
      <point x="465" y="-27" type="curve"/>
      <point x="470" y="-48" type="line"/>
      <point x="545" y="-35"/>
      <point x="656" y="-5"/>
      <point x="692" y="7" type="curve"/>
      <point x="721" y="25"/>
      <point x="745" y="62"/>
      <point x="776" y="122" type="curve" smooth="yes"/>
      <point x="812" y="191" type="line" smooth="yes"/>
      <point x="826" y="218"/>
      <point x="842" y="238"/>
      <point x="882" y="263" type="curve" smooth="yes"/>
      <point x="914" y="283"/>
      <point x="926" y="287"/>
      <point x="952" y="310" type="curve" smooth="yes"/>
      <point x="1010" y="360"/>
      <point x="1036" y="441"/>
      <point x="1050" y="521" type="curve" smooth="yes"/>
      <point x="1059" y="574"/>
      <point x="1064" y="652"/>
      <point x="1066" y="688" type="curve" smooth="yes"/>
      <point x="1072" y="790" type="line" smooth="yes"/>
      <point x="1073" y="815"/>
      <point x="1077" y="833"/>
      <point x="1082" y="846" type="curve" smooth="yes"/>
      <point x="1091" y="869"/>
      <point x="1107" y="885"/>
      <point x="1120" y="895" type="curve" smooth="yes"/>
      <point x="1137" y="908"/>
      <point x="1163" y="921"/>
    </contour>
  </outline>
</glyph>
<glyph name="karoran_siyaq" format="2">
  <advance width="1657"/>
  <unicode hex="1ECA2"/>
  <outline>
    <contour>
      <point x="1221" y="436" type="curve" smooth="yes"/>
      <point x="1221" y="509"/>
      <point x="1202" y="588"/>
      <point x="1127" y="588" type="curve" smooth="yes"/>
      <point x="1092" y="588"/>
      <point x="1067" y="565"/>
      <point x="1054" y="534" type="curve" smooth="yes"/>
      <point x="1033" y="483" type="line" smooth="yes"/>
      <point x="1022" y="456"/>
      <point x="1017" y="434"/>
      <point x="1017" y="416" type="curve" smooth="yes"/>
      <point x="1017" y="365"/>
      <point x="1052" y="340"/>
      <point x="1099" y="340" type="curve" smooth="yes"/>
      <point x="1123" y="340"/>
      <point x="1148" y="350"/>
      <point x="1166" y="363" type="curve"/>
      <point x="1168" y="361"/>
      <point x="1169" y="357"/>
      <point x="1169" y="355" type="curve" smooth="yes"/>
      <point x="1169" y="342"/>
      <point x="1158" y="327"/>
      <point x="1131" y="298" type="curve" smooth="yes"/>
      <point x="1079" y="242"/>
      <point x="971" y="164"/>
      <point x="900" y="122" type="curve"/>
      <point x="906" y="100" type="line"/>
      <point x="978" y="119"/>
      <point x="1098" y="164"/>
      <point x="1133" y="188" type="curve"/>
      <point x="1193" y="258"/>
      <point x="1221" y="344"/>
    </contour>
    <contour>
      <point x="969" y="567" type="curve"/>
      <point x="939" y="572" type="line"/>
      <point x="918" y="512"/>
      <point x="896" y="455"/>
      <point x="868" y="401" type="curve" smooth="yes"/>
      <point x="849" y="364"/>
      <point x="831" y="341"/>
      <point x="810" y="320" type="curve" smooth="yes"/>
      <point x="740" y="249"/>
      <point x="620" y="145"/>
      <point x="557" y="110" type="curve"/>
      <point x="561" y="87" type="line"/>
      <point x="653" y="112"/>
      <point x="767" y="169"/>
      <point x="803" y="187" type="curve"/>
      <point x="883" y="250"/>
      <point x="936" y="431"/>
    </contour>
    <contour>
      <point x="1794" y="980" type="curve" smooth="yes"/>
      <point x="1887" y="1024"/>
      <point x="1975" y="1066"/>
      <point x="2038" y="1109" type="curve"/>
      <point x="2067" y="1139"/>
      <point x="2098" y="1183"/>
      <point x="2103" y="1203" type="curve"/>
      <point x="2096" y="1210" type="line"/>
      <point x="2075" y="1202"/>
      <point x="2047" y="1184"/>
      <point x="2029" y="1174" type="curve" smooth="yes"/>
      <point x="1968" y="1140"/>
      <point x="1907" y="1108"/>
      <point x="1843" y="1075" type="curve" smooth="yes"/>
      <point x="1747" y="1025" type="line" smooth="yes"/>
      <point x="1671" y="985"/>
      <point x="1647" y="972"/>
      <point x="1608" y="937" type="curve" smooth="yes"/>
      <point x="1585" y="916"/>
      <point x="1561" y="881"/>
      <point x="1541" y="827" type="curve" smooth="yes"/>
      <point x="1529" y="796"/>
      <point x="1516" y="747"/>
      <point x="1512" y="656" type="curve" smooth="yes"/>
      <point x="1510" y="619" type="line" smooth="yes"/>
      <point x="1507" y="561"/>
      <point x="1506" y="507"/>
      <point x="1504" y="484" type="curve" smooth="yes"/>
      <point x="1502" y="459"/>
      <point x="1500" y="451"/>
      <point x="1494" y="441" type="curve" smooth="yes"/>
      <point x="1485" y="426"/>
      <point x="1476" y="419"/>
      <point x="1460" y="410" type="curve" smooth="yes"/>
      <point x="1443" y="400"/>
      <point x="1439" y="398"/>
      <point x="1410" y="383" type="curve" smooth="yes"/>
      <point x="1359" y="356"/>
      <point x="1342" y="327"/>
      <point x="1298" y="245" type="curve" smooth="yes"/>
      <point x="1271" y="195" type="line" smooth="yes"/>
      <point x="1250" y="157"/>
      <point x="1238" y="145"/>
      <point x="1215" y="127" type="curve" smooth="yes"/>
      <point x="1155" y="79"/>
      <point x="1037" y="6"/>
      <point x="972" y="-27" type="curve"/>
      <point x="977" y="-48" type="line"/>
      <point x="1052" y="-35"/>
      <point x="1163" y="-5"/>
      <point x="1199" y="7" type="curve"/>
      <point x="1228" y="25"/>
      <point x="1252" y="62"/>
      <point x="1283" y="122" type="curve" smooth="yes"/>
      <point x="1318" y="189" type="line" smooth="yes"/>
      <point x="1331" y="215"/>
      <point x="1343" y="231"/>
      <point x="1376" y="254" type="curve" smooth="yes"/>
      <point x="1395" y="267"/>
      <point x="1400" y="270"/>
      <point x="1414" y="278" type="curve" smooth="yes"/>
      <point x="1430" y="287"/>
      <point x="1443" y="296"/>
      <point x="1459" y="310" type="curve" smooth="yes"/>
      <point x="1515" y="357"/>
      <point x="1543" y="441"/>
      <point x="1557" y="521" type="curve" smooth="yes"/>
      <point x="1566" y="574"/>
      <point x="1571" y="652"/>
      <point x="1573" y="688" type="curve" smooth="yes"/>
      <point x="1579" y="790" type="line" smooth="yes"/>
      <point x="1580" y="815"/>
      <point x="1584" y="833"/>
      <point x="1589" y="846" type="curve" smooth="yes"/>
      <point x="1598" y="869"/>
      <point x="1613" y="885"/>
      <point x="1627" y="895" type="curve" smooth="yes"/>
      <point x="1644" y="908"/>
      <point x="1670" y="921"/>
    </contour>
    <contour>
      <point x="569" y="584" type="curve"/>
      <point x="546" y="589" type="line"/>
      <point x="522" y="530"/>
      <point x="513" y="492"/>
      <point x="507" y="453" type="curve" smooth="yes"/>
      <point x="504" y="436"/>
      <point x="504" y="403"/>
      <point x="504" y="395" type="curve" smooth="yes"/>
      <point x="504" y="365"/>
      <point x="502" y="340"/>
      <point x="497" y="317" type="curve" smooth="yes"/>
      <point x="485" y="258"/>
      <point x="428" y="155"/>
      <point x="270" y="155" type="curve" smooth="yes"/>
      <point x="169" y="155"/>
      <point x="116" y="201"/>
      <point x="116" y="294" type="curve" smooth="yes"/>
      <point x="116" y="333"/>
      <point x="124" y="377"/>
      <point x="152" y="438" type="curve"/>
      <point x="123" y="446" type="line"/>
      <point x="83" y="370"/>
      <point x="60" y="290"/>
      <point x="60" y="193" type="curve" smooth="yes"/>
      <point x="60" y="68"/>
      <point x="122" y="-3"/>
      <point x="237" y="-3" type="curve" smooth="yes"/>
      <point x="394" y="-3"/>
      <point x="483" y="127"/>
      <point x="532" y="282" type="curve" smooth="yes"/>
      <point x="552" y="345"/>
      <point x="562" y="409"/>
      <point x="563" y="458" type="curve" smooth="yes"/>
      <point x="564" y="514"/>
      <point x="564" y="559"/>
    </contour>
    <contour>
      <point x="649" y="294" type="curve"/>
      <point x="671" y="289" type="line"/>
      <point x="710" y="378"/>
      <point x="736" y="480"/>
      <point x="741" y="565" type="curve" smooth="yes"/>
      <point x="749" y="711" type="line" smooth="yes"/>
      <point x="756" y="836"/>
      <point x="762" y="955"/>
      <point x="780" y="999" type="curve"/>
      <point x="756" y="1007" type="line"/>
      <point x="715" y="917"/>
      <point x="700" y="863"/>
      <point x="690" y="823" type="curve" smooth="yes"/>
      <point x="680" y="784"/>
      <point x="677" y="731"/>
      <point x="675" y="682" type="curve" smooth="yes"/>
      <point x="667" y="483" type="line" smooth="yes"/>
      <point x="664" y="396"/>
      <point x="653" y="316"/>
    </contour>
  </outline>
</glyph>
<glyph name="prefixed_one_siyaq" format="2">
  <advance width="225"/>
  <unicode hex="1ECA3"/>
  <outline>
    <contour>
      <point x="105" y="1" type="curve" smooth="yes"/>
      <point x="128" y="96"/>
      <point x="138" y="217"/>
      <point x="141" y="269" type="curve" smooth="yes"/>
      <point x="151" y="442" type="line" smooth="yes"/>
      <point x="154" y="500"/>
      <point x="159" y="547"/>
      <point x="165" y="573" type="curve"/>
      <point x="141" y="578" type="line"/>
      <point x="104" y="494"/>
      <point x="94" y="453"/>
      <point x="86" y="413" type="curve" smooth="yes"/>
      <point x="78" y="373"/>
      <point x="72" y="334"/>
      <point x="71" y="285" type="curve" smooth="yes"/>
      <point x="70" y="188" type="line" smooth="yes"/>
      <point x="69" y="101"/>
      <point x="67" y="33"/>
      <point x="62" y="11" type="curve" smooth="yes"/>
      <point x="45" y="-67"/>
      <point x="-5" y="-87"/>
      <point x="-90" y="-87" type="curve" smooth="yes"/>
      <point x="-148" y="-87"/>
      <point x="-159" y="-77"/>
      <point x="-235" y="-77" type="curve" smooth="yes"/>
      <point x="-313" y="-77"/>
      <point x="-388" y="-137"/>
      <point x="-450" y="-294" type="curve"/>
      <point x="-430" y="-303" type="line"/>
      <point x="-388" y="-245"/>
      <point x="-359" y="-228"/>
      <point x="-315" y="-228" type="curve" smooth="yes"/>
      <point x="-267" y="-228"/>
      <point x="-218" y="-244"/>
      <point x="-156" y="-244" type="curve" smooth="yes"/>
      <point x="-122" y="-244"/>
      <point x="-77" y="-236"/>
      <point x="-44" y="-219" type="curve" smooth="yes"/>
      <point x="43" y="-174"/>
      <point x="83" y="-92"/>
    </contour>
  </outline>
</glyph>
<glyph name="prefixed_two_siyaq" format="2">
  <advance width="342"/>
  <unicode hex="1ECA4"/>
  <outline>
    <contour>
      <point x="-926" y="-110" type="curve"/>
      <point x="-937" y="-118" type="line"/>
      <point x="-942" y="-136"/>
      <point x="-944" y="-152"/>
      <point x="-944" y="-166" type="curve" smooth="yes"/>
      <point x="-944" y="-201"/>
      <point x="-934" y="-237"/>
      <point x="-853" y="-245" type="curve" smooth="yes"/>
      <point x="-793" y="-251"/>
      <point x="-718" y="-252"/>
      <point x="-653" y="-252" type="curve" smooth="yes"/>
      <point x="-421" y="-252"/>
      <point x="-201" y="-233"/>
      <point x="-17" y="-171" type="curve" smooth="yes"/>
      <point x="144" y="-117"/>
      <point x="216" y="-50"/>
      <point x="282" y="58" type="curve"/>
      <point x="264" y="69" type="line"/>
      <point x="218" y="16"/>
      <point x="178" y="-11"/>
      <point x="114" y="-11" type="curve" smooth="yes"/>
      <point x="76" y="-11"/>
      <point x="29" y="8"/>
      <point x="29" y="57" type="curve" smooth="yes"/>
      <point x="29" y="77"/>
      <point x="39" y="99"/>
      <point x="57" y="114" type="curve" smooth="yes"/>
      <point x="80" y="133"/>
      <point x="111" y="144"/>
      <point x="141" y="144" type="curve" smooth="yes"/>
      <point x="164" y="144"/>
      <point x="188" y="137"/>
      <point x="206" y="121" type="curve"/>
      <point x="214" y="120" type="line"/>
      <point x="235" y="131"/>
      <point x="242" y="151"/>
      <point x="242" y="168" type="curve" smooth="yes"/>
      <point x="242" y="208"/>
      <point x="207" y="226"/>
      <point x="174" y="226" type="curve" smooth="yes"/>
      <point x="107" y="226"/>
      <point x="55" y="174"/>
      <point x="0" y="111" type="curve" smooth="yes"/>
      <point x="-33" y="73"/>
      <point x="-73" y="16"/>
      <point x="-73" y="-32" type="curve" smooth="yes"/>
      <point x="-73" y="-41"/>
      <point x="-71" y="-51"/>
      <point x="-67" y="-63" type="curve"/>
      <point x="-215" y="-98"/>
      <point x="-446" y="-116"/>
      <point x="-620" y="-116" type="curve" smooth="yes"/>
      <point x="-731" y="-116"/>
      <point x="-803" y="-116"/>
    </contour>
  </outline>
</glyph>
<glyph name="prefixed_three_siyaq" format="2">
  <advance width="341"/>
  <unicode hex="1ECA5"/>
  <outline>
    <contour>
      <point x="-32" y="-55" type="curve"/>
      <point x="-29" y="-169"/>
      <point x="31" y="-208"/>
      <point x="97" y="-208" type="curve" smooth="yes"/>
      <point x="188" y="-208"/>
      <point x="260" y="-113"/>
      <point x="281" y="63" type="curve"/>
      <point x="256" y="67" type="line"/>
      <point x="228" y="-41"/>
      <point x="185" y="-85"/>
      <point x="109" y="-85" type="curve" smooth="yes"/>
      <point x="76" y="-85"/>
      <point x="7" y="-76"/>
      <point x="7" y="28" type="curve" smooth="yes"/>
      <point x="7" y="31"/>
      <point x="8" y="43"/>
      <point x="10" y="56" type="curve"/>
      <point x="-14" y="60" type="line"/>
      <point x="-27" y="-14"/>
      <point x="-60" y="-34"/>
      <point x="-115" y="-57" type="curve" smooth="yes"/>
      <point x="-217" y="-100"/>
      <point x="-421" y="-118"/>
      <point x="-727" y="-118" type="curve" smooth="yes"/>
      <point x="-838" y="-118"/>
      <point x="-865" y="-118"/>
      <point x="-1000" y="-110" type="curve"/>
      <point x="-1011" y="-118" type="line"/>
      <point x="-1016" y="-136"/>
      <point x="-1018" y="-151"/>
      <point x="-1018" y="-165" type="curve" smooth="yes"/>
      <point x="-1018" y="-201"/>
      <point x="-1010" y="-231"/>
      <point x="-932" y="-243" type="curve" smooth="yes"/>
      <point x="-878" y="-251"/>
      <point x="-812" y="-252"/>
      <point x="-777" y="-252" type="curve" smooth="yes"/>
      <point x="-612" y="-252"/>
      <point x="-346" y="-252"/>
      <point x="-176" y="-183" type="curve" smooth="yes"/>
      <point x="-111" y="-157"/>
      <point x="-55" y="-102"/>
    </contour>
  </outline>
</glyph>
<glyph name="prefixed_four_siyaq" format="2">
  <advance width="705"/>
  <unicode hex="1ECA6"/>
  <outline>
    <contour>
      <point x="-802" y="-110" type="curve"/>
      <point x="-813" y="-118" type="line"/>
      <point x="-818" y="-136"/>
      <point x="-820" y="-151"/>
      <point x="-820" y="-165" type="curve" smooth="yes"/>
      <point x="-820" y="-200"/>
      <point x="-812" y="-231"/>
      <point x="-734" y="-243" type="curve" smooth="yes"/>
      <point x="-680" y="-251"/>
      <point x="-614" y="-252"/>
      <point x="-579" y="-252" type="curve" smooth="yes"/>
      <point x="-351" y="-252"/>
      <point x="-138" y="-238"/>
      <point x="30" y="-185" type="curve" smooth="yes"/>
      <point x="157" y="-145"/>
      <point x="210" y="-61"/>
      <point x="217" y="40" type="curve"/>
      <point x="255" y="71"/>
      <point x="294" y="113"/>
      <point x="311" y="162" type="curve"/>
      <point x="320" y="64"/>
      <point x="360" y="11"/>
      <point x="430" y="11" type="curve" smooth="yes"/>
      <point x="518" y="11"/>
      <point x="569" y="127"/>
      <point x="591" y="210" type="curve" smooth="yes"/>
      <point x="614" y="296"/>
      <point x="625" y="400"/>
      <point x="629" y="476" type="curve" smooth="yes"/>
      <point x="635" y="598" type="line" smooth="yes"/>
      <point x="637" y="644"/>
      <point x="639" y="681"/>
      <point x="645" y="705" type="curve"/>
      <point x="622" y="710" type="line"/>
      <point x="588" y="639"/>
      <point x="581" y="610"/>
      <point x="575" y="575" type="curve" smooth="yes"/>
      <point x="570" y="543"/>
      <point x="567" y="511"/>
      <point x="566" y="471" type="curve" smooth="yes"/>
      <point x="564" y="372" type="line" smooth="yes"/>
      <point x="563" y="302"/>
      <point x="561" y="279"/>
      <point x="556" y="258" type="curve" smooth="yes"/>
      <point x="542" y="194"/>
      <point x="505" y="169"/>
      <point x="467" y="169" type="curve" smooth="yes"/>
      <point x="385" y="169"/>
      <point x="377" y="248"/>
      <point x="377" y="352" type="curve" smooth="yes"/>
      <point x="377" y="536"/>
      <point x="387" y="589"/>
      <point x="396" y="635" type="curve"/>
      <point x="373" y="639" type="line"/>
      <point x="338" y="563"/>
      <point x="329" y="507"/>
      <point x="324" y="441" type="curve" smooth="yes"/>
      <point x="315" y="333" type="line" smooth="yes"/>
      <point x="308" y="247"/>
      <point x="279" y="158"/>
      <point x="213" y="121" type="curve"/>
      <point x="203" y="178"/>
      <point x="174" y="231"/>
      <point x="113" y="231" type="curve" smooth="yes"/>
      <point x="85" y="231"/>
      <point x="65" y="216"/>
      <point x="51" y="187" type="curve" smooth="yes"/>
      <point x="21" y="127" type="line" smooth="yes"/>
      <point x="7" y="100"/>
      <point x="3" y="76"/>
      <point x="3" y="59" type="curve" smooth="yes"/>
      <point x="3" y="13"/>
      <point x="44" y="-11"/>
      <point x="83" y="-11" type="curve" smooth="yes"/>
      <point x="108" y="-11"/>
      <point x="132" y="-5"/>
      <point x="158" y="7" type="curve"/>
      <point x="160" y="2"/>
      <point x="161" y="-5"/>
      <point x="161" y="-10" type="curve" smooth="yes"/>
      <point x="161" y="-37"/>
      <point x="133" y="-50"/>
      <point x="85" y="-63" type="curve" smooth="yes"/>
      <point x="-56" y="-101"/>
      <point x="-340" y="-116"/>
      <point x="-516" y="-116" type="curve" smooth="yes"/>
      <point x="-627" y="-116"/>
      <point x="-671" y="-116"/>
    </contour>
  </outline>
</glyph>
<glyph name="prefixed_five_siyaq" format="2">
  <advance width="446"/>
  <unicode hex="1ECA7"/>
  <outline>
    <contour>
      <point x="-910" y="-110" type="curve"/>
      <point x="-921" y="-118" type="line"/>
      <point x="-926" y="-136"/>
      <point x="-928" y="-152"/>
      <point x="-928" y="-166" type="curve" smooth="yes"/>
      <point x="-928" y="-202"/>
      <point x="-919" y="-236"/>
      <point x="-839" y="-245" type="curve" smooth="yes"/>
      <point x="-779" y="-252"/>
      <point x="-702" y="-252"/>
      <point x="-637" y="-252" type="curve" smooth="yes"/>
      <point x="-269" y="-252"/>
      <point x="122" y="-198"/>
      <point x="276" y="6" type="curve" smooth="yes"/>
      <point x="314" y="56"/>
      <point x="351" y="106"/>
      <point x="382" y="156" type="curve"/>
      <point x="379" y="169" type="line"/>
      <point x="355" y="174"/>
      <point x="330" y="187"/>
      <point x="281" y="204" type="curve" smooth="yes"/>
      <point x="232" y="221"/>
      <point x="194" y="230"/>
      <point x="153" y="230" type="curve" smooth="yes"/>
      <point x="98" y="230"/>
      <point x="51" y="200"/>
      <point x="16" y="141" type="curve" smooth="yes"/>
      <point x="-14" y="90"/>
      <point x="-46" y="16"/>
      <point x="-61" y="-63" type="curve"/>
      <point x="-232" y="-98"/>
      <point x="-433" y="-116"/>
      <point x="-604" y="-116" type="curve" smooth="yes"/>
      <point x="-715" y="-116"/>
      <point x="-747" y="-116"/>
    </contour>
    <contour>
      <point x="-17" y="-53" type="curve"/>
      <point x="2" y="37"/>
      <point x="30" y="80"/>
      <point x="63" y="105" type="curve" smooth="yes"/>
      <point x="83" y="120"/>
      <point x="111" y="127"/>
      <point x="136" y="127" type="curve" smooth="yes"/>
      <point x="175" y="127"/>
      <point x="211" y="117"/>
      <point x="246" y="106" type="curve" smooth="yes"/>
      <point x="289" y="93" type="line"/>
      <point x="260" y="52"/>
      <point x="220" y="23"/>
      <point x="156" y="-2" type="curve" smooth="yes"/>
      <point x="106" y="-21"/>
      <point x="47" y="-39"/>
    </contour>
  </outline>
</glyph>
<glyph name="prefixed_six_siyaq" format="2">
  <advance width="361"/>
  <unicode hex="1ECA8"/>
  <outline>
    <contour>
      <point x="-759" y="-252" type="curve" smooth="yes"/>
      <point x="-367" y="-252"/>
      <point x="-94" y="-197"/>
      <point x="-5" y="-169" type="curve" smooth="yes"/>
      <point x="85" y="-141"/>
      <point x="234" y="-57"/>
      <point x="281" y="-2" type="curve"/>
      <point x="274" y="7" type="line"/>
      <point x="28" y="-58"/>
      <point x="-355" y="-116"/>
      <point x="-686" y="-116" type="curve" smooth="yes"/>
      <point x="-797" y="-116"/>
      <point x="-832" y="-116"/>
      <point x="-982" y="-110" type="curve"/>
      <point x="-993" y="-118" type="line"/>
      <point x="-998" y="-136"/>
      <point x="-1000" y="-151"/>
      <point x="-1000" y="-165" type="curve" smooth="yes"/>
      <point x="-1000" y="-200"/>
      <point x="-992" y="-231"/>
      <point x="-914" y="-243" type="curve" smooth="yes"/>
      <point x="-860" y="-251"/>
      <point x="-794" y="-252"/>
    </contour>
  </outline>
</glyph>
<glyph name="prefixed_seven_siyaq" format="2">
  <advance width="554"/>
  <unicode hex="1ECA9"/>
  <outline>
    <contour>
      <point x="158" y="7" type="curve"/>
      <point x="160" y="2"/>
      <point x="161" y="-5"/>
      <point x="161" y="-10" type="curve" smooth="yes"/>
      <point x="161" y="-37"/>
      <point x="133" y="-50"/>
      <point x="85" y="-63" type="curve" smooth="yes"/>
      <point x="-56" y="-101"/>
      <point x="-340" y="-116"/>
      <point x="-516" y="-116" type="curve" smooth="yes"/>
      <point x="-627" y="-116"/>
      <point x="-653" y="-116"/>
      <point x="-802" y="-110" type="curve"/>
      <point x="-813" y="-118" type="line"/>
      <point x="-818" y="-136"/>
      <point x="-820" y="-151"/>
      <point x="-820" y="-165" type="curve" smooth="yes"/>
      <point x="-820" y="-200"/>
      <point x="-812" y="-231"/>
      <point x="-734" y="-243" type="curve" smooth="yes"/>
      <point x="-680" y="-251"/>
      <point x="-614" y="-252"/>
      <point x="-579" y="-252" type="curve" smooth="yes"/>
      <point x="-351" y="-252"/>
      <point x="-138" y="-238"/>
      <point x="30" y="-185" type="curve" smooth="yes"/>
      <point x="157" y="-145"/>
      <point x="210" y="-61"/>
      <point x="217" y="40" type="curve"/>
      <point x="235" y="56"/>
      <point x="252" y="73"/>
      <point x="273" y="94" type="curve" smooth="yes"/>
      <point x="309" y="130" type="line" smooth="yes"/>
      <point x="345" y="166"/>
      <point x="358" y="174"/>
      <point x="380" y="174" type="curve" smooth="yes"/>
      <point x="426" y="174"/>
      <point x="432" y="111"/>
      <point x="432" y="73" type="curve" smooth="yes"/>
      <point x="432" y="49"/>
      <point x="429" y="13"/>
      <point x="426" y="-8" type="curve"/>
      <point x="456" y="-11" type="line"/>
      <point x="481" y="56"/>
      <point x="494" y="117"/>
      <point x="494" y="169" type="curve" smooth="yes"/>
      <point x="494" y="228"/>
      <point x="474" y="283"/>
      <point x="408" y="283" type="curve" smooth="yes"/>
      <point x="384" y="283"/>
      <point x="364" y="268"/>
      <point x="336" y="235" type="curve" smooth="yes"/>
      <point x="301" y="193"/>
      <point x="260" y="139"/>
      <point x="215" y="110" type="curve"/>
      <point x="207" y="190"/>
      <point x="168" y="231"/>
      <point x="113" y="231" type="curve" smooth="yes"/>
      <point x="85" y="231"/>
      <point x="65" y="216"/>
      <point x="51" y="187" type="curve" smooth="yes"/>
      <point x="21" y="127" type="line" smooth="yes"/>
      <point x="7" y="100"/>
      <point x="3" y="76"/>
      <point x="3" y="59" type="curve" smooth="yes"/>
      <point x="3" y="13"/>
      <point x="44" y="-11"/>
      <point x="83" y="-11" type="curve" smooth="yes"/>
      <point x="106" y="-11"/>
      <point x="131" y="-6"/>
    </contour>
  </outline>
</glyph>
<glyph name="prefixed_eight_siyaq" format="2">
  <advance width="544"/>
  <unicode hex="1ECAA"/>
  <outline>
    <contour>
      <point x="-29" y="-60" type="curve"/>
      <point x="-29" y="-166"/>
      <point x="19" y="-234"/>
      <point x="102" y="-234" type="curve" smooth="yes"/>
      <point x="193" y="-234"/>
      <point x="244" y="-165"/>
      <point x="305" y="-81" type="curve" smooth="yes"/>
      <point x="344" y="-28"/>
      <point x="361" y="-22"/>
      <point x="382" y="-22" type="curve" smooth="yes"/>
      <point x="432" y="-22"/>
      <point x="450" y="-83"/>
      <point x="450" y="-146" type="curve" smooth="yes"/>
      <point x="450" y="-159"/>
      <point x="449" y="-171"/>
      <point x="448" y="-183" type="curve"/>
      <point x="472" y="-184" type="line"/>
      <point x="483" y="-156"/>
      <point x="493" y="-106"/>
      <point x="493" y="-55" type="curve" smooth="yes"/>
      <point x="493" y="14"/>
      <point x="474" y="82"/>
      <point x="409" y="82" type="curve" smooth="yes"/>
      <point x="379" y="82"/>
      <point x="348" y="62"/>
      <point x="315" y="16" type="curve" smooth="yes"/>
      <point x="298" y="-8" type="line" smooth="yes"/>
      <point x="258" y="-65"/>
      <point x="211" y="-115"/>
      <point x="135" y="-115" type="curve" smooth="yes"/>
      <point x="66" y="-115"/>
      <point x="13" y="-83"/>
      <point x="6" y="11" type="curve"/>
      <point x="8" y="22"/>
      <point x="10" y="34"/>
      <point x="10" y="53" type="curve"/>
      <point x="-14" y="57" type="line"/>
      <point x="-27" y="-17"/>
      <point x="-59" y="-39"/>
      <point x="-114" y="-62" type="curve" smooth="yes"/>
      <point x="-216" y="-105"/>
      <point x="-421" y="-118"/>
      <point x="-727" y="-118" type="curve" smooth="yes"/>
      <point x="-838" y="-118"/>
      <point x="-860" y="-117"/>
      <point x="-1000" y="-110" type="curve"/>
      <point x="-1011" y="-118" type="line"/>
      <point x="-1016" y="-136"/>
      <point x="-1018" y="-151"/>
      <point x="-1018" y="-165" type="curve" smooth="yes"/>
      <point x="-1018" y="-200"/>
      <point x="-1010" y="-231"/>
      <point x="-932" y="-243" type="curve" smooth="yes"/>
      <point x="-878" y="-251"/>
      <point x="-812" y="-252"/>
      <point x="-777" y="-252" type="curve" smooth="yes"/>
      <point x="-612" y="-252"/>
      <point x="-346" y="-251"/>
      <point x="-176" y="-183" type="curve" smooth="yes"/>
      <point x="-111" y="-157"/>
      <point x="-57" y="-117"/>
    </contour>
  </outline>
</glyph>
